<svg width="28" height="25" viewBox="0 0 28 25" fill="none" xmlns="http://www.w3.org/2000/svg">
<path d="M27.44 3.02125H21.28V1.34125C21.28 1.03194 21.0293 0.78125 20.72 0.78125H7.28C6.97069 0.78125 6.72 1.03199 6.72 1.34125V3.02125H0.56C0.250687 3.02125 0 3.27194 0 3.58125V21.5013C0 21.8105 0.250687 22.0612 0.56 22.0612H6.72V23.7412C6.72 24.0505 6.97069 24.3013 7.28 24.3013H20.72C21.0293 24.3013 21.28 24.0505 21.28 23.7412V22.0612H27.44C27.7493 22.0612 28 21.8105 28 21.5013V3.58125C28 3.27194 27.7493 3.02125 27.44 3.02125ZM1.12 20.9412V4.14125H6.72V20.9412H1.12ZM20.16 23.1812H7.84V21.5013V3.58125V1.90125H20.16V3.58125V21.5013V23.1812ZM26.88 20.9412H21.28V4.14125H26.88V20.9412Z" fill="#EEF2F5"/>
<path d="M10.64 8.61954H17.36C17.6693 8.61954 17.92 8.3688 17.92 8.05954C17.92 7.75028 17.6693 7.49954 17.36 7.49954H16.8V3.57954C16.8 3.36084 16.6727 3.16216 16.474 3.07078C16.2752 2.97934 16.0416 3.0121 15.8756 3.15434L14 4.76199L12.1244 3.1544C11.9584 3.0121 11.7247 2.9794 11.526 3.07083C11.3273 3.16222 11.2 3.3609 11.2 3.57959V7.49959H10.64C10.3307 7.49959 10.08 7.75033 10.08 8.05959C10.08 8.36885 10.3307 8.61954 10.64 8.61954ZM12.32 4.7971L13.6356 5.9247C13.8453 6.10446 14.1548 6.10446 14.3644 5.9247L15.68 4.7971V7.49954H12.32V4.7971ZM17.36 9.73954H10.64C9.71365 9.73954 8.96 10.4932 8.96 11.4195C8.96 12.3459 9.71365 13.0995 10.64 13.0995H17.36C18.2864 13.0995 19.04 12.3459 19.04 11.4195C19.04 10.4932 18.2864 9.73954 17.36 9.73954ZM17.36 11.9795H10.64C10.3312 11.9795 10.08 11.7283 10.08 11.4195C10.08 11.1108 10.3312 10.8595 10.64 10.8595H17.36C17.6688 10.8595 17.92 11.1108 17.92 11.4195C17.92 11.7284 17.6688 11.9795 17.36 11.9795ZM11.76 14.2195H9.52C9.21069 14.2195 8.96 14.4703 8.96 14.7795C8.96 15.0888 9.21069 15.3395 9.52 15.3395H11.76C12.0693 15.3395 12.32 15.0888 12.32 14.7795C12.32 14.4703 12.0693 14.2195 11.76 14.2195ZM18.48 14.2195H14C13.6907 14.2195 13.44 14.4703 13.44 14.7795C13.44 15.0888 13.6907 15.3395 14 15.3395H18.48C18.7893 15.3395 19.04 15.0888 19.04 14.7795C19.04 14.4703 18.7893 14.2195 18.48 14.2195ZM11.76 16.4595H9.52C9.21069 16.4595 8.96 16.7103 8.96 17.0195C8.96 17.3288 9.21069 17.5795 9.52 17.5795H11.76C12.0693 17.5795 12.32 17.3288 12.32 17.0195C12.32 16.7103 12.0693 16.4595 11.76 16.4595ZM18.48 16.4595H14C13.6907 16.4595 13.44 16.7103 13.44 17.0195C13.44 17.3288 13.6907 17.5795 14 17.5795H18.48C18.7893 17.5795 19.04 17.3288 19.04 17.0195C19.04 16.7103 18.7893 16.4595 18.48 16.4595ZM11.76 18.6995H9.52C9.21069 18.6995 8.96 18.9503 8.96 19.2595C8.96 19.5688 9.21069 19.8195 9.52 19.8195H11.76C12.0693 19.8195 12.32 19.5688 12.32 19.2595C12.32 18.9503 12.0693 18.6995 11.76 18.6995ZM18.48 18.6995H14C13.6907 18.6995 13.44 18.9503 13.44 19.2595C13.44 19.5688 13.6907 19.8195 14 19.8195H18.48C18.7893 19.8195 19.04 19.5688 19.04 19.2595C19.04 18.9503 18.7893 18.6995 18.48 18.6995ZM11.76 20.9395H9.52C9.21069 20.9395 8.96 21.1903 8.96 21.4995C8.96 21.8088 9.21069 22.0595 9.52 22.0595H11.76C12.0693 22.0595 12.32 21.8088 12.32 21.4995C12.32 21.1903 12.0693 20.9395 11.76 20.9395ZM18.48 20.9395H14C13.6907 20.9395 13.44 21.1903 13.44 21.4995C13.44 21.8088 13.6907 22.0595 14 22.0595H18.48C18.7893 22.0595 19.04 21.8088 19.04 21.4995C19.04 21.1903 18.7893 20.9395 18.48 20.9395ZM22.96 6.37954H25.2C25.5093 6.37954 25.76 6.12885 25.76 5.81954C25.76 5.51023 25.5093 5.25954 25.2 5.25954H22.96C22.6507 5.25954 22.4 5.51023 22.4 5.81954C22.4 6.12885 22.6507 6.37954 22.96 6.37954ZM22.96 8.61954H25.2C25.5093 8.61954 25.76 8.3688 25.76 8.05954C25.76 7.75028 25.5093 7.49954 25.2 7.49954H22.96C22.6507 7.49954 22.4 7.75028 22.4 8.05954C22.4 8.36885 22.6507 8.61954 22.96 8.61954ZM22.96 10.8595H25.2C25.5093 10.8595 25.76 10.6089 25.76 10.2995C25.76 9.99023 25.5093 9.73954 25.2 9.73954H22.96C22.6507 9.73954 22.4 9.99023 22.4 10.2995C22.4 10.6089 22.6507 10.8595 22.96 10.8595ZM22.96 13.0995H25.2C25.5093 13.0995 25.76 12.8488 25.76 12.5395C25.76 12.2302 25.5093 11.9795 25.2 11.9795H22.96C22.6507 11.9795 22.4 12.2302 22.4 12.5395C22.4 12.8488 22.6507 13.0995 22.96 13.0995ZM22.96 15.3395H25.2C25.5093 15.3395 25.76 15.0888 25.76 14.7795C25.76 14.4703 25.5093 14.2195 25.2 14.2195H22.96C22.6507 14.2195 22.4 14.4703 22.4 14.7795C22.4 15.0888 22.6507 15.3395 22.96 15.3395ZM22.4431 17.2334C22.7091 17.9088 23.7659 17.4712 23.4769 16.8055C23.2111 16.1304 22.1533 16.5679 22.4431 17.2334ZM25.7169 16.8051C25.4501 16.1306 24.3935 16.5683 24.6831 17.2335C24.9493 17.9089 26.0061 17.4711 25.7169 16.8051ZM22.6492 19.7249C23.1876 20.1039 23.8323 19.3177 23.3558 18.8636C22.7767 18.3053 21.9876 19.2664 22.6492 19.7249ZM25.7169 19.0456C25.3525 18.2418 24.2014 19.0103 24.8041 19.6555C25.2118 20.0887 25.9626 19.5884 25.7169 19.0456ZM5.04 5.25954H2.8C2.49069 5.25954 2.24 5.51023 2.24 5.81954C2.24 6.12885 2.49069 6.37954 2.8 6.37954H5.04C5.34931 6.37954 5.6 6.12885 5.6 5.81954C5.6 5.51023 5.34926 5.25954 5.04 5.25954ZM5.04 7.49954H2.8C2.49069 7.49954 2.24 7.75028 2.24 8.05954C2.24 8.36885 2.49069 8.61954 2.8 8.61954H5.04C5.34931 8.61954 5.6 8.3688 5.6 8.05954C5.6 7.75028 5.34926 7.49954 5.04 7.49954ZM5.04 9.73954H2.8C2.49069 9.73954 2.24 9.99023 2.24 10.2995C2.24 10.6089 2.49069 10.8595 2.8 10.8595H5.04C5.34931 10.8595 5.6 10.6089 5.6 10.2995C5.6 9.99023 5.34926 9.73954 5.04 9.73954ZM5.04 11.9795H2.8C2.49069 11.9795 2.24 12.2302 2.24 12.5395C2.24 12.8488 2.49069 13.0995 2.8 13.0995H5.04C5.34931 13.0995 5.6 12.8488 5.6 12.5395C5.6 12.2303 5.34926 11.9795 5.04 11.9795ZM5.04 14.2195H2.8C2.49069 14.2195 2.24 14.4703 2.24 14.7795C2.24 15.0888 2.49069 15.3395 2.8 15.3395H5.04C5.34931 15.3395 5.6 15.0888 5.6 14.7795C5.6 14.4703 5.34926 14.2195 5.04 14.2195ZM3.31685 16.8056C3.05085 16.1304 1.99396 16.5678 2.28309 17.2335C2.54909 17.9088 3.60593 17.4713 3.31685 16.8056ZM3.31685 19.0456C3.05041 18.37 1.99401 18.8082 2.28309 19.4735C2.54926 20.149 3.60582 19.7114 3.31685 19.0456ZM5.55691 16.8056C5.29085 16.1304 4.23401 16.5678 4.52315 17.2335C4.78909 17.9088 5.84593 17.4714 5.55691 16.8056ZM5.55691 19.0456C5.2908 18.37 4.23418 18.8077 4.52315 19.4735C4.78893 20.1489 5.84653 19.7111 5.55691 19.0456Z" fill="#EEF2F5"/>
</svg>
