<svg width="30" height="29" viewBox="0 0 30 29" fill="none" xmlns="http://www.w3.org/2000/svg">
<path d="M1.41675 13.9987C1.41675 8.9707 1.41675 6.45603 2.97941 4.8947C4.54208 3.33336 7.05542 3.33203 12.0834 3.33203H17.4167C22.4447 3.33203 24.9594 3.33203 26.5207 4.8947C28.0821 6.45736 28.0834 8.9707 28.0834 13.9987V16.6654C28.0834 21.6934 28.0834 24.208 26.5207 25.7694C24.9581 27.3307 22.4447 27.332 17.4167 27.332H12.0834C7.05542 27.332 4.54075 27.332 2.97941 25.7694C1.41808 24.2067 1.41675 21.6934 1.41675 16.6654V13.9987Z" stroke="#EBEBF0" stroke-width="2"/>
<path d="M8.0835 3.33203V1.33203M21.4168 3.33203V1.33203M2.0835 9.9987H27.4168" stroke="#EBEBF0" stroke-width="2" stroke-linecap="round"/>
<path d="M22.75 20.6667C22.75 21.0203 22.6095 21.3594 22.3595 21.6095C22.1094 21.8595 21.7703 22 21.4167 22C21.063 22 20.7239 21.8595 20.4739 21.6095C20.2238 21.3594 20.0833 21.0203 20.0833 20.6667C20.0833 20.313 20.2238 19.9739 20.4739 19.7239C20.7239 19.4738 21.063 19.3333 21.4167 19.3333C21.7703 19.3333 22.1094 19.4738 22.3595 19.7239C22.6095 19.9739 22.75 20.313 22.75 20.6667ZM22.75 15.3333C22.75 15.687 22.6095 16.0261 22.3595 16.2761C22.1094 16.5262 21.7703 16.6667 21.4167 16.6667C21.063 16.6667 20.7239 16.5262 20.4739 16.2761C20.2238 16.0261 20.0833 15.687 20.0833 15.3333C20.0833 14.9797 20.2238 14.6406 20.4739 14.3905C20.7239 14.1405 21.063 14 21.4167 14C21.7703 14 22.1094 14.1405 22.3595 14.3905C22.6095 14.6406 22.75 14.9797 22.75 15.3333ZM16.0833 20.6667C16.0833 21.0203 15.9429 21.3594 15.6928 21.6095C15.4428 21.8595 15.1036 22 14.75 22C14.3964 22 14.0572 21.8595 13.8072 21.6095C13.5571 21.3594 13.4167 21.0203 13.4167 20.6667C13.4167 20.313 13.5571 19.9739 13.8072 19.7239C14.0572 19.4738 14.3964 19.3333 14.75 19.3333C15.1036 19.3333 15.4428 19.4738 15.6928 19.7239C15.9429 19.9739 16.0833 20.313 16.0833 20.6667ZM16.0833 15.3333C16.0833 15.687 15.9429 16.0261 15.6928 16.2761C15.4428 16.5262 15.1036 16.6667 14.75 16.6667C14.3964 16.6667 14.0572 16.5262 13.8072 16.2761C13.5571 16.0261 13.4167 15.687 13.4167 15.3333C13.4167 14.9797 13.5571 14.6406 13.8072 14.3905C14.0572 14.1405 14.3964 14 14.75 14C15.1036 14 15.4428 14.1405 15.6928 14.3905C15.9429 14.6406 16.0833 14.9797 16.0833 15.3333ZM9.41667 20.6667C9.41667 21.0203 9.27619 21.3594 9.02614 21.6095C8.77609 21.8595 8.43696 22 8.08333 22C7.72971 22 7.39057 21.8595 7.14052 21.6095C6.89048 21.3594 6.75 21.0203 6.75 20.6667C6.75 20.313 6.89048 19.9739 7.14052 19.7239C7.39057 19.4738 7.72971 19.3333 8.08333 19.3333C8.43696 19.3333 8.77609 19.4738 9.02614 19.7239C9.27619 19.9739 9.41667 20.313 9.41667 20.6667ZM9.41667 15.3333C9.41667 15.687 9.27619 16.0261 9.02614 16.2761C8.77609 16.5262 8.43696 16.6667 8.08333 16.6667C7.72971 16.6667 7.39057 16.5262 7.14052 16.2761C6.89048 16.0261 6.75 15.687 6.75 15.3333C6.75 14.9797 6.89048 14.6406 7.14052 14.3905C7.39057 14.1405 7.72971 14 8.08333 14C8.43696 14 8.77609 14.1405 9.02614 14.3905C9.27619 14.6406 9.41667 14.9797 9.41667 15.3333Z" fill="#EBEBF0"/>
</svg>
