<svg width="33" height="32" viewBox="0 0 33 32" fill="none" xmlns="http://www.w3.org/2000/svg">
<path d="M3.41675 15.9987C3.41675 10.9707 3.41675 8.45603 4.97941 6.8947C6.54208 5.33336 9.05542 5.33203 14.0834 5.33203H19.4167C24.4447 5.33203 26.9594 5.33203 28.5207 6.8947C30.0821 8.45736 30.0834 10.9707 30.0834 15.9987V18.6654C30.0834 23.6934 30.0834 26.208 28.5207 27.7694C26.9581 29.3307 24.4447 29.332 19.4167 29.332H14.0834C9.05542 29.332 6.54075 29.332 4.97941 27.7694C3.41808 26.2067 3.41675 23.6934 3.41675 18.6654V15.9987Z" stroke="#EBEBF0" stroke-width="2"/>
<path d="M10.0835 5.33203V3.33203M23.4168 5.33203V3.33203M4.0835 11.9987H29.4168" stroke="#EBEBF0" stroke-width="2" stroke-linecap="round"/>
<path d="M23.5 17.5C24.0523 17.5 24.5 17.9477 24.5 18.5C24.5 19.0523 24.0523 19.5 23.5 19.5L9.5 19.5C8.94772 19.5 8.5 19.0523 8.5 18.5C8.5 17.9477 8.94772 17.5 9.5 17.5L23.5 17.5Z" fill="#EBEBF0"/>
</svg>
