<svg width="33" height="32" viewBox="0 0 33 32" fill="none" xmlns="http://www.w3.org/2000/svg">
<path d="M2.25 7.83333C2.25 6.28624 2.86458 4.80251 3.95854 3.70854C5.05251 2.61458 6.53624 2 8.08333 2H24.4167C25.9638 2 27.4475 2.61458 28.5415 3.70854C29.6354 4.80251 30.25 6.28624 30.25 7.83333V24.1667C30.25 25.7138 29.6354 27.1975 28.5415 28.2915C27.4475 29.3854 25.9638 30 24.4167 30H8.08333C6.53624 30 5.05251 29.3854 3.95854 28.2915C2.86458 27.1975 2.25 25.7138 2.25 24.1667V7.83333ZM8.08333 4.33333C7.15508 4.33333 6.26484 4.70208 5.60846 5.35846C4.95208 6.01484 4.58333 6.90508 4.58333 7.83333V24.1667C4.58333 25.0949 4.95208 25.9852 5.60846 26.6415C6.26484 27.2979 7.15508 27.6667 8.08333 27.6667H24.4167C25.3449 27.6667 26.2352 27.2979 26.8915 26.6415C27.5479 25.9852 27.9167 25.0949 27.9167 24.1667V7.83333C27.9167 6.90508 27.5479 6.01484 26.8915 5.35846C26.2352 4.70208 25.3449 4.33333 24.4167 4.33333H8.08333ZM17.4167 21.8333C17.4167 21.5239 17.5396 21.2272 17.7584 21.0084C17.9772 20.7896 18.2739 20.6667 18.5833 20.6667H23.8333C24.1428 20.6667 24.4395 20.7896 24.6583 21.0084C24.8771 21.2272 25 21.5239 25 21.8333C25 22.1428 24.8771 22.4395 24.6583 22.6583C24.4395 22.8771 24.1428 23 23.8333 23H18.5833C18.2739 23 17.9772 22.8771 17.7584 22.6583C17.5396 22.4395 17.4167 22.1428 17.4167 21.8333ZM18.5833 11.3333C18.2739 11.3333 17.9772 11.4562 17.7584 11.675C17.5396 11.8938 17.4167 12.1906 17.4167 12.5C17.4167 12.8094 17.5396 13.1062 17.7584 13.325C17.9772 13.5437 18.2739 13.6667 18.5833 13.6667H23.8333C24.1428 13.6667 24.4395 13.5437 24.6583 13.325C24.8771 13.1062 25 12.8094 25 12.5C25 12.1906 24.8771 11.8938 24.6583 11.675C24.4395 11.4562 24.1428 11.3333 23.8333 11.3333H18.5833ZM14.7427 18.674C14.8513 18.7824 14.9375 18.9111 14.9963 19.0529C15.0551 19.1946 15.0854 19.3465 15.0854 19.5C15.0854 19.6535 15.0551 19.8054 14.9963 19.9471C14.9375 20.0889 14.8513 20.2176 14.7427 20.326L11.2427 23.826C11.1343 23.9346 11.0056 24.0208 10.8638 24.0797C10.7221 24.1385 10.5701 24.1688 10.4167 24.1688C10.2632 24.1688 10.1113 24.1385 9.96952 24.0797C9.82778 24.0208 9.69904 23.9346 9.59067 23.826L7.84533 22.0807C7.73686 21.9722 7.65082 21.8434 7.59211 21.7017C7.53341 21.56 7.50319 21.4081 7.50319 21.2547C7.50319 21.1013 7.53341 20.9494 7.59211 20.8076C7.65082 20.6659 7.73686 20.5371 7.84533 20.4287C8.0644 20.2096 8.36152 20.0865 8.67133 20.0865C8.82474 20.0865 8.97664 20.1167 9.11836 20.1754C9.26009 20.2341 9.38886 20.3202 9.49733 20.4287L10.4167 21.3503L13.0907 18.674C13.199 18.5654 13.3278 18.4792 13.4695 18.4203C13.6113 18.3615 13.7632 18.3312 13.9167 18.3312C14.0701 18.3312 14.2221 18.3615 14.3638 18.4203C14.5056 18.4792 14.6343 18.5654 14.7427 18.674ZM14.7427 10.9927C14.8511 10.8842 14.9372 10.7554 14.9959 10.6137C15.0546 10.472 15.0848 10.3201 15.0848 10.1667C15.0848 10.0133 15.0546 9.86136 14.9959 9.71964C14.9372 9.57791 14.8511 9.44914 14.7427 9.34067C14.6342 9.23219 14.5054 9.14615 14.3637 9.08744C14.222 9.02874 14.0701 8.99853 13.9167 8.99853C13.7633 8.99853 13.6114 9.02874 13.4696 9.08744C13.3279 9.14615 13.1991 9.23219 13.0907 9.34067L10.4167 12.017L9.49733 11.0953C9.27826 10.8763 8.98114 10.7532 8.67133 10.7532C8.36152 10.7532 8.0644 10.8763 7.84533 11.0953C7.62627 11.3144 7.50319 11.6115 7.50319 11.9213C7.50319 12.2311 7.62626 12.5283 7.84533 12.7473L9.59067 14.4927C9.69904 14.6013 9.82778 14.6875 9.96952 14.7463C10.1113 14.8051 10.2632 14.8354 10.4167 14.8354C10.5701 14.8354 10.7221 14.8051 10.8638 14.7463C11.0056 14.6875 11.1343 14.6013 11.2427 14.4927L14.7427 10.9927Z" fill="#EBEBF0"/>
</svg>
