<svg width="26" height="19" viewBox="0 0 26 19" fill="none" xmlns="http://www.w3.org/2000/svg">
<path d="M4.84421 0.167969C3.77114 0.167969 2.74203 0.594241 1.98326 1.35301C1.22449 2.11178 0.798218 3.1409 0.798218 4.21396V14.1042C0.798218 15.1772 1.22449 16.2063 1.98326 16.9651C2.74203 17.7239 3.77114 18.1501 4.84421 18.1501H21.9273C23.0003 18.1501 24.0295 17.7239 24.7882 16.9651C25.547 16.2063 25.9733 15.1772 25.9733 14.1042V4.21396C25.9733 3.1409 25.547 2.11178 24.7882 1.35301C24.0295 0.594241 23.0003 0.167969 21.9273 0.167969H4.84421ZM2.59644 4.21396C2.59644 3.61781 2.83325 3.04608 3.25479 2.62454C3.67633 2.203 4.24806 1.96619 4.84421 1.96619H21.9273C22.5234 1.96619 23.0952 2.203 23.5167 2.62454C23.9382 3.04608 24.175 3.61781 24.175 4.21396V14.1042C24.175 14.3993 24.1169 14.6916 24.0039 14.9643C23.891 15.2371 23.7254 15.4848 23.5167 15.6936C23.308 15.9023 23.0602 16.0679 22.7875 16.1808C22.5147 16.2938 22.2225 16.3519 21.9273 16.3519H4.84421C4.54903 16.3519 4.25674 16.2938 3.98402 16.1808C3.71131 16.0679 3.46352 15.9023 3.25479 15.6936C3.04607 15.4848 2.8805 15.2371 2.76754 14.9643C2.65458 14.6916 2.59644 14.3993 2.59644 14.1042V4.21396ZM5.92943 6.72517C5.75986 6.56139 5.53274 6.47077 5.297 6.47281C5.06125 6.47486 4.83575 6.56942 4.66904 6.73612C4.50234 6.90282 4.40778 7.12833 4.40574 7.36408C4.40369 7.59982 4.49431 7.82694 4.65809 7.99651L5.82064 9.15906L4.65809 10.3216C4.57222 10.4045 4.50372 10.5038 4.4566 10.6135C4.40948 10.7231 4.38468 10.8411 4.38364 10.9605C4.3826 11.0799 4.40535 11.1983 4.45056 11.3088C4.49577 11.4193 4.56253 11.5197 4.64695 11.6041C4.73137 11.6885 4.83175 11.7553 4.94225 11.8005C5.05275 11.8457 5.17114 11.8684 5.29053 11.8674C5.40991 11.8664 5.52789 11.8416 5.63759 11.7944C5.74728 11.7473 5.84649 11.6788 5.92943 11.5929L7.09198 10.4304L8.25453 11.5929C8.4241 11.7567 8.65122 11.8474 8.88696 11.8453C9.12271 11.8433 9.34821 11.7487 9.51492 11.582C9.68162 11.4153 9.77618 11.1898 9.77822 10.954C9.78027 10.7183 9.68965 10.4912 9.52587 10.3216L8.36332 9.15906L9.52587 7.99651C9.68965 7.82694 9.78027 7.59982 9.77822 7.36408C9.77618 7.12833 9.68162 6.90282 9.51492 6.73612C9.34821 6.56942 9.12271 6.47486 8.88696 6.47281C8.65122 6.47077 8.4241 6.56139 8.25453 6.72517L7.09198 7.88772L5.92943 6.72517ZM11.4014 6.72517C11.57 6.55661 11.7987 6.46192 12.0371 6.46192C12.2755 6.46192 12.5041 6.55661 12.6727 6.72517L13.8353 7.88772L14.9978 6.72517C15.1674 6.56139 15.3945 6.47077 15.6303 6.47281C15.866 6.47486 16.0915 6.56942 16.2582 6.73612C16.4249 6.90282 16.5195 7.12833 16.5215 7.36408C16.5236 7.59982 16.433 7.82694 16.2692 7.99651L15.1066 9.15906L16.2692 10.3216C16.433 10.4912 16.5236 10.7183 16.5215 10.954C16.5195 11.1898 16.4249 11.4153 16.2582 11.582C16.0915 11.7487 15.866 11.8433 15.6303 11.8453C15.3945 11.8474 15.1674 11.7567 14.9978 11.5929L13.8353 10.4304L12.6727 11.5929C12.5032 11.7567 12.2761 11.8474 12.0403 11.8453C11.8046 11.8433 11.5791 11.7487 11.4124 11.582C11.2457 11.4153 11.1511 11.1898 11.1491 10.954C11.147 10.7183 11.2376 10.4912 11.4014 10.3216L12.564 9.15906L11.4014 7.99651C11.2329 7.8279 11.1382 7.59925 11.1382 7.36084C11.1382 7.12243 11.2329 6.89378 11.4014 6.72517ZM18.7804 10.0582C18.5419 10.0582 18.3132 10.1529 18.1446 10.3215C17.976 10.4901 17.8813 10.7188 17.8813 10.9573C17.8813 11.1957 17.976 11.4244 18.1446 11.593C18.3132 11.7617 18.5419 11.8564 18.7804 11.8564H21.4777C21.7162 11.8564 21.9449 11.7617 22.1135 11.593C22.2821 11.4244 22.3768 11.1957 22.3768 10.9573C22.3768 10.7188 22.2821 10.4901 22.1135 10.3215C21.9449 10.1529 21.7162 10.0582 21.4777 10.0582H18.7804Z" fill="#EEF2F5"/>
</svg>
