<svg width="25" height="25" viewBox="0 0 25 25" fill="none" xmlns="http://www.w3.org/2000/svg">
<path d="M10.1585 5.0585H14.8414C14.8414 4.4375 14.5948 3.84194 14.1556 3.40283C13.7165 2.96372 13.121 2.71704 12.5 2.71704C11.879 2.71704 11.2834 2.96372 10.8443 3.40283C10.4052 3.84194 10.1585 4.4375 10.1585 5.0585ZM8.40242 5.0585C8.40242 4.5204 8.50841 3.98757 8.71433 3.49043C8.92025 2.99329 9.22207 2.54158 9.60257 2.16109C9.98306 1.78059 10.4348 1.47877 10.9319 1.27285C11.4291 1.06692 11.9619 0.960938 12.5 0.960938C13.0381 0.960938 13.5709 1.06692 14.068 1.27285C14.5652 1.47877 15.0169 1.78059 15.3974 2.16109C15.7779 2.54158 16.0797 2.99329 16.2856 3.49043C16.4916 3.98757 16.5975 4.5204 16.5975 5.0585H23.3293C23.5621 5.0585 23.7855 5.15101 23.9501 5.31567C24.1148 5.48034 24.2073 5.70367 24.2073 5.93655C24.2073 6.16942 24.1148 6.39276 23.9501 6.55742C23.7855 6.72209 23.5621 6.8146 23.3293 6.8146H21.7839L20.4141 20.9933C20.3091 22.0797 19.8031 23.0881 18.9948 23.8216C18.1866 24.5552 17.1341 24.9613 16.0426 24.9609H8.95735C7.86607 24.9611 6.81385 24.5547 6.00587 23.8212C5.19789 23.0877 4.69206 22.0795 4.58701 20.9933L3.21608 6.8146H1.67071C1.43784 6.8146 1.2145 6.72209 1.04984 6.55742C0.885172 6.39276 0.792664 6.16942 0.792664 5.93655C0.792664 5.70367 0.885172 5.48034 1.04984 5.31567C1.2145 5.15101 1.43784 5.0585 1.67071 5.0585H8.40242ZM10.7439 10.6195C10.7439 10.3866 10.6514 10.1633 10.4867 9.9986C10.322 9.83393 10.0987 9.74142 9.86584 9.74142C9.63296 9.74142 9.40963 9.83393 9.24496 9.9986C9.08029 10.1633 8.98779 10.3866 8.98779 10.6195V19.4C8.98779 19.6328 9.08029 19.8562 9.24496 20.0208C9.40963 20.1855 9.63296 20.278 9.86584 20.278C10.0987 20.278 10.322 20.1855 10.4867 20.0208C10.6514 19.8562 10.7439 19.6328 10.7439 19.4V10.6195ZM15.1341 9.74142C15.367 9.74142 15.5903 9.83393 15.755 9.9986C15.9197 10.1633 16.0122 10.3866 16.0122 10.6195V19.4C16.0122 19.6328 15.9197 19.8562 15.755 20.0208C15.5903 20.1855 15.367 20.278 15.1341 20.278C14.9013 20.278 14.6779 20.1855 14.5133 20.0208C14.3486 19.8562 14.2561 19.6328 14.2561 19.4V10.6195C14.2561 10.3866 14.3486 10.1633 14.5133 9.9986C14.6779 9.83393 14.9013 9.74142 15.1341 9.74142ZM6.33491 20.8247C6.39805 21.4764 6.70163 22.0812 7.18646 22.5213C7.67129 22.9613 8.30261 23.205 8.95735 23.2048H16.0426C16.6974 23.205 17.3287 22.9613 17.8135 22.5213C18.2983 22.0812 18.6019 21.4764 18.6651 20.8247L20.0208 6.8146H4.9792L6.33491 20.8247Z" fill="#F87168"/>
</svg>
