<svg width="45" height="45" viewBox="0 0 45 45" fill="none" xmlns="http://www.w3.org/2000/svg">
<rect x="0.30011" y="0.921875" width="44.0225" height="44.0225" rx="22.0112" fill="#4BCE97"/>
<path d="M22.3114 13.0527C22.5129 13.0527 22.7062 13.1328 22.8488 13.2753C22.9913 13.4179 23.0714 13.6112 23.0714 13.8128V15.0795H27.3782C27.5798 15.0795 27.7731 15.1596 27.9157 15.3021C28.0582 15.4446 28.1383 15.6379 28.1383 15.8395C28.1383 16.0411 28.0582 16.2344 27.9157 16.3769C27.7731 16.5195 27.5798 16.5995 27.3782 16.5995H23.0714V22.1731H24.8448C25.987 22.1731 27.0825 22.6269 27.8902 23.4346C28.6979 24.2423 29.1516 25.3377 29.1516 26.48C29.1516 27.6222 28.6979 28.7177 27.8902 29.5254C27.0825 30.3331 25.987 30.7868 24.8448 30.7868H23.0714V32.0535C23.0714 32.2551 22.9913 32.4484 22.8488 32.591C22.7062 32.7335 22.5129 32.8136 22.3114 32.8136C22.1098 32.8136 21.9165 32.7335 21.7739 32.591C21.6314 32.4484 21.5513 32.2551 21.5513 32.0535V30.7868H16.2311C16.0295 30.7868 15.8362 30.7067 15.6937 30.5642C15.5511 30.4217 15.4711 30.2283 15.4711 30.0268C15.4711 29.8252 15.5511 29.6319 15.6937 29.4894C15.8362 29.3468 16.0295 29.2667 16.2311 29.2667H21.5513V23.6932H19.7779C18.6357 23.6932 17.5402 23.2394 16.7325 22.4317C15.9248 21.624 15.4711 20.5286 15.4711 19.3863C15.4711 18.2441 15.9248 17.1486 16.7325 16.3409C17.5402 15.5332 18.6357 15.0795 19.7779 15.0795H21.5513V13.8128C21.5513 13.6112 21.6314 13.4179 21.7739 13.2753C21.9165 13.1328 22.1098 13.0527 22.3114 13.0527ZM21.5513 16.5995H19.7779C19.0388 16.5995 18.33 16.8932 17.8074 17.4158C17.2847 17.9384 16.9911 18.6472 16.9911 19.3863C16.9911 20.1254 17.2847 20.8343 17.8074 21.3569C18.33 21.8795 19.0388 22.1731 19.7779 22.1731H21.5513V16.5995ZM23.0714 23.6932V29.2667H24.8448C25.5839 29.2667 26.2927 28.9731 26.8153 28.4505C27.338 27.9279 27.6316 27.2191 27.6316 26.48C27.6316 25.7409 27.338 25.032 26.8153 24.5094C26.2927 23.9868 25.5839 23.6932 24.8448 23.6932H23.0714Z" fill="white" stroke="white" stroke-width="0.5"/>
</svg>
