<svg width="227" height="209" viewBox="0 0 227 209" fill="none" xmlns="http://www.w3.org/2000/svg">
<path d="M205.491 117.96V173.788C205.491 193.054 192.752 208.673 177.038 208.673H164.205H134.059H40.7522C25.0383 208.673 12.3022 193.054 12.3022 173.788V99.3275C12.3022 80.0615 25.0383 64.4464 40.7522 64.4464H146.957C146.957 64.4464 188.517 60.1482 196.62 71.8155C210.266 91.466 205.494 117.963 205.494 117.963L205.491 117.96Z" fill="url(#paint0_linear_1499_20068)"/>
<path d="M109.302 41.8184C118.73 41.8184 127.772 45.5635 134.438 52.2298C141.104 58.8962 144.849 67.9377 144.849 77.3653C144.849 86.793 141.104 95.8345 134.438 102.501C127.772 109.167 118.73 112.912 109.302 112.912C99.8748 112.912 90.8333 109.167 84.1669 102.501C77.5006 95.8345 73.7555 86.793 73.7555 77.3653C73.7555 67.9377 77.5006 58.8962 84.1669 52.2298C90.8333 45.5635 99.8748 41.8184 109.302 41.8184ZM109.302 184.006C109.302 184.006 180.396 184.006 180.396 166.233C180.396 144.905 145.738 121.799 109.302 121.799C72.8668 121.799 38.2085 144.905 38.2085 166.233C38.2085 184.006 109.302 184.006 109.302 184.006Z" fill="#003149" fill-opacity="0.3"/>
<path d="M109.302 41.8184C118.73 41.8184 127.772 45.5635 134.438 52.2298C141.104 58.8962 144.849 67.9377 144.849 77.3653C144.849 86.793 141.104 95.8345 134.438 102.501C127.772 109.167 118.73 112.912 109.302 112.912C99.8748 112.912 90.8333 109.167 84.1669 102.501C77.5006 95.8345 73.7555 86.793 73.7555 77.3653C73.7555 67.9377 77.5006 58.8962 84.1669 52.2298C90.8333 45.5635 99.8748 41.8184 109.302 41.8184ZM109.302 184.006C109.302 184.006 180.396 184.006 180.396 166.233C180.396 144.905 145.738 121.799 109.302 121.799C72.8668 121.799 38.2085 144.905 38.2085 166.233C38.2085 184.006 109.302 184.006 109.302 184.006Z" fill="black" fill-opacity="0.2"/>
<path d="M109.302 41.8184C118.73 41.8184 127.772 45.5635 134.438 52.2298C141.104 58.8962 144.849 67.9377 144.849 77.3653C144.849 86.793 141.104 95.8345 134.438 102.501C127.772 109.167 118.73 112.912 109.302 112.912C99.8748 112.912 90.8333 109.167 84.1669 102.501C77.5006 95.8345 73.7555 86.793 73.7555 77.3653C73.7555 67.9377 77.5006 58.8962 84.1669 52.2298C90.8333 45.5635 99.8748 41.8184 109.302 41.8184ZM109.302 184.006C109.302 184.006 180.396 184.006 180.396 166.233C180.396 144.905 145.738 121.799 109.302 121.799C72.8668 121.799 38.2085 144.905 38.2085 166.233C38.2085 184.006 109.302 184.006 109.302 184.006Z" fill="url(#paint1_linear_1499_20068)"/>
<g opacity="0.6">
<path d="M82.3646 42.2401H38.2465C37.7983 42.2401 37.4365 41.8783 37.4365 41.4301C37.4365 40.9819 37.7983 40.6201 38.2465 40.6201H82.3646C82.8128 40.6201 83.1746 40.9819 83.1746 41.4301C83.1746 41.8783 82.8128 42.2401 82.3646 42.2401ZM108.382 42.2401H91.0775C90.6293 42.2401 90.2675 41.8783 90.2675 41.4301C90.2675 40.9819 90.6293 40.6201 91.0775 40.6201H108.382C108.83 40.6201 109.192 40.9819 109.192 41.4301C109.192 41.8783 108.83 42.2401 108.382 42.2401ZM170.957 130.079H38.2465C37.7983 130.079 37.4365 129.718 37.4365 129.269C37.4365 128.821 37.7983 128.459 38.2465 128.459H170.957C171.405 128.459 171.767 128.821 171.767 129.269C171.767 129.718 171.405 130.079 170.957 130.079Z" fill="#73B4F7"/>
</g>
<path d="M125.379 9.71051C127.825 9.71051 129.807 7.72802 129.807 5.2825C129.807 2.83698 127.825 0.854492 125.379 0.854492C122.934 0.854492 120.951 2.83698 120.951 5.2825C120.951 7.72802 122.934 9.71051 125.379 9.71051Z" fill="url(#paint2_linear_1499_20068)"/>
<path d="M94.6532 16.0281C96.1026 16.0281 97.2776 14.8531 97.2776 13.4037C97.2776 11.9543 96.1026 10.7793 94.6532 10.7793C93.2038 10.7793 92.0288 11.9543 92.0288 13.4037C92.0288 14.8531 93.2038 16.0281 94.6532 16.0281Z" fill="url(#paint3_linear_1499_20068)"/>
<path d="M190.987 170.506C195.896 170.506 199.875 166.527 199.875 161.618C199.875 156.709 195.896 152.729 190.987 152.729C186.078 152.729 182.098 156.709 182.098 161.618C182.098 166.527 186.078 170.506 190.987 170.506Z" fill="url(#paint4_linear_1499_20068)"/>
<path d="M113.661 181.882C115.534 181.882 117.052 180.364 117.052 178.491C117.052 176.618 115.534 175.1 113.661 175.1C111.788 175.1 110.27 176.618 110.27 178.491C110.27 180.364 111.788 181.882 113.661 181.882Z" fill="url(#paint5_linear_1499_20068)"/>
<path d="M4.27533 41.4296C6.40919 41.4296 8.13903 39.6997 8.13903 37.5659C8.13903 35.432 6.40919 33.7021 4.27533 33.7021C2.14146 33.7021 0.411621 35.432 0.411621 37.5659C0.411621 39.6997 2.14146 41.4296 4.27533 41.4296Z" fill="url(#paint6_linear_1499_20068)"/>
<path d="M216.903 87.7374C219.731 87.7374 222.023 85.4455 222.023 82.6182C222.023 79.791 219.731 77.499 216.903 77.499C214.076 77.499 211.784 79.791 211.784 82.6182C211.784 85.4455 214.076 87.7374 216.903 87.7374Z" fill="url(#paint7_linear_1499_20068)"/>
<path d="M214.133 152.73C221.012 152.73 226.588 147.153 226.588 140.274C226.588 133.396 221.012 127.819 214.133 127.819C207.255 127.819 201.678 133.396 201.678 140.274C201.678 147.153 207.255 152.73 214.133 152.73Z" fill="url(#paint8_linear_1499_20068)"/>
<defs>
<linearGradient id="paint0_linear_1499_20068" x1="108.362" y1="144.177" x2="127.935" y2="226.494" gradientUnits="userSpaceOnUse">
<stop stop-color="#93C8FF" stop-opacity="0.3"/>
<stop offset="1" stop-color="#93C8FF" stop-opacity="0.7"/>
</linearGradient>
<linearGradient id="paint1_linear_1499_20068" x1="65.1886" y1="163.303" x2="98.9952" y2="107.647" gradientUnits="userSpaceOnUse">
<stop stop-color="#73B4F7" stop-opacity="0.5"/>
<stop offset="1" stop-color="#73B4F7" stop-opacity="0.8"/>
</linearGradient>
<linearGradient id="paint2_linear_1499_20068" x1="123.025" y1="-3.26571" x2="186.996" y2="228.91" gradientUnits="userSpaceOnUse">
<stop stop-color="#93C8FF" stop-opacity="0.3"/>
<stop offset="1" stop-color="#93C8FF" stop-opacity="0.7"/>
</linearGradient>
<linearGradient id="paint3_linear_1499_20068" x1="92.3879" y1="5.17409" x2="156.359" y2="237.353" gradientUnits="userSpaceOnUse">
<stop stop-color="#93C8FF" stop-opacity="0.3"/>
<stop offset="1" stop-color="#93C8FF" stop-opacity="0.7"/>
</linearGradient>
<linearGradient id="paint4_linear_1499_20068" x1="143.963" y1="-9.03575" x2="207.937" y2="223.143" gradientUnits="userSpaceOnUse">
<stop stop-color="#73B4F7" stop-opacity="0.3"/>
<stop offset="1" stop-color="#73B4F7" stop-opacity="0.7"/>
</linearGradient>
<linearGradient id="paint5_linear_1499_20068" x1="67.7769" y1="11.9573" x2="131.748" y2="244.133" gradientUnits="userSpaceOnUse">
<stop stop-color="#73B4F7" stop-opacity="0.3"/>
<stop offset="1" stop-color="#73B4F7" stop-opacity="0.7"/>
</linearGradient>
<linearGradient id="paint6_linear_1499_20068" x1="2.19632" y1="30.0247" x2="66.1702" y2="262.203" gradientUnits="userSpaceOnUse">
<stop stop-color="#73B4F7" stop-opacity="0.3"/>
<stop offset="1" stop-color="#73B4F7" stop-opacity="0.7"/>
</linearGradient>
<linearGradient id="paint7_linear_1499_20068" x1="188.286" y1="-21.2483" x2="252.257" y2="210.928" gradientUnits="userSpaceOnUse">
<stop stop-color="#73B4F7" stop-opacity="0.3"/>
<stop offset="1" stop-color="#73B4F7" stop-opacity="0.7"/>
</linearGradient>
<linearGradient id="paint8_linear_1499_20068" x1="214.133" y1="118.013" x2="214.133" y2="151.101" gradientUnits="userSpaceOnUse">
<stop stop-color="#73B4F7" stop-opacity="0.1"/>
<stop offset="1" stop-color="#73B4F7" stop-opacity="0.25"/>
</linearGradient>
</defs>
</svg>
