<svg width="229" height="229" viewBox="0 0 229 229" fill="none" xmlns="http://www.w3.org/2000/svg">
<g opacity="0.5">
<path d="M70.9381 36.2424C70.9381 44.8809 66.3038 51.8826 60.5828 51.8826C54.8618 51.8826 50.2275 44.8787 50.2275 36.2424C50.2275 27.6062 54.8641 20.5977 60.5828 20.5977C66.3015 20.5977 70.9381 27.6016 70.9381 36.2424Z" fill="#73B4F7"/>
</g>
<path d="M60.5824 52.3388C54.6217 52.3388 49.7705 45.1179 49.7705 36.242C49.7705 27.366 54.6194 20.1406 60.5824 20.1406C66.5453 20.1406 71.3942 27.3637 71.3942 36.242C71.3942 45.1202 66.5453 52.3388 60.5824 52.3388ZM60.5824 21.0538C55.1239 21.0538 50.6837 27.866 50.6837 36.242C50.6837 44.618 55.1239 51.4256 60.5824 51.4256C66.0408 51.4256 70.481 44.6134 70.481 36.242C70.481 27.8705 66.0408 21.0538 60.5824 21.0538Z" fill="#73B4F7"/>
<g opacity="0.25">
<path d="M194.09 36.2424C194.09 44.8809 189.456 51.8826 183.735 51.8826H60.5811C66.302 51.8826 70.9363 44.8787 70.9363 36.2424C70.9363 27.6062 66.302 20.5977 60.5811 20.5977H183.735C189.456 20.5977 194.09 27.6016 194.09 36.2424Z" fill="#73B4F7"/>
</g>
<path d="M183.736 52.3388H60.582V51.4256C66.0405 51.4256 70.4807 44.6134 70.4807 36.242C70.4807 27.8705 66.0405 21.0538 60.582 21.0538V20.1406H183.736C189.696 20.1406 194.548 27.3637 194.548 36.242C194.548 45.1202 189.699 52.3388 183.736 52.3388ZM64.173 51.4256H183.736C189.194 51.4256 193.634 44.6134 193.634 36.242C193.634 27.8705 189.194 21.0538 183.736 21.0538H64.173C68.3736 23.2636 71.3916 29.238 71.3916 36.242C71.3916 43.2459 68.3736 49.218 64.173 51.4256Z" fill="#73B4F7"/>
<g opacity="0.5">
<path d="M185.205 51.8818V158.85L155.833 178.586C153.08 180.435 149.48 180.435 146.724 178.586L111.862 155.163C106.433 151.517 99.1394 155.407 99.1394 161.945V191.559C99.1394 200.686 93.9663 202.862 85.7866 206.919L82.7047 208.446C70.0483 205.654 60.5811 194.367 60.5811 180.873V165.157C61.0879 165.157 61.5969 165.148 62.0923 165.125C62.2384 165.121 62.3845 165.112 62.5329 165.103C62.679 165.094 62.8274 165.084 62.9735 165.075C63.1219 165.066 63.2703 165.052 63.4187 165.041C64.0671 164.989 64.7131 164.92 65.3523 164.833C66.6079 164.662 67.8407 164.427 69.0529 164.126C69.5072 164.011 69.957 163.89 70.4044 163.76C73.7603 162.785 76.8993 161.318 79.7598 159.436C80.0543 159.245 80.3442 159.046 80.6318 158.843C80.956 158.621 81.2756 158.389 81.5907 158.153C81.7915 158.003 81.9879 157.852 82.1842 157.699C82.5723 157.393 82.9581 157.078 83.3325 156.756C83.7115 156.434 84.0813 156.103 84.4443 155.766C84.5858 155.635 84.7251 155.501 84.8643 155.368C85.0059 155.234 85.1429 155.097 85.2775 154.962C86.0994 154.147 86.8779 153.291 87.6107 152.394C87.7796 152.193 87.944 151.987 88.1061 151.78C90.0808 149.271 91.7199 146.486 92.9527 143.493C93.1718 142.965 93.3773 142.431 93.5668 141.89C93.6946 141.529 93.8179 141.166 93.9343 140.801C93.9937 140.618 94.0508 140.434 94.1056 140.251C94.327 139.514 94.5256 138.767 94.6991 138.009C94.916 137.064 95.094 136.103 95.2333 135.13C95.4662 133.507 95.5872 131.848 95.5872 130.165C95.5872 128.483 95.4662 126.83 95.2333 125.213C94.9046 122.869 94.3384 120.602 93.5691 118.438C93.4252 118.038 93.2769 117.641 93.1193 117.248C93.0828 117.15 93.0417 117.05 93.0006 116.952C92.9276 116.769 92.8522 116.589 92.7723 116.408C92.6787 116.187 92.5806 115.963 92.4801 115.744C92.261 115.26 92.0304 114.781 91.7884 114.31C91.7016 114.139 91.6126 113.972 91.5236 113.801C91.4323 113.628 91.341 113.459 91.2451 113.287C91.2017 113.198 91.1515 113.112 91.1012 113.027C90.7177 112.345 90.3114 111.676 89.8822 111.025C89.7794 110.861 89.6676 110.696 89.5557 110.537C89.2932 110.146 89.0192 109.763 88.7407 109.386C88.7225 109.359 88.7042 109.333 88.6836 109.308C88.5398 109.117 88.3983 108.925 88.2476 108.735C88.2339 108.71 88.2134 108.683 88.1883 108.658C88.0353 108.457 87.8778 108.258 87.7134 108.062C87.702 108.041 87.686 108.025 87.67 108.007C87.5605 107.872 87.4509 107.738 87.3367 107.608C87.25 107.505 87.1632 107.4 87.0742 107.299C86.9167 107.115 86.7523 106.932 86.5902 106.752C86.4053 106.546 86.2204 106.345 86.0263 106.144C86.0172 106.133 86.0035 106.117 85.9898 106.105C85.8072 105.911 85.6223 105.717 85.4282 105.528C85.2342 105.327 85.0333 105.131 84.8278 104.934C84.6497 104.763 84.4717 104.594 84.2891 104.428C84.248 104.389 84.2046 104.348 84.1635 104.311C83.9786 104.142 83.7937 103.976 83.6019 103.813C83.3576 103.599 83.1111 103.387 82.8577 103.181C82.6887 103.04 82.5221 102.905 82.3509 102.77C82.2847 102.713 82.2162 102.661 82.1477 102.61C81.9993 102.492 81.8486 102.375 81.698 102.266C81.6272 102.209 81.5541 102.154 81.4834 102.106C81.3532 102.005 81.2185 101.905 81.0861 101.814C81.0062 101.752 80.9286 101.695 80.8487 101.64C80.6455 101.494 80.4446 101.35 80.2392 101.213C80.004 101.053 79.7689 100.898 79.5338 100.743C74.4748 97.4738 68.5005 95.4762 62.0923 95.2091C61.5969 95.184 61.0879 95.1749 60.5833 95.1749H60.5811V51.8887H185.205V51.8818Z" fill="#73B4F7"/>
</g>
<path d="M82.7636 208.928L82.6061 208.894C76.3281 207.508 70.6231 203.981 66.5413 198.963C62.4024 193.872 60.124 187.448 60.124 180.875V164.703H60.5806C61.0965 164.703 61.5988 164.692 62.0713 164.671C62.1672 164.669 62.2585 164.662 62.3499 164.658L62.9411 164.623C63.0872 164.614 63.2333 164.601 63.3795 164.589C64.0209 164.539 64.6624 164.47 65.2902 164.384C66.5184 164.217 67.7467 163.982 68.9429 163.685C69.4086 163.569 69.8446 163.45 70.2761 163.324C73.5407 162.375 76.6454 160.939 79.5082 159.058C79.8095 158.861 80.0972 158.665 80.3666 158.473C80.6702 158.266 80.9784 158.044 81.314 157.791C81.5103 157.642 81.7044 157.494 81.8984 157.343C82.323 157.008 82.6951 156.704 83.0307 156.414C83.3914 156.106 83.7612 155.777 84.1288 155.435C84.2681 155.305 84.4073 155.174 84.542 155.042C84.679 154.91 84.816 154.777 84.9461 154.643C85.7542 153.841 86.5281 152.99 87.2518 152.106C87.4208 151.905 87.5828 151.702 87.7426 151.499C89.7082 149.004 91.3177 146.251 92.5276 143.319C92.7445 142.797 92.9477 142.267 93.1349 141.74C93.2718 141.356 93.3906 141.004 93.4979 140.664C93.5572 140.482 93.612 140.301 93.6668 140.121C93.8859 139.39 94.0846 138.646 94.2512 137.907C94.4635 136.977 94.6416 136.021 94.7786 135.064C95.0091 133.448 95.1279 131.797 95.1279 130.163C95.1279 128.528 95.0114 126.885 94.7786 125.277C94.4612 123.011 93.9088 120.76 93.1349 118.589C92.9774 118.146 92.8312 117.762 92.692 117.415C92.6532 117.312 92.6166 117.219 92.5778 117.128C92.5025 116.943 92.4295 116.765 92.3518 116.589C92.256 116.365 92.1601 116.146 92.0619 115.929C91.8359 115.434 91.6076 114.956 91.3816 114.516C91.3154 114.386 91.2492 114.26 91.183 114.132L91.1191 114.011C91.03 113.845 90.941 113.678 90.8474 113.511L90.836 113.491C90.7972 113.411 90.7515 113.333 90.7081 113.258C90.3269 112.578 89.9205 111.913 89.5005 111.274C89.3955 111.105 89.2882 110.948 89.1809 110.795C88.948 110.445 88.6855 110.076 88.375 109.656L88.3567 109.628C88.3476 109.614 88.3385 109.605 88.3293 109.594C88.1787 109.391 88.0371 109.206 87.891 109.019L87.8271 108.936C87.6627 108.722 87.5121 108.532 87.366 108.357L87.3157 108.295C87.2107 108.165 87.1034 108.035 86.9939 107.909C86.9003 107.797 86.8181 107.699 86.7336 107.603C86.5738 107.416 86.414 107.238 86.2542 107.06C86.0716 106.859 85.8912 106.66 85.7017 106.464L85.6606 106.421C85.4575 106.204 85.2817 106.023 85.1127 105.857C84.9141 105.654 84.7178 105.46 84.5192 105.27C84.3388 105.099 84.1676 104.932 83.9895 104.772C83.9439 104.729 83.9074 104.695 83.8685 104.661C83.6814 104.492 83.4987 104.325 83.3115 104.165C83.0262 103.914 82.7956 103.718 82.5764 103.54C82.4075 103.398 82.2431 103.266 82.0765 103.136C82.0148 103.083 81.9669 103.047 81.9189 103.01L81.8733 102.976C81.7249 102.857 81.5788 102.745 81.4327 102.638C81.3573 102.579 81.2934 102.531 81.2295 102.485L81.209 102.471C81.0857 102.375 80.9578 102.282 80.8323 102.195L80.8095 102.179C80.7387 102.124 80.6656 102.072 80.5949 102.024C80.3871 101.875 80.1885 101.734 79.9876 101.599C79.7547 101.439 79.5219 101.286 79.289 101.136C74.1548 97.8187 68.2009 95.9284 62.0759 95.675C61.6193 95.6522 61.1194 95.6408 60.5852 95.6408H60.1286V95.1842L60.1263 51.4414H185.663V159.108L156.091 178.978C153.171 180.939 149.395 180.939 146.473 178.978L111.61 155.556C109.204 153.939 106.241 153.789 103.684 155.152C101.127 156.515 99.6001 159.06 99.6001 161.959V191.573C99.6001 200.618 94.5731 203.102 86.9619 206.864L82.7682 208.939L82.7636 208.928ZM61.0372 165.612V180.873C61.0372 193.756 70.1163 205.124 82.6472 207.967L86.5532 206.033C94.1165 202.296 98.6823 200.038 98.6823 191.562V161.948C98.6823 158.704 100.39 155.859 103.25 154.334C106.111 152.809 109.423 152.978 112.115 154.786L146.977 178.209C149.591 179.962 152.968 179.962 155.577 178.209L184.746 158.608V52.3386H61.0395V94.7162C61.4207 94.7208 61.7814 94.7322 62.117 94.7482C68.4018 95.0107 74.5132 96.9489 79.7844 100.355C80.0241 100.51 80.2638 100.668 80.5013 100.83C80.7067 100.969 80.9145 101.115 81.1199 101.264C81.1953 101.314 81.2774 101.373 81.3596 101.439C81.492 101.531 81.6267 101.629 81.7569 101.732C81.8322 101.784 81.9098 101.843 81.9852 101.903C82.129 102.008 82.2842 102.127 82.4372 102.25L82.4737 102.277C82.533 102.323 82.5924 102.369 82.6495 102.419C82.8093 102.542 82.9805 102.681 83.1517 102.825C83.3732 103.005 83.6129 103.211 83.9028 103.464C84.0923 103.626 84.2795 103.798 84.469 103.969C84.51 104.005 84.5557 104.049 84.6014 104.092C84.7771 104.252 84.9575 104.423 85.1356 104.594C85.3479 104.795 85.5533 104.998 85.7519 105.204C85.9209 105.371 86.0989 105.553 86.3067 105.775C86.3295 105.797 86.3501 105.818 86.3661 105.836C86.5578 106.035 86.7427 106.236 86.9254 106.441C87.092 106.624 87.2564 106.811 87.4185 106.998C87.5029 107.094 87.5897 107.199 87.6764 107.304C87.7906 107.434 87.9002 107.569 88.0097 107.704C88.0349 107.731 88.0577 107.756 88.0759 107.786C88.2221 107.962 88.3727 108.149 88.5325 108.359C88.5645 108.393 88.5919 108.43 88.617 108.468C88.7654 108.656 88.9069 108.843 89.0462 109.032C89.0644 109.055 89.0896 109.087 89.1124 109.121C89.4274 109.548 89.6968 109.927 89.932 110.279C90.0438 110.439 90.158 110.608 90.2653 110.779C90.6922 111.425 91.1077 112.11 91.4957 112.799C91.5437 112.881 91.5962 112.973 91.6441 113.066C91.74 113.237 91.8313 113.409 91.9249 113.582L91.9889 113.705C92.0573 113.836 92.1258 113.966 92.192 114.098C92.4249 114.55 92.66 115.041 92.8929 115.55C92.9933 115.774 93.0938 116 93.1897 116.226C93.2673 116.404 93.3426 116.589 93.4202 116.776C93.4613 116.874 93.5047 116.979 93.5435 117.084C93.6828 117.431 93.8334 117.826 93.9955 118.28C94.7877 120.511 95.3561 122.821 95.6826 125.147C95.92 126.798 96.041 128.485 96.041 130.163C96.041 131.841 95.92 133.535 95.6826 135.194C95.5433 136.176 95.3607 137.158 95.1415 138.112C94.968 138.87 94.7672 139.635 94.5411 140.383C94.4864 140.568 94.4293 140.758 94.3676 140.943C94.2581 141.29 94.1348 141.653 93.9955 142.043C93.806 142.584 93.596 143.132 93.3723 143.669C92.1304 146.677 90.4798 149.501 88.4618 152.063C88.2951 152.273 88.1285 152.485 87.9572 152.688C87.2176 153.592 86.4208 154.467 85.5944 155.286C85.462 155.421 85.3205 155.56 85.1789 155.697C85.0374 155.832 84.8959 155.969 84.752 156.101C84.3754 156.453 83.9964 156.791 83.6266 157.106C83.2841 157.403 82.9029 157.715 82.4646 158.06C82.2659 158.215 82.0651 158.368 81.8642 158.521C81.5149 158.781 81.1975 159.01 80.8894 159.222C80.6177 159.414 80.3186 159.617 80.0104 159.82C77.0723 161.752 73.8854 163.226 70.5341 164.201C70.0935 164.331 69.646 164.452 69.1666 164.571C67.9384 164.877 66.676 165.119 65.4158 165.29C64.7697 165.377 64.1123 165.448 63.4571 165.5C63.3087 165.511 63.158 165.525 63.0073 165.534C62.932 165.539 62.8521 165.543 62.7745 165.548L62.4069 165.569C62.3088 165.573 62.2106 165.58 62.1147 165.582C61.7723 165.598 61.4139 165.607 61.044 165.612H61.0372Z" fill="#73B4F7"/>
<g opacity="0.25">
<path d="M203.417 161.946V191.375C203.417 201.169 195.475 209.111 185.681 209.111H88.8174C86.7171 209.111 84.6716 208.88 82.7061 208.447L85.7857 206.919C93.9654 202.865 99.1384 200.687 99.1384 191.56V161.946C99.1384 155.408 106.435 151.52 111.863 155.163L146.723 178.586C149.479 180.435 153.079 180.435 155.832 178.586L185.204 158.853L190.692 155.166C196.119 151.522 203.417 155.41 203.417 161.948V161.946Z" fill="#73B4F7"/>
</g>
<path d="M185.684 209.567H88.8199C86.7288 209.567 84.6399 209.339 82.6104 208.891L81.3457 208.613L86.5462 206.035C94.1163 202.296 98.6844 200.041 98.6844 191.56V161.946C98.6844 158.704 100.392 155.859 103.252 154.334C106.113 152.81 109.428 152.978 112.119 154.784L146.979 178.207C149.593 179.96 152.967 179.96 155.579 178.207L190.439 154.784C193.131 152.976 196.445 152.807 199.306 154.334C202.166 155.859 203.874 158.704 203.874 161.946V191.377C203.874 201.408 195.713 209.569 185.681 209.569L185.684 209.567ZM84.1172 208.257C85.665 208.522 87.2425 208.654 88.8199 208.654H185.684C195.21 208.654 202.963 200.904 202.963 191.375V161.943C202.963 159.044 201.436 156.501 198.879 155.138C196.322 153.775 193.357 153.926 190.95 155.54L156.09 178.962C153.171 180.924 149.395 180.924 146.472 178.962L111.612 155.54C109.206 153.924 106.241 153.773 103.684 155.138C101.127 156.501 99.5998 159.046 99.5998 161.943V191.557C99.5998 200.604 94.5683 203.091 86.9525 206.853L84.1217 208.254L84.1172 208.257Z" fill="#73B4F7"/>
<path d="M185.205 117.037C185.025 117.037 184.856 116.932 184.783 116.753C181.536 108.921 170.314 108.766 165.638 109.062C165.052 109.099 164.488 108.843 164.127 108.377C163.766 107.912 163.664 107.298 163.848 106.738C165.275 102.435 168.341 91.8241 165.983 86.2059C163.611 80.5579 154.982 77.6655 151.381 76.6838C150.911 76.556 150.512 76.2341 150.283 75.8026C150.055 75.3689 150.019 74.853 150.181 74.3895C151.025 71.9879 152.365 67.3559 151.849 63.3197C151.146 57.8384 144.302 52.291 144.231 52.2362C144.035 52.0787 144.003 51.791 144.161 51.5947C144.318 51.3984 144.606 51.3664 144.802 51.5239C145.097 51.7591 152.005 57.3613 152.754 63.2056C153.295 67.4289 151.913 72.2162 151.041 74.6932C150.961 74.9214 150.977 75.1657 151.089 75.378C151.201 75.5903 151.388 75.741 151.619 75.8026C155.347 76.8185 164.294 79.8343 166.821 85.852C169.3 91.7556 166.172 102.627 164.711 107.026C164.62 107.302 164.668 107.59 164.846 107.82C165.022 108.049 165.287 108.167 165.577 108.151C170.448 107.843 182.151 108.026 185.623 116.404C185.719 116.637 185.609 116.904 185.376 117C185.319 117.023 185.26 117.034 185.203 117.034L185.205 117.037ZM185.205 91.872C185.066 91.872 184.929 91.8081 184.84 91.6894C183.481 89.8813 181.103 88.7285 179.804 88.2011C179.016 87.8815 178.564 87.0483 178.731 86.2173C179.327 83.2312 180.434 75.7775 177.854 71.0725C175.5 66.7783 171.156 65.0091 168.777 64.3356C167.88 64.0822 167.334 63.169 167.538 62.2559C167.882 60.6989 168.403 57.8384 168.017 56.1696C167.471 53.8046 165.73 52.2385 165.711 52.2225C165.522 52.0558 165.506 51.7659 165.672 51.5787C165.839 51.3915 166.127 51.371 166.316 51.5376C166.396 51.6084 168.293 53.3046 168.907 55.9642C169.311 57.7152 168.871 60.4592 168.428 62.4545C168.33 62.8951 168.592 63.3357 169.024 63.4567C171.54 64.1689 176.137 66.0478 178.653 70.6341C181.379 75.604 180.24 83.3134 179.626 86.3976C179.546 86.7971 179.765 87.2012 180.146 87.3564C181.532 87.918 184.08 89.1577 185.57 91.1415C185.721 91.3424 185.68 91.63 185.479 91.7807C185.397 91.8424 185.301 91.872 185.205 91.872Z" fill="#73B4F7"/>
<path d="M150.757 76.1588C150.613 76.1588 150.469 76.0903 150.38 75.9624C150.236 75.7547 150.289 75.4716 150.496 75.3278L184.946 51.5079C185.153 51.3641 185.436 51.4166 185.58 51.6243C185.724 51.8321 185.671 52.1152 185.464 52.259L151.015 76.0789C150.935 76.1336 150.846 76.1588 150.754 76.1588H150.757ZM164.863 108.887C164.776 108.887 164.689 108.861 164.614 108.811C164.404 108.672 164.345 108.391 164.482 108.179L184.825 77.1153C184.964 76.9053 185.245 76.8459 185.457 76.9829C185.667 77.1221 185.726 77.4029 185.589 77.6153L165.246 108.679C165.16 108.813 165.013 108.884 164.865 108.884L164.863 108.887Z" fill="#73B4F7"/>
<path d="M65.1051 196.659C64.9156 196.659 64.7398 196.541 64.6736 196.353C64.5914 196.116 64.717 195.856 64.9544 195.771C74.2573 192.534 74.5792 182.348 74.4559 179.305C74.4422 178.939 74.6134 178.602 74.917 178.401C75.2207 178.2 75.5996 178.172 75.9306 178.328C77.604 179.115 81.1425 180.216 86.0553 178.757C92.7808 176.757 98.6684 164.984 98.7278 164.865C98.8396 164.639 99.1136 164.548 99.3396 164.658C99.5656 164.769 99.6592 165.043 99.5473 165.269C99.3008 165.769 93.4246 177.517 86.3156 179.631C81.1106 181.179 77.3301 179.996 75.5403 179.154C75.4878 179.129 75.4444 179.145 75.4193 179.163C75.3942 179.181 75.3622 179.213 75.3645 179.27C75.4946 182.473 75.1476 193.194 65.2512 196.637C65.201 196.655 65.1507 196.662 65.1005 196.662L65.1051 196.659ZM74.4262 205.627C74.2207 205.627 74.0358 205.49 73.9833 205.282C73.9217 205.038 74.0701 204.789 74.3143 204.727C82.3753 202.7 82.4689 194.582 82.3068 192.144C82.2885 191.858 82.4141 191.591 82.6447 191.427C82.8752 191.263 83.1697 191.231 83.43 191.34C84.681 191.868 87.9775 192.97 91.596 191.829C96.1161 190.402 98.6844 183.64 98.7095 183.571C98.7985 183.336 99.0611 183.215 99.2962 183.302C99.5336 183.391 99.6523 183.654 99.5656 183.889C99.456 184.183 96.8192 191.135 91.8722 192.699C88.1031 193.888 84.6719 192.829 83.2291 192.242C83.3866 195.039 83.1127 203.453 74.5381 205.611C74.5015 205.62 74.4627 205.624 74.4262 205.624V205.627Z" fill="#73B4F7"/>
<path d="M90.0577 205.234C89.8979 205.234 89.7427 205.15 89.6605 205.002L74.9175 178.935C74.7942 178.716 74.8695 178.438 75.091 178.312C75.3101 178.189 75.5886 178.264 75.7142 178.486L90.4572 204.552C90.5805 204.771 90.5052 205.05 90.2837 205.175C90.2129 205.216 90.1353 205.234 90.06 205.234H90.0577ZM97.5639 199.034C97.3311 199.034 97.1324 198.858 97.1096 198.623L94.466 171.895C94.4409 171.644 94.6235 171.42 94.8746 171.395C95.1258 171.37 95.3495 171.552 95.3746 171.804L98.0182 198.532C98.0433 198.783 97.8607 199.007 97.6096 199.032C97.5936 199.032 97.5799 199.032 97.5639 199.032V199.034Z" fill="#73B4F7"/>
<g opacity="0.75">
<path d="M130.205 103.997C128.627 103.657 126.844 103.454 124.833 103.454C122.822 103.454 121.041 103.652 119.448 103.997C109.912 106.036 107.337 113.172 107.214 113.524C106.787 114.761 107.442 116.099 108.675 116.535C109.903 116.973 111.266 116.325 111.716 115.101C111.821 114.823 114.371 108.227 124.835 108.227C135.3 108.227 137.243 114.688 137.314 114.939C137.608 115.996 138.565 116.688 139.613 116.688C139.825 116.688 140.037 116.663 140.247 116.599C141.519 116.252 142.261 114.939 141.916 113.668C141.811 113.309 139.695 106.059 130.205 103.997ZM139.617 79.7275C135.83 79.7275 132.762 82.7912 132.762 86.5763C132.762 90.3613 135.828 93.425 139.617 93.425C143.407 93.425 146.464 90.359 146.464 86.5763C146.464 82.7935 143.398 79.7275 139.617 79.7275ZM116.32 86.5763C116.32 82.7912 113.254 79.7275 109.465 79.7275C105.675 79.7275 102.618 82.7912 102.618 86.5763C102.618 90.3613 105.684 93.425 109.465 93.425C113.245 93.425 116.32 90.359 116.32 86.5763Z" fill="#73B4F7"/>
</g>
<path d="M139.611 117.144C138.341 117.144 137.214 116.288 136.871 115.06C136.853 114.998 134.942 108.681 124.833 108.681C114.725 108.681 112.243 114.993 112.14 115.263C111.606 116.719 109.981 117.486 108.52 116.964C107.059 116.443 106.278 114.831 106.78 113.373C106.89 113.055 109.586 105.636 119.352 103.549C121.044 103.182 122.888 102.994 124.833 102.994C126.778 102.994 128.598 103.182 130.301 103.549C139.752 105.604 142.113 112.727 142.352 113.532C142.766 115.062 141.873 116.628 140.366 117.039C140.133 117.107 139.882 117.144 139.611 117.144ZM124.833 107.77C135.625 107.77 137.732 114.742 137.75 114.813C137.983 115.649 138.748 116.231 139.611 116.231C139.793 116.231 139.958 116.208 140.115 116.16C141.147 115.879 141.752 114.815 141.473 113.786C141.252 113.039 139.042 106.385 130.107 104.444C128.468 104.09 126.692 103.91 124.831 103.91C122.97 103.91 121.172 104.09 119.542 104.444C110.271 106.426 107.743 113.379 107.641 113.674C107.301 114.66 107.83 115.751 108.823 116.105C109.814 116.459 110.917 115.939 111.282 114.943C111.563 114.204 114.321 107.768 124.831 107.768L124.833 107.77ZM139.617 93.8811C135.586 93.8811 132.305 90.6029 132.305 86.5758C132.305 82.5488 135.586 79.2705 139.617 79.2705C143.649 79.2705 146.92 82.5488 146.92 86.5758C146.92 90.6029 143.645 93.8811 139.617 93.8811ZM139.617 80.1837C136.09 80.1837 133.218 83.051 133.218 86.5758C133.218 90.1006 136.088 92.968 139.617 92.968C143.147 92.968 146.007 90.1006 146.007 86.5758C146.007 83.051 143.14 80.1837 139.617 80.1837ZM109.467 93.8811C105.44 93.8811 102.164 90.6029 102.164 86.5758C102.164 82.5488 105.44 79.2705 109.467 79.2705C113.494 79.2705 116.779 82.5488 116.779 86.5758C116.779 90.6029 113.499 93.8811 109.467 93.8811ZM109.467 80.1837C105.945 80.1837 103.077 83.051 103.077 86.5758C103.077 90.1006 105.945 92.968 109.467 92.968C112.99 92.968 115.866 90.1006 115.866 86.5758C115.866 83.051 112.996 80.1837 109.467 80.1837Z" fill="#73B4F7"/>
<g opacity="0.25">
<path d="M65.1498 125.446V135.096C65.1316 137.901 64.7595 139.961 64.0244 141.273C63.2915 142.588 62.1569 143.243 60.6183 143.243H60.5795C59.0111 143.232 57.8605 142.559 57.1345 141.221C56.4017 139.872 56.0342 137.742 56.0342 134.829V124.859C56.0867 122.25 56.4679 120.3 57.1734 119.015C57.8811 117.727 59.0111 117.086 60.5658 117.086H60.5795C62.1615 117.091 63.3212 117.78 64.0518 119.163C64.7823 120.549 65.1476 122.643 65.1476 125.451L65.1498 125.446Z" fill="#575656"/>
</g>
<g opacity="0.25">
<path d="M95.2283 125.209C94.8996 122.865 94.3334 120.598 93.5641 118.434C93.4203 118.034 93.2719 117.637 93.1144 117.244C93.0778 117.146 93.0345 117.046 92.9956 116.948C92.9226 116.765 92.8473 116.585 92.7673 116.404C92.6738 116.183 92.5756 115.959 92.4751 115.74C92.256 115.256 92.0254 114.777 91.7834 114.306C91.6967 114.135 91.6099 113.966 91.5186 113.797C91.4273 113.624 91.336 113.455 91.2401 113.283C91.1967 113.194 91.1465 113.108 91.0963 113.023C90.7105 112.341 90.3041 111.674 89.8772 111.021C89.7676 110.859 89.6603 110.695 89.5507 110.533C89.4389 110.37 89.3293 110.208 89.2151 110.049C89.0576 109.825 88.8955 109.601 88.7357 109.382C88.7175 109.355 88.6992 109.329 88.6787 109.304C88.5348 109.113 88.3887 108.921 88.2426 108.731C88.2289 108.706 88.2084 108.679 88.1833 108.654C88.028 108.453 87.8705 108.257 87.7084 108.058C87.697 108.037 87.681 108.021 87.6651 108.003C87.5555 107.871 87.4459 107.734 87.3317 107.604C87.245 107.501 87.1582 107.396 87.0692 107.295C86.9117 107.111 86.7473 106.928 86.5852 106.748C86.4003 106.542 86.2131 106.341 86.0214 106.14C86.0122 106.129 85.9985 106.113 85.9848 106.101C85.8022 105.907 85.615 105.713 85.4232 105.524C85.2246 105.323 85.026 105.127 84.8228 104.93C84.6448 104.759 84.4644 104.592 84.2841 104.424C84.243 104.385 84.1996 104.344 84.1585 104.307C83.9736 104.138 83.7864 103.972 83.5969 103.809C83.3526 103.595 83.1061 103.383 82.8527 103.177C82.6838 103.038 82.5171 102.901 82.3459 102.766C82.2797 102.709 82.2112 102.657 82.1427 102.606C81.9943 102.488 81.8436 102.373 81.693 102.262C81.6222 102.205 81.5491 102.15 81.4784 102.102C81.3483 102.001 81.2136 101.901 81.0811 101.81C81.0012 101.748 80.9236 101.691 80.8437 101.636C80.6406 101.49 80.4397 101.346 80.2342 101.209C79.9991 101.049 79.7639 100.894 79.5288 100.739C74.4699 97.4698 68.4955 95.4722 62.0874 95.2051C61.592 95.18 61.0829 95.1709 60.5784 95.1709H60.5761C57.1814 95.1709 53.8917 95.6549 50.787 96.5589C50.7299 96.5726 50.6774 96.5886 50.6249 96.6068C50.5724 96.6205 50.5222 96.6388 50.4696 96.6571C49.6021 96.9173 48.7529 97.2095 47.9174 97.5337C47.7484 97.5976 47.584 97.6638 47.4151 97.7323C46.9197 97.9355 46.4266 98.1501 45.9404 98.3715C45.6162 98.5199 45.2966 98.6729 44.977 98.8327C44.4998 99.0701 44.0296 99.3189 43.5616 99.5792C40.7719 101.132 38.215 103.058 35.964 105.289C35.1833 106.063 34.4391 106.869 33.7359 107.713C33.4163 108.097 33.1036 108.48 32.8022 108.88C31.5284 110.539 30.396 112.316 29.4304 114.19C29.2181 114.608 29.0103 115.028 28.814 115.452C28.5172 116.091 28.241 116.742 27.9807 117.397C27.8072 117.838 27.6451 118.281 27.4899 118.728C27.4123 118.952 27.3369 119.178 27.2662 119.402C26.1727 122.792 25.5791 126.406 25.5791 130.161C25.5791 131.223 25.627 132.27 25.7184 133.307C25.8531 134.818 26.0836 136.297 26.4055 137.745C26.4672 138.039 26.5334 138.329 26.6087 138.619C26.732 139.11 26.8621 139.599 27.0059 140.083C27.1497 140.567 27.3027 141.046 27.4648 141.523C27.6246 142 27.7981 142.468 27.983 142.934C28.2547 143.63 28.5514 144.317 28.8642 144.993H28.8665C29.0765 145.445 29.298 145.89 29.5262 146.329C29.6404 146.548 29.7568 146.765 29.8778 146.984C30.1175 147.418 30.3641 147.849 30.6198 148.271C30.7476 148.481 30.8777 148.691 31.0101 148.901C31.2224 149.232 31.437 149.561 31.6631 149.885C32.2726 150.783 32.9255 151.648 33.6172 152.483C34.2131 153.2 34.834 153.892 35.4846 154.558C35.6056 154.682 35.7266 154.805 35.8522 154.928C35.9777 155.058 36.1033 155.182 36.2334 155.303C36.3521 155.419 36.4709 155.533 36.5896 155.643C36.6375 155.691 36.6854 155.734 36.7334 155.775C36.8635 155.899 36.9936 156.017 37.126 156.136C37.2676 156.264 37.4068 156.389 37.5507 156.51C37.6922 156.636 37.8338 156.757 37.9776 156.88C38.0164 156.914 38.0598 156.949 38.1008 156.981C38.2333 157.095 38.3702 157.204 38.5049 157.316C38.546 157.353 38.5894 157.387 38.6305 157.417C38.7903 157.547 38.9569 157.679 39.119 157.805C39.2743 157.928 39.4318 158.047 39.5916 158.165C39.6715 158.227 39.7491 158.286 39.829 158.341C39.95 158.433 40.071 158.522 40.1943 158.608C40.2354 158.64 40.2787 158.67 40.3176 158.697C40.4682 158.807 40.6235 158.914 40.7764 159.019C40.9339 159.131 41.0983 159.238 41.2581 159.346C41.4613 159.48 41.6622 159.613 41.8699 159.743C41.9065 159.768 41.943 159.791 41.9818 159.814C42.1393 159.912 42.2968 160.008 42.4566 160.106C42.4749 160.115 42.4932 160.129 42.5114 160.138C42.7192 160.263 42.9269 160.384 43.1369 160.505C43.3196 160.613 43.5045 160.715 43.6894 160.816C43.7442 160.848 43.8013 160.88 43.8583 160.91C43.9702 160.969 44.0798 161.031 44.1916 161.088C44.3218 161.158 44.4542 161.229 44.5866 161.295C44.6688 161.336 44.7487 161.38 44.8309 161.419C44.9929 161.503 45.1596 161.583 45.324 161.663C45.3742 161.69 45.4221 161.715 45.4746 161.736C45.6573 161.825 45.8445 161.912 46.0294 161.996C46.0659 162.017 46.1024 162.033 46.1435 162.049C46.365 162.149 46.5887 162.25 46.8124 162.343C47.0361 162.441 47.2644 162.535 47.495 162.626C47.527 162.64 47.5612 162.656 47.5955 162.665C47.7438 162.727 47.8945 162.786 48.0452 162.843C48.1616 162.891 48.278 162.934 48.3945 162.973C48.552 163.033 48.7095 163.092 48.8693 163.147C48.931 163.172 48.9926 163.195 49.0565 163.213C49.2574 163.281 49.456 163.352 49.6569 163.416C49.7049 163.434 49.7528 163.45 49.803 163.466C50.2893 163.622 50.7801 163.77 51.2755 163.907C51.5335 163.978 51.7892 164.046 52.0448 164.11C52.3028 164.174 52.5608 164.236 52.821 164.295C53.0813 164.354 53.3415 164.409 53.6041 164.464C54.0287 164.551 54.4533 164.628 54.8825 164.701C55.1496 164.745 55.419 164.786 55.6884 164.825C57.2887 165.048 58.921 165.163 60.5852 165.163C61.092 165.163 61.6011 165.153 62.0965 165.131C62.2426 165.126 62.3887 165.117 62.5371 165.108C62.6832 165.101 62.8316 165.09 62.98 165.078C63.1284 165.069 63.2745 165.058 63.4229 165.046C64.0712 164.994 64.7173 164.925 65.3565 164.838C66.6121 164.667 67.8449 164.432 69.0571 164.131C69.5114 164.017 69.9611 163.896 70.4086 163.765C73.7644 162.791 76.9034 161.323 79.7639 159.442C80.0584 159.25 80.3483 159.051 80.636 158.848C80.9602 158.627 81.2775 158.394 81.5948 158.159C81.7957 158.008 81.992 157.857 82.1884 157.704C82.5787 157.398 82.9623 157.083 83.3367 156.761C83.7156 156.44 84.0855 156.109 84.4484 155.771C84.59 155.641 84.7292 155.506 84.8685 155.373C85.0078 155.239 85.1447 155.104 85.2817 154.967C86.1035 154.152 86.882 153.296 87.6148 152.399C87.7838 152.198 87.9481 151.992 88.1102 151.785C90.0849 149.276 91.7241 146.491 92.9568 143.498C93.1737 142.97 93.3792 142.436 93.5709 141.895C93.6988 141.534 93.8221 141.171 93.9385 140.806C93.9978 140.624 94.0549 140.439 94.1097 140.256C94.3311 139.519 94.5298 138.772 94.7033 138.014C94.9201 137.069 95.0982 136.108 95.2375 135.135C95.4703 133.512 95.5913 131.853 95.5913 130.17C95.5913 128.488 95.4703 126.835 95.2375 125.219L95.2283 125.209ZM74.1868 133.731C74.1868 135.234 74.0909 136.638 73.8946 137.943C73.8603 138.19 73.8215 138.432 73.7758 138.672C73.7439 138.857 73.7096 139.039 73.6731 139.22C73.5932 139.605 73.5042 139.978 73.406 140.343C72.9563 142.025 72.3102 143.509 71.4678 144.794C71.3377 144.993 71.203 145.185 71.066 145.372C70.9268 145.559 70.7852 145.744 70.6368 145.922C69.0023 147.892 66.9066 149.187 64.3497 149.799C64.1443 149.849 63.9365 149.892 63.7265 149.931C63.6192 149.954 63.5142 149.97 63.4069 149.988C62.9823 150.059 62.5417 150.111 62.0942 150.148C61.9755 150.159 61.8545 150.168 61.7335 150.178C61.3705 150.2 61.0007 150.212 60.624 150.212H60.5829C60.4985 150.212 60.414 150.212 60.3341 150.207C60.156 150.205 59.978 150.2 59.8022 150.194C59.6241 150.184 59.4506 150.173 59.2794 150.162C59.1059 150.15 58.9369 150.134 58.768 150.114C58.6036 150.095 58.4416 150.077 58.2795 150.057C58.2703 150.057 58.2589 150.054 58.2498 150.052C58.09 150.029 57.9302 150.004 57.7727 149.979C57.6129 149.952 57.4508 149.92 57.291 149.888C57.1334 149.856 56.9782 149.819 56.8207 149.78C56.6655 149.744 56.5102 149.7 56.3595 149.659C56.3504 149.659 56.339 149.655 56.3299 149.652C56.186 149.611 56.0491 149.568 55.9098 149.525C55.7614 149.474 55.613 149.426 55.4669 149.374C55.3231 149.319 55.1816 149.264 55.04 149.212H55.0377C54.6245 149.038 54.225 148.849 53.8392 148.639C53.8301 148.634 53.8187 148.63 53.8095 148.621C53.547 148.474 53.2913 148.319 53.0425 148.155C52.9352 148.086 52.8302 148.013 52.7274 147.94C52.6361 147.876 52.5471 147.81 52.4581 147.737C52.3713 147.675 52.2868 147.612 52.2047 147.539C52.1179 147.472 52.0334 147.404 51.9512 147.328C51.8668 147.258 51.7823 147.185 51.7024 147.109C51.6202 147.036 51.5403 146.959 51.4604 146.881C51.3897 146.815 51.3166 146.742 51.2481 146.671C51.1865 146.609 51.1248 146.545 51.0632 146.482C50.997 146.411 50.9308 146.338 50.8623 146.265C50.755 146.144 50.6477 146.02 50.5427 145.895H50.5404C50.424 145.751 50.3098 145.609 50.2025 145.461C50.0724 145.29 49.9446 145.116 49.8236 144.938C49.7163 144.783 49.6158 144.626 49.5154 144.461C49.4537 144.361 49.3921 144.256 49.3305 144.153C49.2118 143.945 49.0953 143.735 48.9858 143.518C47.6503 140.918 46.9814 137.656 46.9814 133.729V126.597C46.9814 124.826 47.1138 123.194 47.3809 121.696C47.4357 121.397 47.495 121.105 47.5589 120.817C47.6571 120.383 47.7667 119.966 47.8854 119.557C47.8854 119.557 47.8854 119.556 47.8854 119.555C47.9265 119.42 47.9699 119.285 48.011 119.153C48.0475 119.03 48.0886 118.909 48.1274 118.79C48.1685 118.671 48.2096 118.55 48.2529 118.431C48.3922 118.062 48.5383 117.703 48.7004 117.354C48.8602 117.005 49.0314 116.669 49.214 116.345C49.3944 116.018 49.5884 115.706 49.7916 115.402C49.9948 115.101 50.2117 114.806 50.4354 114.528C50.4537 114.507 50.4674 114.487 50.4833 114.466C50.5016 114.445 50.5176 114.427 50.5336 114.407C50.7482 114.144 50.9742 113.893 51.2047 113.656C51.4353 113.418 51.6773 113.194 51.9261 112.98C52.0494 112.873 52.175 112.77 52.3051 112.669C52.5608 112.468 52.8256 112.279 53.0973 112.101C53.232 112.012 53.3712 111.927 53.5128 111.845C54.8597 111.051 56.3915 110.533 58.1128 110.281C58.8936 110.167 59.7131 110.11 60.5715 110.11H60.5898C60.8455 110.11 61.1011 110.115 61.3523 110.129C61.6034 110.14 61.8545 110.156 62.0988 110.172C62.5485 110.211 62.9845 110.265 63.4114 110.341C63.8361 110.412 64.2516 110.503 64.6533 110.612C64.7538 110.64 64.8542 110.667 64.9524 110.697C65.151 110.754 65.3474 110.818 65.5368 110.884C65.6327 110.918 65.7286 110.953 65.8222 110.987C66.0117 111.058 66.1966 111.133 66.3838 111.215C66.4751 111.256 66.5664 111.297 66.6555 111.338C67.2901 111.633 67.8859 111.98 68.4453 112.384C68.5252 112.443 68.6028 112.5 68.6827 112.56C68.8379 112.679 68.9932 112.802 69.1438 112.93C69.2169 112.994 69.2945 113.06 69.3675 113.124C69.5159 113.254 69.6621 113.393 69.8013 113.535C70.0844 113.815 70.3583 114.114 70.6186 114.432C71.566 115.576 72.3194 116.911 72.8855 118.434H72.8878C72.9426 118.58 72.9951 118.726 73.043 118.87C73.1343 119.132 73.2211 119.402 73.2987 119.676C73.3238 119.758 73.3489 119.84 73.3695 119.922C73.3992 120.025 73.4266 120.132 73.454 120.237C73.4859 120.358 73.5156 120.481 73.5453 120.605C73.5727 120.719 73.6001 120.835 73.6252 120.949C73.6275 120.961 73.632 120.977 73.632 120.988C73.6617 121.116 73.6891 121.249 73.7142 121.381C73.7416 121.504 73.7644 121.63 73.785 121.76C73.8101 121.892 73.8329 122.029 73.8535 122.166C73.858 122.185 73.8603 122.203 73.8626 122.223C73.8831 122.34 73.8991 122.456 73.9151 122.575C73.9356 122.7 73.9516 122.828 73.9676 122.958C73.9813 123.079 73.9973 123.203 74.0087 123.324C74.0818 123.979 74.132 124.657 74.1594 125.358C74.1708 125.634 74.1799 125.915 74.1822 126.202C74.1845 126.342 74.1845 126.479 74.1845 126.618V133.729L74.1868 133.731Z" fill="#899DB3"/>
</g>
<path d="M60.6198 143.698H60.581C58.8345 143.687 57.5424 142.924 56.7343 141.436C55.9581 140.004 55.5791 137.842 55.5791 134.827V124.857C55.6339 122.177 56.0357 120.141 56.7731 118.791C57.5652 117.353 58.8391 116.625 60.565 116.625C62.3411 116.63 63.6446 117.41 64.455 118.944C65.2175 120.392 65.6034 122.579 65.6034 125.444V135.094C65.5851 138.011 65.1993 140.102 64.4208 141.493C63.6058 142.956 62.3251 143.698 60.6175 143.698H60.6198ZM60.581 117.538C59.1815 117.538 58.2022 118.091 57.5766 119.23C56.91 120.447 56.5448 122.341 56.4945 124.864V134.824C56.4945 137.644 56.8461 139.721 57.5401 140.997C58.1862 142.189 59.1815 142.773 60.5855 142.783H60.622C61.9941 142.783 62.978 142.214 63.6286 141.045C64.3204 139.81 64.6788 137.806 64.6948 135.089V125.444C64.6948 122.729 64.3432 120.686 63.6515 119.371C63.0008 118.141 61.9986 117.543 60.581 117.538Z" fill="#575656"/>
<path d="M60.6233 150.673H60.5822C60.4932 150.673 60.4019 150.673 60.3129 150.671C56.0027 150.6 52.5943 149.091 50.1859 146.189C47.7523 143.24 46.5195 139.048 46.5195 133.731V126.602C46.5195 123.732 46.8734 121.178 47.5697 119.014C47.6541 118.749 47.7363 118.509 47.8185 118.278C48.3824 116.763 49.138 115.409 50.0695 114.251C50.0923 114.222 50.1174 114.19 50.1402 114.16L50.1676 114.126C51.058 113.041 52.1012 112.144 53.2724 111.453C55.2927 110.261 57.7469 109.658 60.5663 109.658C61.0754 109.658 61.5822 109.679 62.1255 109.72C65.8375 110.037 68.8121 111.523 70.9672 114.142C71.9374 115.313 72.7273 116.706 73.3095 118.278C74.1907 120.609 74.6381 123.417 74.6381 126.622V133.731C74.6381 139.083 73.4076 143.283 70.9832 146.219C68.8098 148.835 65.8306 150.312 62.1255 150.611C61.6529 150.655 61.1438 150.675 60.6188 150.675L60.6233 150.673ZM60.5822 110.569C57.9135 110.569 55.6169 111.131 53.7381 112.236C52.6583 112.873 51.6972 113.701 50.8799 114.694L50.8502 114.731C50.8342 114.751 50.8182 114.77 50.8023 114.79L50.7863 114.811C49.9142 115.893 49.2042 117.164 48.6746 118.589C48.597 118.804 48.5194 119.032 48.4372 119.285C47.7706 121.36 47.4304 123.819 47.4304 126.595V133.725C47.4304 138.825 48.5947 142.822 50.889 145.6C53.1171 148.287 56.2972 149.684 60.3357 149.751C60.4224 149.753 60.5046 149.755 60.58 149.753H60.6211C61.1187 149.753 61.6004 149.732 62.0502 149.691C65.5065 149.413 68.2734 148.045 70.2823 145.625C72.5675 142.859 73.7272 138.854 73.7272 133.72V126.611C73.7272 123.515 73.3003 120.815 72.4556 118.587C71.9077 117.107 71.1704 115.806 70.2641 114.713C68.2688 112.29 65.5065 110.914 62.0524 110.619C61.5365 110.581 61.0525 110.56 60.5822 110.56V110.569Z" fill="#575656"/>
<path d="M60.5822 165.614C58.9111 165.614 57.2423 165.5 55.6214 165.272C55.3452 165.231 55.0735 165.192 54.8041 165.146C54.3772 165.075 53.9412 164.993 53.5097 164.906L53.48 164.9C53.2243 164.847 52.9687 164.792 52.7153 164.735C52.4527 164.676 52.1902 164.612 51.9299 164.548C51.6697 164.482 51.4094 164.416 51.1469 164.343C50.631 164.201 50.1287 164.05 49.6562 163.897C49.6082 163.884 49.5511 163.863 49.4941 163.843C49.3183 163.786 49.1242 163.719 48.9302 163.653L48.9005 163.644C48.8434 163.626 48.7727 163.601 48.7019 163.573C48.5444 163.518 48.3846 163.459 48.2271 163.4C48.1175 163.363 47.9919 163.315 47.8686 163.265C47.7294 163.213 47.581 163.153 47.4349 163.094C47.3915 163.08 47.3504 163.062 47.3093 163.044C47.0788 162.952 46.8505 162.856 46.6245 162.758C46.4076 162.667 46.1861 162.569 45.9624 162.468C45.9145 162.45 45.8688 162.429 45.8232 162.404C45.6405 162.322 45.4579 162.238 45.2775 162.151C45.2205 162.126 45.1634 162.098 45.1086 162.069C44.942 161.989 44.7776 161.907 44.6132 161.825C44.5379 161.788 44.4534 161.745 44.3689 161.701C44.2343 161.635 44.0996 161.562 43.9626 161.489C43.8964 161.455 43.8188 161.414 43.7389 161.37L43.6339 161.313C43.5745 161.281 43.5106 161.245 43.4489 161.21C43.2732 161.115 43.086 161.01 42.8988 160.9C42.6864 160.777 42.4764 160.656 42.2664 160.528L42.223 160.503C42.0107 160.373 41.8144 160.252 41.6203 160.128C41.408 159.996 41.2026 159.861 40.9971 159.724C40.835 159.617 40.6684 159.505 40.5063 159.393C40.3556 159.29 40.1958 159.181 40.0428 159.069C40.0063 159.044 39.9584 159.01 39.9081 158.973C39.7963 158.896 39.6707 158.802 39.5452 158.708C39.4744 158.66 39.3876 158.596 39.3032 158.528C39.1502 158.414 38.9881 158.291 38.8283 158.165C38.6708 158.044 38.5064 157.914 38.3466 157.784C38.2964 157.747 38.2462 157.706 38.196 157.663C38.0727 157.562 37.938 157.453 37.8056 157.339C37.7576 157.302 37.712 157.263 37.6686 157.224L37.5659 157.135C37.4563 157.042 37.3467 156.948 37.2394 156.85C37.1025 156.734 36.9563 156.604 36.8102 156.471C36.6778 156.355 36.5454 156.231 36.413 156.106C36.3696 156.067 36.3126 156.017 36.2601 155.964C36.1482 155.859 36.0272 155.745 35.9085 155.626C35.7807 155.508 35.6505 155.378 35.5181 155.241C35.3994 155.124 35.2761 154.999 35.1528 154.873C34.4954 154.2 33.8607 153.492 33.2603 152.771C32.5617 151.926 31.8951 151.04 31.281 150.138C31.0322 149.782 30.7993 149.419 30.6213 149.145C30.4889 148.938 30.3633 148.73 30.2355 148.524C29.9706 148.088 29.7172 147.65 29.473 147.202C29.352 146.983 29.2333 146.762 29.1168 146.538C28.8977 146.12 28.6854 145.691 28.4822 145.26L28.4457 145.187C28.1261 144.504 27.8247 143.803 27.5508 143.098C27.3636 142.625 27.1855 142.144 27.0257 141.669C26.859 141.185 26.7015 140.694 26.56 140.21C26.4116 139.71 26.2769 139.21 26.1582 138.726C26.0874 138.45 26.0189 138.158 25.9527 137.836C25.6263 136.377 25.3934 134.866 25.2587 133.348V133.325C25.1628 132.286 25.1172 131.22 25.1172 130.161C25.1172 126.43 25.6925 122.762 26.8294 119.257C26.9001 119.031 26.9778 118.803 27.0554 118.577C27.2243 118.093 27.3864 117.653 27.553 117.226C27.8019 116.589 28.0781 115.943 28.3954 115.255C28.6123 114.79 28.8178 114.37 29.021 113.975C29.9866 112.098 31.1372 110.288 32.4339 108.596C32.7695 108.156 33.1142 107.733 33.379 107.416C34.0685 106.587 34.8287 105.759 35.6368 104.96C37.9311 102.688 40.5222 100.741 43.3348 99.1747C43.8165 98.9053 44.2982 98.6519 44.7685 98.419C45.0744 98.2661 45.394 98.1108 45.7433 97.951C46.2158 97.7319 46.7181 97.515 47.2363 97.3027L47.339 97.2616C47.4737 97.2068 47.6107 97.1543 47.7454 97.1018C48.5604 96.7845 49.4302 96.4831 50.3273 96.2115L50.3616 96.2023C50.3981 96.1909 50.4369 96.1818 50.4734 96.1704C50.5419 96.1498 50.6013 96.1316 50.6652 96.1156C53.8567 95.1864 57.1943 94.7139 60.5685 94.7139C61.0684 94.7139 61.5821 94.7253 62.1003 94.7481C68.3874 95.0106 74.4988 96.9488 79.77 100.355C80.0097 100.51 80.2494 100.668 80.4868 100.83C80.6923 100.969 80.9 101.115 81.1055 101.264C81.1808 101.314 81.263 101.373 81.3452 101.439C81.4776 101.531 81.6123 101.629 81.7424 101.732C81.8178 101.784 81.8954 101.841 81.9707 101.903C82.1168 102.012 82.2698 102.129 82.4227 102.25L82.4593 102.277C82.5186 102.323 82.578 102.368 82.635 102.419C82.788 102.537 82.9547 102.674 83.1213 102.811C83.361 103.005 83.6007 103.211 83.8906 103.464C84.0778 103.629 84.2696 103.798 84.4568 103.969C84.4979 104.005 84.5436 104.049 84.5892 104.092C84.7696 104.259 84.9499 104.428 85.1303 104.601C85.3357 104.8 85.5389 105.001 85.7398 105.204C85.927 105.391 86.1142 105.583 86.2945 105.777C86.3197 105.8 86.3379 105.822 86.3539 105.841C86.5434 106.039 86.7283 106.24 86.9132 106.443C87.0799 106.626 87.2442 106.813 87.4063 107C87.4908 107.096 87.5775 107.201 87.6643 107.306C87.7784 107.437 87.888 107.571 87.9953 107.704C88.0227 107.731 88.0455 107.761 88.0661 107.79C88.219 107.98 88.3697 108.167 88.5181 108.359C88.5501 108.393 88.5797 108.432 88.6049 108.471C88.751 108.658 88.8925 108.845 89.034 109.032C89.0523 109.055 89.0774 109.087 89.1002 109.121C89.4153 109.548 89.6847 109.927 89.9198 110.279L90.2463 110.77C90.68 111.427 91.0955 112.112 91.4836 112.801C91.5315 112.884 91.584 112.975 91.632 113.068C91.7279 113.24 91.8192 113.411 91.9128 113.584C92.0018 113.746 92.0886 113.915 92.173 114.087C92.4127 114.552 92.6479 115.041 92.8807 115.552C92.9812 115.776 93.0816 116.002 93.1775 116.228C93.2551 116.406 93.3305 116.591 93.4081 116.778L93.4492 116.876C93.4766 116.945 93.5062 117.016 93.5314 117.084C93.6706 117.431 93.8213 117.826 93.9834 118.28C94.7756 120.511 95.344 122.821 95.6704 125.147C95.9079 126.798 96.0289 128.485 96.0289 130.163C96.0289 131.841 95.9079 133.535 95.6704 135.194C95.5312 136.176 95.3486 137.158 95.1294 138.112C94.9559 138.87 94.755 139.635 94.529 140.383C94.4742 140.568 94.4171 140.758 94.3555 140.943C94.2459 141.29 94.1226 141.653 93.9834 142.043C93.7939 142.584 93.5839 143.132 93.3601 143.669C92.1182 146.677 90.4677 149.501 88.4496 152.063C88.283 152.273 88.1163 152.485 87.9451 152.688C87.2054 153.592 86.4087 154.467 85.5823 155.286C85.4841 155.387 85.3814 155.487 85.2764 155.59L85.1691 155.695C85.0252 155.834 84.8837 155.969 84.7399 156.101C84.3632 156.453 83.9842 156.791 83.6144 157.106C83.2491 157.421 82.8565 157.743 82.4524 158.06C82.2561 158.215 82.0552 158.368 81.852 158.519C81.5027 158.779 81.1854 159.007 80.8772 159.22C80.6055 159.411 80.3065 159.615 79.9983 159.818C77.0602 161.749 73.8732 163.224 70.5219 164.199C70.0813 164.329 69.6339 164.45 69.1545 164.569C67.924 164.872 66.6638 165.112 65.4037 165.288C64.7576 165.374 64.0978 165.445 63.4449 165.498C63.2965 165.509 63.1459 165.523 62.9952 165.532C62.9199 165.537 62.84 165.541 62.7623 165.546L62.3948 165.566C62.2966 165.571 62.1985 165.578 62.1026 165.58C61.6209 165.6 61.1072 165.612 60.5753 165.612L60.5822 165.614ZM29.2492 144.723L29.2858 144.799C29.4912 145.239 29.7104 145.682 29.9364 146.114C30.0483 146.33 30.1624 146.545 30.2811 146.757C30.5208 147.198 30.7674 147.623 31.0139 148.029C31.1463 148.246 31.2719 148.449 31.3998 148.65C31.571 148.917 31.7993 149.269 32.0412 149.618C32.6417 150.501 33.29 151.364 33.9703 152.186C34.5547 152.889 35.1734 153.576 35.8126 154.234C35.9313 154.355 36.05 154.476 36.1733 154.597C36.3034 154.732 36.4244 154.85 36.5477 154.964C36.671 155.085 36.7874 155.195 36.9038 155.305C36.9541 155.355 36.9974 155.394 37.0385 155.43C37.1755 155.558 37.3011 155.674 37.4312 155.791C37.5727 155.919 37.7097 156.042 37.8467 156.158C37.9608 156.259 38.0636 156.348 38.1686 156.439L38.2759 156.533C38.3101 156.565 38.3444 156.592 38.3786 156.617L38.3969 156.633C38.527 156.745 38.6617 156.855 38.7941 156.964C38.8352 157.001 38.8649 157.026 38.8945 157.046L38.9196 157.065C39.0772 157.192 39.2393 157.32 39.3991 157.446C39.5566 157.571 39.7095 157.686 39.8648 157.802C39.9447 157.864 40.0154 157.918 40.0862 157.966C40.2186 158.067 40.335 158.151 40.4538 158.236C40.504 158.275 40.5405 158.3 40.5748 158.323C40.73 158.434 40.8807 158.539 41.0313 158.642C41.1934 158.756 41.3509 158.861 41.5085 158.966C41.7094 159.101 41.908 159.229 42.1134 159.359C42.3029 159.478 42.497 159.599 42.6933 159.72L42.7458 159.752C42.9513 159.875 43.1544 159.996 43.3622 160.115C43.5425 160.22 43.7252 160.322 43.9055 160.421C43.9672 160.457 44.0151 160.484 44.0653 160.51L44.1795 160.571C44.2502 160.61 44.3233 160.649 44.3941 160.685C44.531 160.761 44.6589 160.827 44.7867 160.891C44.8689 160.934 44.9488 160.973 45.0264 161.012C45.1954 161.099 45.3552 161.178 45.5173 161.254L45.5401 161.265C45.5766 161.286 45.6108 161.304 45.6497 161.32L45.6702 161.329C45.8483 161.416 46.0332 161.5 46.2135 161.583L46.2409 161.596C46.2592 161.605 46.2775 161.614 46.298 161.624L46.3277 161.635C46.5446 161.733 46.7637 161.831 46.9829 161.923C47.2112 162.023 47.4326 162.114 47.6563 162.203L47.6792 162.213C47.6792 162.213 47.702 162.224 47.7134 162.226L47.7636 162.245C47.9075 162.304 48.0536 162.361 48.1997 162.416C48.3184 162.464 48.4257 162.505 48.533 162.541C48.6996 162.603 48.8549 162.662 49.0078 162.715L49.0306 162.724C49.0809 162.745 49.1311 162.763 49.1813 162.779L49.227 162.795C49.4142 162.859 49.6014 162.925 49.7886 162.984C49.8434 163.005 49.8845 163.018 49.9255 163.03C50.3958 163.183 50.8844 163.329 51.3889 163.466C51.6423 163.537 51.8957 163.603 52.1491 163.667C52.4025 163.731 52.6582 163.792 52.9162 163.849C53.1627 163.907 53.4138 163.957 53.6627 164.009L53.6901 164.014C54.1101 164.101 54.5347 164.178 54.9502 164.247C55.2128 164.29 55.4799 164.329 55.7447 164.368C57.3222 164.589 58.9476 164.701 60.5776 164.701C61.0935 164.701 61.5958 164.69 62.0683 164.669C62.1642 164.667 62.2555 164.66 62.3468 164.655L62.9381 164.621C63.0842 164.612 63.2303 164.598 63.3764 164.587C64.0179 164.537 64.6594 164.468 65.2872 164.381C66.5131 164.212 67.7436 163.977 68.9399 163.683C69.4056 163.566 69.8416 163.448 70.2708 163.322C73.5354 162.372 76.6401 160.936 79.5029 159.055C79.8042 158.859 80.0919 158.663 80.3613 158.471C80.6649 158.263 80.9731 158.042 81.3087 157.788C81.505 157.64 81.6991 157.492 81.8931 157.341C82.2858 157.033 82.667 156.72 83.0254 156.412C83.3861 156.104 83.756 155.775 84.1235 155.432C84.2628 155.302 84.402 155.172 84.5367 155.04L84.644 154.935C84.7445 154.837 84.8426 154.741 84.9408 154.64C85.7489 153.839 86.5228 152.987 87.2465 152.104C87.4155 151.903 87.5775 151.7 87.7373 151.497C89.7029 149.001 91.3124 146.248 92.5223 143.317C92.7392 142.794 92.9424 142.265 93.1296 141.737C93.2665 141.354 93.3853 141.002 93.4926 140.662C93.5519 140.479 93.6067 140.299 93.6615 140.119C93.8806 139.388 94.0793 138.644 94.2459 137.904C94.4582 136.975 94.6363 136.019 94.7733 135.062C95.0038 133.446 95.1226 131.795 95.1226 130.161C95.1226 128.526 95.0061 126.882 94.7733 125.275C94.4559 123.008 93.9035 120.757 93.1296 118.586C92.9721 118.143 92.826 117.76 92.6867 117.413C92.6593 117.342 92.6342 117.28 92.6091 117.219L92.568 117.116C92.4972 116.94 92.4241 116.762 92.3465 116.586C92.2506 116.363 92.1548 116.144 92.0566 115.927C91.8306 115.431 91.6023 114.954 91.3763 114.514C91.2873 114.335 91.2051 114.173 91.1183 114.016C91.027 113.842 90.938 113.676 90.8421 113.509L90.8307 113.489C90.7919 113.409 90.7462 113.331 90.7028 113.256C90.3216 112.575 89.9152 111.911 89.4952 111.272L89.171 110.786C88.9427 110.443 88.6802 110.073 88.3697 109.653L88.3514 109.626C88.3423 109.612 88.3332 109.603 88.3241 109.592C88.1734 109.388 88.0296 109.201 87.8834 109.014L87.8241 108.936C87.6711 108.738 87.5136 108.544 87.3561 108.35L87.3127 108.295C87.2077 108.165 87.0981 108.032 86.9885 107.905C86.895 107.793 86.8128 107.694 86.7283 107.599C86.5685 107.411 86.4087 107.233 86.2489 107.055C86.0663 106.854 85.8813 106.653 85.6941 106.457L85.6553 106.416C85.475 106.224 85.2923 106.035 85.1051 105.85C84.9088 105.651 84.7102 105.455 84.5116 105.263C84.3358 105.094 84.1577 104.93 83.9797 104.763C83.9386 104.724 83.9021 104.69 83.8632 104.656C83.676 104.485 83.4911 104.32 83.3039 104.158C83.0209 103.909 82.7903 103.713 82.5711 103.535C82.3953 103.389 82.2355 103.259 82.0712 103.131C82.0095 103.078 81.9616 103.042 81.9137 103.005L81.868 102.971C81.7173 102.852 81.5712 102.741 81.4228 102.629C81.3498 102.572 81.2881 102.524 81.2242 102.48L81.2037 102.467C81.0804 102.371 80.9525 102.277 80.827 102.19L80.8042 102.174C80.7334 102.12 80.6603 102.067 80.5896 102.019C80.3818 101.871 80.1832 101.729 79.9823 101.595C79.7494 101.435 79.5166 101.282 79.2837 101.131C74.1495 97.8141 68.1957 95.9238 62.0706 95.6704C61.5661 95.6476 61.0639 95.6362 60.5799 95.6362C57.2879 95.6362 54.0371 96.0973 50.9163 97.0059C50.8547 97.0219 50.8113 97.0356 50.7634 97.0493C50.72 97.063 50.6698 97.079 50.6195 97.0927L50.5922 97.0995C49.7246 97.362 48.8777 97.6543 48.081 97.9647C47.9463 98.0172 47.8139 98.0697 47.6837 98.1222L47.5833 98.1633C47.0833 98.3665 46.5948 98.5788 46.1314 98.7934C45.7889 98.9509 45.4807 99.0993 45.1817 99.2477C44.7205 99.476 44.2525 99.7226 43.7845 99.9851C41.0428 101.51 38.5201 103.407 36.2852 105.622C35.4976 106.402 34.7579 107.206 34.0867 108.014C33.8288 108.325 33.4909 108.735 33.1667 109.165C31.8997 110.815 30.7811 112.578 29.8382 114.406C29.6396 114.79 29.441 115.198 29.2287 115.65C28.9182 116.319 28.6488 116.947 28.4069 117.57C28.2425 117.986 28.085 118.415 27.9206 118.885C27.8453 119.104 27.7699 119.326 27.6992 119.547C26.5919 122.963 26.0326 126.535 26.0326 130.172C26.0326 131.211 26.0783 132.256 26.1719 133.274V133.297C26.3043 134.77 26.5326 136.235 26.8499 137.653C26.9161 137.968 26.98 138.247 27.0485 138.514C27.165 138.986 27.2974 139.473 27.4412 139.961C27.5782 140.431 27.7288 140.909 27.8932 141.381C28.0484 141.845 28.2219 142.312 28.4046 142.771C28.6625 143.436 28.9433 144.093 29.2424 144.735L29.2492 144.723Z" fill="#73B4F7"/>
<path d="M185.205 147.119H91.4478C91.1967 147.119 90.9912 146.913 90.9912 146.662C90.9912 146.411 91.1967 146.205 91.4478 146.205H185.205C185.456 146.205 185.661 146.411 185.661 146.662C185.661 146.913 185.456 147.119 185.205 147.119ZM142.001 140.14H116.322C116.071 140.14 115.866 139.934 115.866 139.683C115.866 139.432 116.071 139.227 116.322 139.227H142.001C142.252 139.227 142.457 139.432 142.457 139.683C142.457 139.934 142.252 140.14 142.001 140.14ZM202.753 196.66H98.5568C98.3057 196.66 98.1002 196.454 98.1002 196.203C98.1002 195.952 98.3057 195.747 98.5568 195.747H202.753C203.004 195.747 203.21 195.952 203.21 196.203C203.21 196.454 203.004 196.66 202.753 196.66Z" fill="#73B4F7"/>
<g opacity="0.25">
<path d="M46.7569 51.49H47.2204C52.245 51.49 56.8748 53.104 60.5799 55.8207V51.8849C54.8613 51.8849 50.2247 44.881 50.2247 36.2447C50.2247 27.6085 54.8613 20.6 60.5799 20.6H183.734C189.455 20.6 194.089 27.6039 194.089 36.2447C194.089 42.9884 191.265 48.7345 187.304 50.9307C191.354 50.0175 194.97 48.0337 197.815 45.3056C201.801 41.484 204.266 36.2036 204.266 30.3708C204.266 18.7052 194.406 9.24707 182.243 9.24707H46.7569C40.6753 9.24707 35.1689 11.6099 31.1829 15.4337C27.197 19.2553 24.7314 24.538 24.7314 30.3708C24.7314 42.0365 34.5936 51.4923 46.7569 51.4923V51.49Z" fill="#73B4F7"/>
</g>
<g opacity="0.25">
<path d="M185.208 93.9248V116.58V135.786C190.105 135.156 194.493 132.983 197.819 129.792C201.805 125.97 204.27 120.687 204.27 114.855C204.27 104.152 195.972 95.3105 185.208 93.9248Z" fill="#73B4F7"/>
</g>
<g opacity="0.25">
<path d="M27.2707 119.397C27.3415 119.173 27.4191 118.947 27.4944 118.724C27.6496 118.276 27.814 117.831 27.9852 117.393C28.2409 116.733 28.5217 116.087 28.8185 115.448C29.0171 115.023 29.2203 114.601 29.4349 114.185C30.4006 112.311 31.5306 110.535 32.8067 108.875C33.1081 108.478 33.4208 108.092 33.7404 107.709C34.4413 106.864 35.1878 106.056 35.9686 105.284C38.2218 103.054 40.7764 101.127 43.5661 99.5747C44.0295 99.3144 44.5021 99.0656 44.9815 98.8282C45.3011 98.6683 45.6207 98.5154 45.9449 98.367C46.4311 98.1433 46.922 97.931 47.4196 97.7278C47.5886 97.6616 47.7529 97.5954 47.9219 97.5292C48.294 97.3854 48.6684 97.2484 49.0473 97.116C49.1478 97.0817 49.2505 97.0452 49.351 97.011C49.6363 96.9151 49.924 96.8215 50.2139 96.7324C50.3007 96.705 50.3874 96.6754 50.4742 96.648C50.5267 96.6343 50.5815 96.6183 50.6317 96.6C50.6865 96.5818 50.739 96.5681 50.7938 96.5521C53.8985 95.6481 57.1882 95.1641 60.5829 95.1641V89.3975C56.8777 92.1118 52.248 93.7259 47.2233 93.7259H46.7599C40.6782 93.7259 35.1718 96.0887 31.1859 99.9125C27.1999 103.734 24.7344 109.014 24.7344 114.847C24.7344 117.667 25.312 120.356 26.3552 122.812C26.6041 121.65 26.91 120.507 27.2707 119.39V119.397Z" fill="#73B4F7"/>
</g>
<g opacity="0.25">
<path d="M185.684 209.111H88.8202C86.7199 209.111 84.6744 208.88 82.7088 208.446L83.5238 208.042L82.7065 208.446C70.0501 205.654 60.5829 194.368 60.5829 180.873V178.221H46.7599C40.6782 178.221 35.1718 180.584 31.1859 184.407C27.1999 188.229 24.7344 193.512 24.7344 199.344C24.7344 211.01 34.5965 220.466 46.7599 220.466H182.246C188.328 220.466 193.832 218.103 197.818 214.279C201.804 210.458 204.269 205.177 204.269 199.344C204.269 197.212 203.938 195.153 203.326 193.213C202.409 202.143 194.859 209.113 185.686 209.113L185.684 209.111Z" fill="#73B4F7"/>
</g>
</svg>
