<svg width="217" height="217" viewBox="0 0 217 217" fill="none" xmlns="http://www.w3.org/2000/svg">
<g clip-path="url(#clip0_1499_19780)">
<path d="M216.854 189.288C216.854 194.853 214.18 199.885 209.858 203.529C205.534 207.178 199.562 209.433 192.967 209.433H24.7398C11.5487 209.433 0.854492 200.412 0.854492 189.288C0.854492 183.724 3.52857 178.689 7.85073 175.045C12.1751 171.399 18.1475 169.142 24.7398 169.142H26.3425C29.0598 169.142 31.6647 168.762 34.0969 168.056C42.7131 179.998 56.751 187.772 72.6054 187.772H118.101C118.192 187.85 118.289 187.926 118.387 188.001L136.388 201.771C139.794 204.378 144.749 202.51 145.59 198.302L147.704 187.703C159.77 187.051 170.643 181.888 178.664 173.873C180.147 172.389 181.532 170.81 182.809 169.142H192.969C206.16 169.142 216.854 178.16 216.854 189.288Z" fill="url(#paint0_linear_1499_19780)"/>
<path d="M216.855 108.707C216.855 114.272 214.181 119.307 209.859 122.953C205.534 126.599 199.562 128.854 192.967 128.854H191.166C188.455 117.922 181.954 108.485 173.139 102.022C173.465 96.4041 173.592 90.6758 173.307 85.0576C177.141 87.2695 181.777 88.5611 186.773 88.5611H192.967C206.159 88.5611 216.853 97.5813 216.853 108.707H216.855Z" fill="url(#paint1_linear_1499_19780)"/>
<path d="M192.969 7.98633H24.7398C18.1453 7.98633 12.1729 10.2414 7.85073 13.8874C3.52857 17.5335 0.854492 22.5663 0.854492 28.1283C0.854492 39.2566 11.5508 48.2747 24.7398 48.2747H30.4335C43.6268 48.2747 54.321 57.2927 54.321 68.421C54.321 73.983 51.6491 79.0179 47.3226 82.6618C43.0004 86.3101 37.0302 88.563 30.4314 88.563H24.7376C18.1431 88.563 12.1707 90.818 7.84857 94.4662C3.52857 98.108 0.854492 103.145 0.854492 108.707C0.854492 119.835 11.5508 128.853 24.7398 128.853H26.3425C26.4095 128.853 26.4764 128.853 26.5434 128.856C28.6494 120.356 33.0515 112.759 39.0476 106.761C47.6379 98.1728 59.5028 92.8614 72.6054 92.8614H73.2858C73.3506 92.8808 73.4197 92.8981 73.4866 92.9175C67.4603 91.1679 62.3972 87.4333 59.2155 82.5495C56.9173 79.0309 55.5975 74.9139 55.5975 70.5162C55.5975 65.0276 57.6538 59.9754 61.0969 55.9729C60.5072 50.642 60.0363 43.1058 61.8313 41.449C63.6608 39.7599 69.9788 44.3931 74.2405 47.9031C76.461 47.3286 78.8046 47.0197 81.2238 47.0197C84.3752 47.0197 87.3884 47.5402 90.1727 48.4928C94.4106 44.9418 101.359 39.6627 103.295 41.449C103.908 42.015 104.258 43.2699 104.424 44.8921C114.332 38.7858 128.398 34.0338 145.011 39.4575C155.59 42.9092 162.429 49.3417 166.742 57.4439C167.654 56.2645 168.706 55.1694 169.881 54.1758C174.205 50.5318 180.178 48.2747 186.774 48.2747H192.969C199.564 48.2747 205.536 46.0174 209.86 42.3735C214.183 38.7274 216.857 33.6903 216.857 28.1283C216.857 17.0043 206.16 7.98633 192.971 7.98633H192.969ZM91.3563 39.747H78.3855V37.6302L86.3257 26.1908H78.3423V23.0912H91.2786V25.1518L83.3967 36.6582H91.3563V39.747ZM104.763 32.0768H95.8599V30.6231L101.31 22.7715H95.8297V20.6439H104.707V22.0566L99.2987 29.9535H104.763V32.0746V32.0768ZM114.926 25.0633H108.924V24.0826L112.598 18.7885H108.902V17.3542H114.89V18.3068L111.243 23.6355H114.926V25.0655V25.0633Z" fill="url(#paint2_linear_1499_19780)"/>
<path d="M184.36 80.6033C191.527 80.6033 197.337 74.708 197.337 67.4359C197.337 60.1638 191.527 54.2686 184.36 54.2686C177.192 54.2686 171.382 60.1638 171.382 67.4359C171.382 74.708 177.192 80.6033 184.36 80.6033Z" fill="url(#paint3_linear_1499_19780)"/>
<path d="M30.1595 161.558C23.1201 161.411 17.4565 155.573 17.4565 148.395C17.4565 142.965 20.6965 138.301 25.3189 136.288C25.2045 137.614 25.1483 138.958 25.1483 140.314C25.1483 147.95 26.9519 155.164 30.1595 161.556V161.558Z" fill="url(#paint4_linear_1499_19780)"/>
<path d="M192.559 140.317C192.559 153.423 187.246 165.286 178.662 173.872C170.644 181.888 159.771 187.05 147.703 187.703L145.588 198.302C144.75 202.509 139.793 204.378 136.386 201.771L118.385 188.001C118.288 187.925 118.191 187.849 118.1 187.772H72.6039C46.3944 187.772 25.1465 166.526 25.1465 140.314C25.1465 127.207 30.4601 115.347 39.0439 106.761C47.6342 98.1728 59.4991 92.8613 72.6017 92.8613H73.2821C75.7812 93.6065 78.4488 94.0104 81.2201 94.0104C83.082 94.0104 84.8942 93.8268 86.6439 93.4812C87.8016 93.8096 89.1192 93.9932 90.6226 94.0083C110.043 94.2394 146.882 88.9452 152.755 100.46C158.626 111.977 156.297 130.903 142.074 141.289C139.337 143.289 136.942 144.392 134.814 144.859C128.913 146.153 125.059 142.552 121.614 139.537C119.843 137.988 118.18 136.593 116.406 136.098C109.929 134.29 103.915 151 124.236 158.225C144.558 165.45 168.72 148.291 171.653 119.388C172.208 113.913 172.789 108.031 173.139 102.024C184.915 110.658 192.562 124.594 192.562 140.317H192.559Z" fill="url(#paint5_linear_1499_19780)"/>
<path d="M73.0095 147.717C77.0965 147.717 80.4097 144.404 80.4097 140.317C80.4097 136.23 77.0965 132.917 73.0095 132.917C68.9225 132.917 65.6094 136.23 65.6094 140.317C65.6094 144.404 68.9225 147.717 73.0095 147.717Z" fill="url(#paint6_linear_1499_19780)"/>
<path d="M100.992 147.717C105.079 147.717 108.393 144.404 108.393 140.317C108.393 136.23 105.079 132.917 100.992 132.917C96.9055 132.917 93.5923 136.23 93.5923 140.317C93.5923 144.404 96.9055 147.717 100.992 147.717Z" fill="url(#paint7_linear_1499_19780)"/>
<path d="M136.375 140.317C136.375 142.03 135.794 143.607 134.816 144.86C128.915 146.153 125.061 142.553 121.616 139.537C122.007 135.818 125.152 132.917 128.975 132.917C133.06 132.917 136.375 136.23 136.375 140.317Z" fill="url(#paint8_linear_1499_19780)"/>
<path d="M68.1757 179.981C68.1282 179.981 68.0785 179.974 68.0288 179.963C59.9504 178.095 53.0557 174.92 47.5347 170.522C43.1089 166.997 39.5557 162.685 36.9723 157.709C32.5746 149.235 32.5249 141.869 32.5249 141.561C32.5249 141.202 32.8143 140.913 33.1729 140.913C33.5315 140.913 33.8209 141.202 33.8209 141.561C33.8209 141.634 33.8792 148.967 38.1517 157.167C42.0851 164.718 50.5112 174.583 68.3204 178.7C68.6682 178.78 68.8863 179.127 68.8064 179.477C68.7373 179.777 68.4716 179.981 68.1757 179.981ZM108.855 180.81H76.5479C76.1893 180.81 75.8999 180.521 75.8999 180.162C75.8999 179.803 76.1893 179.514 76.5479 179.514H108.855C109.214 179.514 109.503 179.803 109.503 180.162C109.503 180.521 109.214 180.81 108.855 180.81ZM185.712 147.19C185.695 147.19 185.678 147.19 185.66 147.19C185.304 147.161 185.038 146.85 185.066 146.492C186.014 134.474 182.708 126.019 179.768 121.043C176.58 115.647 173.117 113.055 173.083 113.029C172.795 112.817 172.733 112.411 172.946 112.124C173.158 111.837 173.564 111.774 173.852 111.986C174.001 112.094 177.524 114.723 180.848 120.323C183.902 125.469 187.336 134.204 186.358 146.596C186.332 146.935 186.047 147.192 185.712 147.192V147.19Z" fill="#73B4F7"/>
<path d="M171.653 119.387C168.72 148.288 144.558 165.449 124.236 158.224C103.917 150.999 109.931 134.289 116.406 136.097C122.882 137.901 127.85 151.677 142.074 141.288C156.3 130.902 158.626 111.976 152.757 100.459C146.884 88.9444 110.045 94.2386 90.6247 94.0096C89.1235 93.9923 87.8038 93.8087 86.646 93.4826C98.1955 91.2038 106.851 81.7883 106.851 70.5153C106.851 66.3789 105.686 62.493 103.634 59.1148C104.006 56.4062 104.542 51.8162 104.557 47.9476C104.559 46.8503 104.522 45.8114 104.425 44.8912C114.333 38.787 128.401 34.0307 145.011 39.4545C178.204 50.2912 174.59 90.4823 171.655 119.387H171.653Z" fill="url(#paint9_linear_1499_19780)"/>
<g opacity="0.5">
<path d="M152.757 101.106C152.47 101.106 152.206 100.914 152.131 100.623C147.782 83.9583 142.987 77.8174 142.94 77.7591C142.717 77.4804 142.763 77.0722 143.041 76.8497C143.32 76.6272 143.728 76.6704 143.951 76.9491C144.154 77.2018 148.951 83.3124 153.383 100.296C153.474 100.642 153.267 100.996 152.921 101.087C152.867 101.102 152.811 101.109 152.757 101.109V101.106ZM112.486 86.2479C112.127 86.2479 111.838 85.9476 111.838 85.5912C111.838 85.4551 111.901 84.4615 113.14 78.3012C114.259 72.7435 120.115 72.2187 123.057 72.7198C123.409 72.7803 123.647 73.1151 123.588 73.4671C123.53 73.8192 123.193 74.0568 122.841 73.9985C122.539 73.9488 115.56 72.8494 114.41 78.5583C113.19 84.6192 113.134 85.5739 113.132 85.6107C113.132 85.9692 112.842 86.25 112.484 86.25L112.486 86.2479Z" fill="#575656"/>
<path d="M102.334 87.3456C102.036 87.3456 101.768 87.1382 101.701 86.8358C101.625 86.4859 101.846 86.1403 102.196 86.0647C102.319 86.0366 105.343 85.3951 114.749 84.9458C115.104 84.9307 115.41 85.205 115.428 85.5614C115.445 85.9178 115.168 86.2224 114.812 86.2397C105.513 86.6846 102.504 87.324 102.474 87.3305C102.427 87.3413 102.381 87.3456 102.336 87.3456H102.334ZM132.837 52.3687C132.736 52.3687 132.634 52.345 132.537 52.2953C132.22 52.129 132.096 51.738 132.263 51.4205C135.479 45.2796 144.912 40.6961 145.313 40.5038C145.635 40.3483 146.024 40.4844 146.177 40.8062C146.333 41.1281 146.197 41.5169 145.873 41.6702C145.778 41.7156 136.425 46.2624 133.41 52.0209C133.293 52.2413 133.068 52.3687 132.835 52.3687H132.837ZM144.592 51.617C144.495 51.617 144.398 51.5954 144.305 51.5501C143.985 51.3902 143.853 51.0014 144.013 50.6818L147.523 43.6056C147.683 43.2859 148.072 43.1541 148.391 43.314C148.711 43.4738 148.843 43.8626 148.683 44.1823L145.173 51.2585C145.061 51.4874 144.83 51.6192 144.592 51.6192V51.617Z" fill="#575656"/>
</g>
<path d="M106.85 70.5149C106.85 83.49 95.3762 94.0092 81.2239 94.0092C71.8689 94.0092 63.6847 89.4127 59.2157 82.5483C56.9174 79.0296 55.5977 74.9105 55.5977 70.5127C55.5977 65.0242 57.6518 59.9698 61.097 55.9716C60.5073 50.6407 60.0343 43.1023 61.8293 41.4456C63.6588 39.7565 69.9768 44.3897 74.2385 47.9019C76.4589 47.3273 78.8025 47.0184 81.2239 47.0184C84.3732 47.0184 87.3864 47.539 90.1706 48.4915C94.4085 44.9405 101.357 39.6615 103.293 41.4456C104.256 42.3355 104.567 44.9189 104.554 47.9451C104.541 51.8136 104.005 56.4036 103.632 59.1123C105.684 62.4883 106.848 66.3742 106.848 70.5106L106.85 70.5149Z" fill="url(#paint10_linear_1499_19780)"/>
<path d="M64.7326 52.9736C64.3525 53.222 63.8405 53.019 63.739 52.5762C63.2833 50.5847 62.3717 45.9407 63.59 45.2041C64.8255 44.4568 68.1497 47.6017 69.4717 48.9344C69.7633 49.2282 69.7114 49.712 69.3658 49.9388L64.7348 52.9736H64.7326Z" fill="url(#paint11_linear_1499_19780)"/>
<path d="M99.2988 54.8574C99.679 55.1058 100.191 54.9028 100.292 54.46C100.748 52.4685 101.66 47.8245 100.441 47.0879C99.206 46.3405 95.8817 49.4855 94.5598 50.8182C94.2682 51.112 94.32 51.5958 94.6656 51.8226L99.2967 54.8574H99.2988Z" fill="url(#paint12_linear_1499_19780)"/>
<path d="M72.2597 70.3292C72.0329 70.3292 71.8083 70.3119 71.5836 70.2752C69.9809 70.0138 68.5618 68.8021 68.052 67.2598C67.9397 66.9207 68.1233 66.5535 68.4646 66.4412C68.8037 66.3289 69.1709 66.5125 69.2832 66.8538C69.6461 67.9489 70.6527 68.8107 71.7932 68.9965C72.9315 69.1822 74.1605 68.6854 74.8517 67.7609C75.0655 67.4737 75.4716 67.4154 75.7589 67.6292C76.0462 67.843 76.1045 68.2491 75.8907 68.5364C75.0548 69.6553 73.6572 70.3292 72.2619 70.3292H72.2597ZM87.2047 70.3184C85.6042 70.3184 84.0274 69.3853 83.2649 67.9769C83.0943 67.6616 83.2109 67.2685 83.5263 67.0978C83.8416 66.9272 84.2347 67.0438 84.4054 67.3592C84.9562 68.3722 86.0988 69.0418 87.2544 69.0224C88.4079 69.0029 89.5311 68.2966 90.0452 67.2642C90.205 66.9445 90.5938 66.8149 90.9135 66.9747C91.2332 67.1346 91.3627 67.5233 91.2029 67.843C90.4771 69.2967 88.8982 70.2903 87.2739 70.3184C87.2501 70.3184 87.2264 70.3184 87.2026 70.3184H87.2047Z" fill="#575656"/>
<path d="M81.7858 80.3406C81.289 80.3406 80.654 80.2974 80.0838 79.995C79.3342 79.5975 78.8007 78.8026 78.6214 77.8198C78.4746 77.0185 78.5696 76.215 78.6538 75.5043C78.697 75.1479 79.0189 74.8952 79.3731 74.9384C79.7295 74.9816 79.9822 75.3034 79.939 75.6577C79.8613 76.3057 79.7814 76.9774 79.8937 77.5866C80.0017 78.1719 80.2998 78.645 80.6907 78.8523C81.0169 79.0251 81.4467 79.0446 81.8161 79.0467C82.2114 79.0467 82.7146 79.0165 83.1034 78.8091C83.4102 78.645 83.6175 78.3534 83.611 78.1006C83.6002 77.7421 83.8832 77.444 84.2418 77.4354C84.6111 77.4289 84.8984 77.7075 84.907 78.0661C84.9286 78.8156 84.4599 79.5586 83.7126 79.9561C83.0732 80.2974 82.3669 80.3427 81.8204 80.3449C81.8074 80.3449 81.7966 80.3449 81.7837 80.3449L81.7858 80.3406Z" fill="#575656"/>
<path d="M76.5993 80.3403C76.5864 80.3403 76.5756 80.3403 76.5626 80.3403C76.0183 80.3382 75.312 80.2928 74.6726 79.9515C73.9274 79.5541 73.4587 78.811 73.4781 78.0615C73.4889 77.703 73.7762 77.4243 74.1434 77.4308C74.502 77.4416 74.7828 77.7397 74.7741 78.0961C74.7676 78.351 74.975 78.6426 75.2817 78.8067C75.6705 79.0141 76.1738 79.0422 76.5691 79.0443C76.9492 79.0465 77.3683 79.0249 77.6944 78.8499C78.0854 78.6426 78.3835 78.1674 78.4915 77.5842C78.6038 76.9751 78.5239 76.3055 78.4461 75.6553C78.4029 75.2989 78.6578 74.977 79.012 74.936C79.3684 74.895 79.6903 75.1477 79.7313 75.5019C79.8156 76.2126 79.9106 77.0161 79.7637 77.8174C79.5823 78.8024 79.0488 79.5951 78.2992 79.9926C77.7312 80.295 77.0961 80.3382 76.5972 80.3382L76.5993 80.3403Z" fill="#575656"/>
<path d="M68.8273 74.5674C68.7927 74.5674 68.756 74.5652 68.7193 74.5587L61.993 73.4399C61.6409 73.3815 61.4012 73.0467 61.4595 72.6947C61.5178 72.3404 61.8505 72.1028 62.2047 72.1611L68.931 73.28C69.283 73.3383 69.5228 73.6731 69.4645 74.0252C69.4126 74.3427 69.1383 74.5674 68.8251 74.5674H68.8273ZM59.8028 78.8096C59.4918 78.8096 59.2174 78.585 59.1656 78.2696C59.1051 77.9175 59.3449 77.5827 59.697 77.5223C62.546 77.0427 65.4253 76.5006 68.2549 75.9109C68.6048 75.8375 68.9482 76.0621 69.0217 76.4142C69.0951 76.7641 68.8705 77.1075 68.5184 77.181C65.6737 77.7728 62.7771 78.3193 59.9108 78.801C59.8741 78.8075 59.8374 78.8096 59.8028 78.8096ZM93.4642 75.1635C93.1424 75.1635 92.8616 74.9216 92.8227 74.5933C92.7795 74.2391 93.0322 73.9151 93.3865 73.8719C95.486 73.6148 97.6028 73.28 99.6764 72.8761C100.028 72.807 100.368 73.0381 100.437 73.388C100.506 73.7401 100.277 74.0792 99.9248 74.1483C97.8209 74.5587 95.6739 74.8979 93.5441 75.1571C93.5182 75.1614 93.4901 75.1614 93.4642 75.1614V75.1635ZM100.916 80.6413C100.815 80.6413 100.713 80.6175 100.618 80.5679C99.6613 80.0711 98.6137 79.6779 97.5985 79.2978C96.2118 78.7772 94.7797 78.2415 93.4837 77.4143C93.1813 77.222 93.0927 76.8203 93.285 76.52C93.4772 76.2176 93.8789 76.1291 94.1792 76.3213C95.3585 77.0751 96.6675 77.5655 98.0521 78.0839C99.1018 78.477 100.188 78.8852 101.214 79.4187C101.532 79.5829 101.655 79.976 101.491 80.2935C101.376 80.516 101.15 80.6435 100.914 80.6435L100.916 80.6413Z" fill="#575656"/>
<path d="M79.8824 75.9476C79.6448 76.0578 79.3834 76.0988 79.1242 76.0643C78.271 75.9563 76.3659 75.5545 76.3357 74.0944C76.2947 72.2087 81.4182 72.0856 82.1137 73.4377C82.6667 74.5134 80.7097 75.561 79.8846 75.9476H79.8824Z" fill="#575656"/>
<path d="M83.3952 36.6576H91.357V39.7464H78.3862V37.6296L86.3242 26.1924H78.3408V23.0928H91.2771V25.1513L83.3974 36.6576H83.3952Z" fill="url(#paint13_linear_1499_19780)"/>
<path d="M99.2971 29.9553H104.762V32.0743H95.8584V30.6228L101.308 22.7712H95.8281V20.6436H104.708V22.0562L99.2992 29.9553H99.2971Z" fill="url(#paint14_linear_1499_19780)"/>
<path d="M111.242 23.6307H114.927V25.0606H108.922V24.08L112.597 18.7858H108.901V17.3516H114.891V18.3041L111.242 23.6307Z" fill="url(#paint15_linear_1499_19780)"/>
</g>
<defs>
<linearGradient id="paint0_linear_1499_19780" x1="108.855" y1="35.3928" x2="108.855" y2="233.175" gradientUnits="userSpaceOnUse">
<stop stop-color="#73B4F7" stop-opacity="0.1"/>
<stop offset="1" stop-color="#73B4F7" stop-opacity="0.25"/>
</linearGradient>
<linearGradient id="paint1_linear_1499_19780" x1="194.998" y1="35.3927" x2="194.998" y2="233.175" gradientUnits="userSpaceOnUse">
<stop stop-color="#73B4F7" stop-opacity="0.1"/>
<stop offset="1" stop-color="#73B4F7" stop-opacity="0.25"/>
</linearGradient>
<linearGradient id="paint2_linear_1499_19780" x1="108.854" y1="35.3924" x2="108.854" y2="233.175" gradientUnits="userSpaceOnUse">
<stop stop-color="#73B4F7" stop-opacity="0.1"/>
<stop offset="1" stop-color="#73B4F7" stop-opacity="0.25"/>
</linearGradient>
<linearGradient id="paint3_linear_1499_19780" x1="184.36" y1="35.3923" x2="184.36" y2="233.175" gradientUnits="userSpaceOnUse">
<stop stop-color="#73B4F7" stop-opacity="0.1"/>
<stop offset="1" stop-color="#73B4F7" stop-opacity="0.25"/>
</linearGradient>
<linearGradient id="paint4_linear_1499_19780" x1="23.8091" y1="35.3923" x2="23.8091" y2="233.175" gradientUnits="userSpaceOnUse">
<stop stop-color="#73B4F7" stop-opacity="0.1"/>
<stop offset="1" stop-color="#73B4F7" stop-opacity="0.25"/>
</linearGradient>
<linearGradient id="paint5_linear_1499_19780" x1="108.855" y1="132.013" x2="108.855" y2="208.406" gradientUnits="userSpaceOnUse">
<stop stop-color="#73B4F7" stop-opacity="0.5"/>
<stop offset="1" stop-color="#73B4F7"/>
</linearGradient>
<linearGradient id="paint6_linear_1499_19780" x1="73.0095" y1="136.371" x2="73.0095" y2="146.795" gradientUnits="userSpaceOnUse">
<stop stop-color="#73B4F7" stop-opacity="0.5"/>
<stop offset="1" stop-color="#73B4F7" stop-opacity="0.8"/>
</linearGradient>
<linearGradient id="paint7_linear_1499_19780" x1="100.992" y1="136.371" x2="100.992" y2="146.795" gradientUnits="userSpaceOnUse">
<stop stop-color="#73B4F7" stop-opacity="0.5"/>
<stop offset="1" stop-color="#73B4F7" stop-opacity="0.8"/>
</linearGradient>
<linearGradient id="paint8_linear_1499_19780" x1="128.995" y1="136.371" x2="128.995" y2="146.795" gradientUnits="userSpaceOnUse">
<stop stop-color="#73B4F7" stop-opacity="0.5"/>
<stop offset="1" stop-color="#73B4F7"/>
</linearGradient>
<linearGradient id="paint9_linear_1499_19780" x1="135.116" y1="98.9085" x2="84.8208" y2="88.9811" gradientUnits="userSpaceOnUse">
<stop stop-color="#899DB3" stop-opacity="0.25"/>
<stop offset="1" stop-color="#899DB3" stop-opacity="0.5"/>
</linearGradient>
<linearGradient id="paint10_linear_1499_19780" x1="82.6344" y1="61.7777" x2="76.6771" y2="98.6705" gradientUnits="userSpaceOnUse">
<stop stop-color="#899DB3" stop-opacity="0.25"/>
<stop offset="1" stop-color="#899DB3" stop-opacity="0.5"/>
</linearGradient>
<linearGradient id="paint11_linear_1499_19780" x1="66.3202" y1="51.993" x2="66.3202" y2="39.7436" gradientUnits="userSpaceOnUse">
<stop stop-color="#899DB3" stop-opacity="0.5"/>
<stop offset="1" stop-color="#899DB3"/>
</linearGradient>
<linearGradient id="paint12_linear_1499_19780" x1="97.7112" y1="51.9933" x2="97.7112" y2="39.7439" gradientUnits="userSpaceOnUse">
<stop stop-color="#899DB3" stop-opacity="0.5"/>
<stop offset="1" stop-color="#899DB3"/>
</linearGradient>
<linearGradient id="paint13_linear_1499_19780" x1="123.187" y1="14.604" x2="60.3156" y2="42.1785" gradientUnits="userSpaceOnUse">
<stop stop-color="#575656" stop-opacity="0.5"/>
<stop offset="1" stop-color="#575656"/>
</linearGradient>
<linearGradient id="paint14_linear_1499_19780" x1="123.817" y1="16.0428" x2="60.9463" y2="43.6173" gradientUnits="userSpaceOnUse">
<stop stop-color="#575656" stop-opacity="0.5"/>
<stop offset="1" stop-color="#575656"/>
</linearGradient>
<linearGradient id="paint15_linear_1499_19780" x1="123.796" y1="15.9929" x2="60.9273" y2="43.5675" gradientUnits="userSpaceOnUse">
<stop stop-color="#575656" stop-opacity="0.5"/>
<stop offset="1" stop-color="#575656"/>
</linearGradient>
<clipPath id="clip0_1499_19780">
<rect width="216" height="216" fill="white" transform="translate(0.854492 0.708984)"/>
</clipPath>
</defs>
</svg>
