<svg width="218" height="218" viewBox="0 0 218 218" fill="none" xmlns="http://www.w3.org/2000/svg">
<path opacity="0.75" d="M60.873 167.133C58.0021 168.989 55.83 170.475 53.4104 172.463C51.3576 174.149 47.7358 175.204 44.1358 175.861C38.2812 169.008 38.5936 158.683 45.0776 152.202C45.7807 151.499 46.5337 150.861 47.317 150.312C48.5583 152.72 49.9926 155.055 51.6245 157.295C52.2343 158.132 52.8722 158.957 53.5384 159.771C53.5384 159.771 53.5406 159.771 53.5406 159.773C53.6795 159.942 53.8205 160.111 53.9594 160.278C54.2415 160.615 54.528 160.945 54.8209 161.274C54.8231 161.277 54.8209 161.277 54.8209 161.277C55.1117 161.604 55.4068 161.934 55.7106 162.257C55.8625 162.42 56.0166 162.583 56.1663 162.743C56.4723 163.065 56.7804 163.384 57.0972 163.698H57.0994C58.3146 164.913 59.5754 166.059 60.8709 167.133H60.873Z" fill="#73B4F7"/>
<path d="M43.9659 176.332L43.8032 176.141C40.891 172.731 39.3785 168.374 39.5434 163.874C39.7105 159.349 41.5659 155.094 44.7666 151.893C45.4979 151.162 46.2704 150.508 47.0647 149.953L47.7482 149.476V150.207C48.9808 152.585 50.4021 154.883 51.9732 157.038C52.5309 157.806 53.1255 158.577 53.7418 159.334H53.9696V159.614C54.0781 159.742 54.1844 159.87 54.2908 159.998C54.562 160.321 54.8398 160.642 55.1349 160.974L55.3302 161.17L55.3237 161.187C55.5841 161.478 55.8098 161.725 56.0246 161.957C56.1765 162.12 56.3284 162.283 56.4803 162.444C56.7646 162.743 57.0271 163.012 57.2745 163.262L57.4047 163.39C58.5982 164.583 59.8568 165.731 61.148 166.797L61.6037 167.174L61.1067 167.495C58.2185 169.361 56.0788 170.828 53.6832 172.797C51.8539 174.298 48.6661 175.472 44.2111 176.286L43.9659 176.332ZM47.1623 150.958C46.5504 151.418 45.9536 151.936 45.3829 152.509C39.2028 158.687 38.7492 168.687 44.3044 175.388C48.4817 174.604 51.4524 173.508 53.1342 172.128C55.4213 170.247 57.4742 168.823 60.1433 167.089C59.0257 166.143 57.9364 165.143 56.8926 164.104L56.7928 164.006C56.502 163.717 56.1939 163.4 55.8532 163.042C55.6991 162.88 55.545 162.717 55.3931 162.552C55.124 162.266 54.8398 161.951 54.4969 161.565L53.8568 160.842H53.8698C53.7895 160.747 53.707 160.651 53.6267 160.556C53.5291 160.438 53.4314 160.321 53.3338 160.202L53.2036 160.043C53.1776 160.011 53.1493 159.978 53.1233 159.946L53.1059 159.926C52.468 159.143 51.8517 158.344 51.2723 157.548C49.7533 155.463 48.371 153.247 47.1623 150.956V150.958Z" fill="#73B4F7"/>
<path opacity="0.5" d="M146.093 75.4809C120.442 49.8294 92.9999 35.6723 84.8016 43.8727C84.0269 44.6474 83.4519 45.5957 83.0678 46.698L82.8963 47.2492L76.1021 68.921L57.0929 87.9302C46.6313 98.3918 41.4081 112.111 41.3994 125.81C41.3929 134.225 43.3698 142.64 47.317 150.311C48.5583 152.72 49.9926 155.055 51.6245 157.294C52.2342 158.132 52.8722 158.956 53.5384 159.77C53.5384 159.77 53.5406 159.77 53.5406 159.772C53.6795 159.942 53.8205 160.111 53.9594 160.278C54.2437 160.614 54.5301 160.944 54.8209 161.274C54.8231 161.276 54.8209 161.276 54.8209 161.276C55.1138 161.606 55.4089 161.934 55.7106 162.257C55.8625 162.42 56.0165 162.583 56.1663 162.743C56.4744 163.064 56.7847 163.383 57.0994 163.698C58.3146 164.913 59.5754 166.059 60.8708 167.133C63.9262 165.158 67.7736 162.767 73.561 158.909C84.7994 151.418 97.9974 144.459 106.736 153.735C115.475 163.01 122.696 168.04 128.271 166.15C130.027 165.555 131.55 164.674 132.813 163.744L137.083 159.473L137.086 159.471L150.301 146.253H150.303L174.392 138.665L174.431 138.652C175.727 138.274 176.823 137.654 177.701 136.775C185.895 128.579 171.745 101.137 146.091 75.4831L146.093 75.4809ZM173.973 132.539C169.929 136.358 154.83 127.233 137.433 111.227C133.069 107.213 128.557 102.762 124.044 97.9795C119.528 93.1946 115.349 88.4337 111.597 83.8419C96.6259 65.5467 88.3973 49.9444 92.4422 46.1273C97.5026 41.3512 119.858 56.8254 142.37 80.6868C164.885 104.55 179.034 127.765 173.973 132.539Z" fill="#73B4F7"/>
<path d="M60.8389 167.669L60.5937 167.467C59.283 166.382 58.0049 165.219 56.7919 164.004C56.4816 163.693 56.1647 163.37 55.8523 163.042C55.6982 162.88 55.5441 162.715 55.3922 162.552C55.0949 162.231 54.7933 161.899 54.496 161.565L53.8559 160.842H53.871C53.7908 160.747 53.7083 160.653 53.628 160.558C53.5282 160.438 53.4305 160.321 53.3329 160.204L53.2027 160.046C53.1766 160.013 53.1506 159.981 53.1224 159.948L53.105 159.928C52.4671 159.145 51.8508 158.346 51.2714 157.55C49.6547 155.33 48.1922 152.963 46.9292 150.513L46.8815 150.417C43.0037 142.844 40.9574 134.338 40.9639 125.81C40.9704 111.379 46.5885 97.8165 56.7832 87.624L75.7164 68.6908L82.6518 46.5676C83.0662 45.3806 83.6825 44.3759 84.4941 43.5665C88.6041 39.4565 97.3427 40.5329 109.102 46.598C120.716 52.5872 133.961 62.7363 146.4 75.1747C158.838 87.6132 168.987 100.859 174.979 112.475C181.042 124.232 182.12 132.971 178.012 137.081C177.097 137.996 175.938 138.662 174.569 139.064L174.54 139.075L150.536 146.637L137.525 159.651V159.905H137.268L133.074 164.093C131.587 165.186 130.021 166.017 128.415 166.56C125.59 167.519 122.337 166.844 118.47 164.501C115.043 162.422 111.103 158.998 106.424 154.033C98.0067 145.099 85.2102 151.667 73.8047 159.271C69.6318 162.053 66.444 164.086 63.8813 165.722C62.8787 166.362 61.963 166.948 61.108 167.5L60.8411 167.673L60.8389 167.669ZM55.3228 161.189C55.5571 161.45 55.7915 161.708 56.0259 161.96C56.1756 162.122 56.3297 162.285 56.4794 162.443C56.7875 162.765 57.1 163.084 57.4038 163.39C58.5235 164.509 59.6975 165.586 60.9018 166.595C61.6809 166.093 62.5098 165.564 63.4104 164.989C65.9688 163.355 69.1522 161.324 73.3186 158.548C85.0257 150.745 98.1889 144.033 107.051 153.438C116.528 163.494 123.224 167.402 128.131 165.74C129.641 165.228 131.121 164.446 132.527 163.416L150.119 145.821H150.234L174.308 138.235C175.541 137.875 176.578 137.28 177.392 136.469C179.293 134.565 179.968 131.519 179.395 127.409C178.828 123.351 177.081 118.462 174.202 112.876C168.252 101.338 158.159 88.1687 145.781 75.791C133.404 63.4133 120.236 53.3207 108.698 47.3705C103.113 44.4888 98.2237 42.7419 94.1658 42.1777C90.0558 41.6048 87.0069 42.2797 85.1039 44.1828C84.3878 44.9011 83.8387 45.7951 83.472 46.8432L83.3049 47.3814L76.4781 69.1552L76.4022 69.2311L57.393 88.2403C47.3632 98.2701 41.8341 111.613 41.8275 125.814C41.821 134.238 43.85 142.642 47.6974 150.118L47.7451 150.213C48.9777 152.592 50.399 154.89 51.9701 157.045C52.5278 157.813 53.1224 158.583 53.7387 159.34H53.9665V159.62C54.075 159.748 54.1814 159.876 54.2877 160.004C54.5654 160.332 54.8475 160.658 55.1318 160.981L55.3271 161.176L55.3206 161.194L55.3228 161.189Z" fill="#73B4F7"/>
<path d="M171.383 133.826C168.829 133.826 165.145 132.435 160.488 129.69C153.88 125.794 145.806 119.521 137.137 111.544C132.673 107.438 128.161 102.975 123.726 98.2745C119.282 93.5656 115.087 88.8003 111.259 84.1131C103.801 74.9969 98.0049 66.573 94.5004 59.7505C90.8418 52.6264 90.0258 47.8068 92.1416 45.8083C95.4899 42.6487 104.302 47.5985 111.105 52.3074C120.56 58.8521 131.774 68.8233 142.683 80.385C153.592 91.9468 162.897 103.723 168.881 113.54C173.187 120.606 177.618 129.69 174.27 132.849C173.582 133.498 172.614 133.821 171.383 133.821V133.826ZM95.0537 45.6867C94.0534 45.6867 93.2743 45.9363 92.7383 46.4419C90.9589 48.1215 91.8595 52.7067 95.2729 59.3556C98.7492 66.1238 104.511 74.4957 111.932 83.5663C115.747 88.2361 119.928 92.9862 124.357 97.6799C128.78 102.365 133.276 106.813 137.725 110.906C146.35 118.842 154.373 125.078 160.928 128.943C167.367 132.738 171.893 133.902 173.673 132.222C175.923 130.1 173.905 123.457 168.139 113.996C162.185 104.227 152.921 92.5045 142.052 80.984C131.184 69.4656 120.017 59.5357 110.61 53.0235C103.675 48.2235 98.2415 45.6867 95.0516 45.6867H95.0537Z" fill="#73B4F7"/>
<path opacity="0.75" d="M173.973 132.539C169.928 136.356 154.83 127.233 137.433 111.225C142.001 107.773 144.954 102.287 144.954 96.1178C144.954 85.6584 136.476 77.1802 126.016 77.1802C120.24 77.1802 115.071 79.7646 111.597 83.8421C96.6258 65.5468 88.395 49.9445 92.4399 46.1275C97.5003 41.3535 119.856 56.8256 142.369 80.6891C164.883 104.55 179.034 127.765 173.973 132.541V132.539Z" fill="#73B4F7"/>
<path d="M98.0213 106.002C97.9063 106.002 97.7935 105.957 97.7088 105.87C87.6704 95.4256 82.2172 85.9687 79.4092 79.8754C76.3582 73.2504 75.6985 69.1577 75.6703 68.9863C75.6334 68.7498 75.7962 68.5284 76.0327 68.4915C76.2714 68.4547 76.4906 68.6174 76.5296 68.8539C76.5361 68.8952 77.2067 73.029 80.2186 79.5542C82.9984 85.5781 88.3974 94.9286 98.336 105.269C98.5009 105.442 98.4965 105.716 98.3229 105.883C98.2383 105.963 98.1298 106.004 98.0213 106.004V106.002ZM116.787 125.552C116.679 125.552 116.568 125.51 116.486 125.428L101.435 110.778C101.263 110.611 101.259 110.336 101.426 110.164C101.593 109.993 101.869 109.988 102.04 110.156L117.091 124.805C117.263 124.972 117.267 125.248 117.1 125.419C117.015 125.506 116.902 125.552 116.79 125.552H116.787ZM146.892 148.226C146.805 148.226 146.72 148.2 146.644 148.148L134.33 139.546C134.132 139.409 134.085 139.138 134.223 138.941C134.36 138.743 134.631 138.695 134.829 138.834L147.144 147.436C147.341 147.573 147.389 147.844 147.25 148.042C147.165 148.163 147.031 148.226 146.894 148.226H146.892ZM71.8272 110.889C71.7057 110.889 71.582 110.837 71.4974 110.737C63.5053 101.382 60.8731 90.3348 60.8492 90.2241C60.795 89.9897 60.9404 89.7575 61.1747 89.7033C61.4047 89.649 61.6413 89.7944 61.6955 90.0288C61.7215 90.1373 64.3104 100.987 72.1593 110.175C72.3155 110.357 72.2938 110.631 72.1115 110.787C72.029 110.856 71.9292 110.891 71.8294 110.891L71.8272 110.889ZM61.2702 100.725C61.0944 100.725 60.9273 100.616 60.8622 100.44L58.9071 95.163C58.8246 94.9373 58.9396 94.6878 59.1631 94.6053C59.3866 94.5229 59.6383 94.6379 59.7208 94.8614L61.676 100.139C61.7584 100.365 61.6434 100.614 61.4199 100.697C61.37 100.714 61.3201 100.723 61.2702 100.723V100.725ZM59.3172 102.094C59.1675 102.094 59.0221 102.018 58.9418 101.879L56.596 97.8712C56.4745 97.665 56.5439 97.3981 56.7501 97.2766C56.9584 97.1551 57.2231 97.2245 57.3447 97.4328L59.6904 101.441C59.812 101.647 59.7425 101.914 59.5364 102.035C59.4669 102.077 59.391 102.094 59.3172 102.094Z" fill="#73B4F7"/>
<path opacity="0.25" d="M144.953 96.1173C144.953 102.289 142 107.772 137.432 111.225C133.068 107.21 128.559 102.762 124.043 97.977C119.529 93.1921 115.348 88.4311 111.596 83.8416C115.07 79.7663 120.239 77.1797 126.015 77.1797C136.475 77.1797 144.953 85.6579 144.953 96.1173Z" fill="#73B4F7"/>
<path d="M137.403 111.791L137.137 111.546C132.664 107.432 128.151 102.966 123.726 98.2766C119.28 93.5634 115.085 88.8002 111.259 84.1174L111.029 83.8374L111.264 83.5618C114.953 79.2327 120.33 76.748 126.013 76.748C136.694 76.748 145.385 85.4367 145.385 96.1196C145.385 102.246 142.581 107.879 137.692 111.574L137.403 111.794V111.791ZM112.164 83.8505C115.916 88.427 120.017 93.0773 124.36 97.6799C128.682 102.261 133.087 106.627 137.458 110.659C141.952 107.128 144.519 101.848 144.519 96.1175C144.519 85.9141 136.219 77.6139 126.015 77.6139C120.707 77.6139 115.68 79.8815 112.164 83.8483V83.8505Z" fill="#73B4F7"/>
<path opacity="0.25" d="M152.948 192.415C150.629 191.098 148.433 189.364 147.083 187.022C145.779 184.759 145.204 181.884 146.128 179.373C147.083 176.78 149.331 174.985 151.577 173.525C152.347 173.024 153.139 172.564 153.946 172.134C151.52 170.884 149.611 169.333 147.942 167.108C144.73 162.829 137.088 159.466 137.088 159.466C137.088 159.466 137.088 159.468 137.086 159.468C137.018 159.568 135.504 161.762 132.815 163.738C131.552 164.667 130.031 165.55 128.273 166.145C122.698 168.035 115.477 163.005 106.738 153.73C97.9995 144.456 84.7994 151.413 73.5632 158.904C72.4543 159.641 71.4192 160.327 70.4449 160.965C70.2409 161.31 70.0695 161.675 69.9458 162.059C69.5942 163.148 69.6333 164.287 69.9631 165.379C70.6879 167.777 72.6192 169.465 74.8153 170.526C77.174 171.665 79.8388 172.212 82.3972 172.687C84.9991 173.169 87.6226 173.49 90.2483 173.781C95.6104 174.369 101.033 174.821 106.265 176.212C108.843 176.899 111.369 177.826 113.734 179.067C115.813 180.159 117.857 181.745 118.73 183.998C119.17 185.141 119.181 186.447 118.779 187.602C118.352 188.841 117.547 189.904 116.64 190.837C114.828 192.695 112.682 194.285 110.505 195.687C107.752 197.46 104.805 198.914 101.756 200.114C110.803 200.105 120.607 199.91 129.747 199.214C137.478 198.625 152.61 198.194 166.96 197.645C164.855 197.141 162.774 196.54 160.726 195.826C158.061 194.895 155.405 193.81 152.946 192.415H152.948ZM57.171 193.029C58.8072 192.304 60.4498 191.449 61.7193 190.167C62.7522 189.123 63.7027 187.637 63.3468 186.102C62.9909 184.568 61.5652 183.622 60.133 183.205C59.1956 182.93 58.2213 182.824 57.2534 182.726C56.2704 182.628 55.2918 182.511 54.3218 182.35C52.3753 182.029 50.457 181.55 48.5865 180.923C46.8005 180.324 44.9604 179.64 43.3307 178.688C42.556 178.236 41.8529 177.676 41.3148 176.958C41.1672 176.765 41.0414 176.559 40.935 176.35C37.0399 176.847 33.774 176.923 33.4312 176.921C10.9587 176.741 13.1004 183.698 23.8007 184.412C34.5032 185.124 47.8812 187.621 33.7914 188.691C19.7016 189.763 13.4585 191.903 21.8412 195.29C24.2955 196.282 29.4297 197.076 35.7748 197.708C41.1499 197.061 46.5076 196.249 51.733 194.865C53.5818 194.377 55.4241 193.806 57.1731 193.027L57.171 193.029Z" fill="#73B4F7"/>
<path opacity="0.25" d="M113.044 192.159C114.051 191.356 115.047 190.514 115.919 189.568C116.715 188.704 117.416 187.687 117.627 186.506C118.011 184.321 116.359 182.453 114.652 181.257C112.588 179.814 110.14 178.861 107.753 178.104C105.214 177.299 102.597 176.759 99.9695 176.346C94.6573 175.517 89.2801 175.207 83.9701 174.369C81.3552 173.957 78.71 173.456 76.2015 172.59C73.706 171.728 71.3277 170.394 69.7935 168.185C68.5848 166.447 68.0336 164.301 68.4633 162.261C65.3406 164.288 62.9254 165.804 60.8726 167.132C58.0017 168.988 55.8295 170.474 53.41 172.462C51.3571 174.148 47.7354 175.203 44.1354 175.86C43.5668 175.962 43.0005 176.058 42.4428 176.142C42.7162 176.515 43.0612 176.834 43.4366 177.099C44.118 177.581 44.8754 177.941 45.6349 178.282C46.5354 178.688 47.4555 179.05 48.3864 179.38C50.2461 180.037 52.1579 180.547 54.0979 180.901C55.0244 181.07 55.9554 181.196 56.895 181.294C57.9084 181.396 58.9304 181.485 59.9265 181.708C61.6082 182.088 63.2683 182.958 64.1818 184.475C66.2108 187.847 63.0903 191.356 60.3041 192.994C56.8624 195.021 52.9326 196.093 49.0591 196.948C46.7047 197.469 44.3329 197.89 41.9502 198.246C56.5934 199.368 74.6044 199.819 82.3057 199.93C86.765 199.993 91.9969 200.079 97.6324 200.108C98.2725 199.904 98.9062 199.687 99.5398 199.461C104.368 197.734 109.031 195.375 113.046 192.161L113.044 192.159ZM186.29 185.126C177.015 181.381 169.169 177.099 162.212 175.138C159.629 174.408 157.442 173.705 155.548 172.889H155.545C153.918 173.69 152.351 174.612 150.882 175.704C148.953 177.138 147.245 179.061 147.091 181.541C146.941 183.967 147.992 186.348 149.626 188.123C151.375 190.022 153.653 191.308 155.966 192.391C158.486 193.574 161.103 194.546 163.767 195.342C166.76 196.236 169.811 196.905 172.888 197.408C186.626 196.829 198.507 196.093 200.738 194.934C205.553 192.439 195.567 188.871 186.29 185.124V185.126Z" fill="#73B4F7"/>
<path d="M99.4637 200.553L101.599 199.713C104.763 198.469 107.679 196.992 110.272 195.325C112.787 193.704 114.769 192.137 116.331 190.536C117.351 189.49 118.017 188.485 118.371 187.463C118.742 186.398 118.727 185.193 118.327 184.156C117.624 182.338 116.012 180.756 113.536 179.454C111.344 178.304 108.86 177.355 106.156 176.635C101.645 175.435 96.9096 174.931 92.3287 174.443C91.6191 174.367 90.9117 174.293 90.2043 174.215C87.6827 173.935 84.9832 173.61 82.3207 173.117C79.7384 172.638 77.0172 172.073 74.628 170.921C72.7878 170.034 70.4139 168.374 69.548 165.509C69.1791 164.283 69.1748 163.044 69.535 161.929C69.663 161.527 69.8453 161.13 70.0732 160.746L70.1253 160.659L70.2099 160.605C71.182 159.967 72.2171 159.283 73.326 158.546C85.0332 150.742 98.1964 144.031 107.059 153.435C116.535 163.491 123.232 167.399 128.138 165.735C129.659 165.221 131.146 164.433 132.56 163.391C134.893 161.677 136.33 159.785 136.657 159.329V158.802L137.267 159.069C137.584 159.208 145.051 162.528 148.293 166.848C149.886 168.97 151.693 170.481 154.15 171.748L154.888 172.128L154.154 172.516C153.334 172.952 152.546 173.412 151.817 173.888C149.734 175.242 147.479 176.969 146.54 179.521C145.741 181.691 146.086 184.414 147.464 186.803C148.612 188.795 150.478 190.508 153.169 192.035C155.313 193.25 157.761 194.325 160.877 195.414C162.843 196.1 164.926 196.707 167.068 197.219L170.143 197.955L166.983 198.077C163.286 198.218 159.518 198.352 155.877 198.482C145.407 198.856 135.518 199.209 129.787 199.645C121.964 200.242 112.798 200.537 101.764 200.548H99.468L99.4637 200.553ZM70.7697 161.273C70.5983 161.575 70.4616 161.883 70.3618 162.193C70.0515 163.155 70.058 164.183 70.3813 165.257C71.156 167.82 73.3238 169.326 75.0078 170.138C77.3014 171.245 79.8512 171.774 82.4812 172.262C85.1156 172.751 87.7977 173.074 90.3019 173.352C91.0072 173.43 91.7146 173.503 92.4242 173.579C97.0376 174.07 101.807 174.578 106.384 175.795C109.151 176.533 111.694 177.505 113.944 178.685C116.611 180.087 118.36 181.821 119.141 183.844C119.614 185.07 119.634 186.493 119.195 187.747C118.798 188.893 118.067 190.004 116.956 191.141C115.35 192.788 113.319 194.396 110.748 196.054C108.673 197.389 106.395 198.604 103.951 199.676C113.994 199.63 122.444 199.337 129.72 198.782C135.468 198.343 145.366 197.99 155.847 197.617C158.531 197.521 161.28 197.423 164.021 197.321C162.847 196.987 161.701 196.623 160.59 196.236C157.424 195.13 154.929 194.034 152.739 192.793C149.912 191.185 147.939 189.368 146.711 187.24C145.207 184.629 144.838 181.632 145.726 179.224C146.752 176.433 149.144 174.593 151.346 173.163C151.887 172.811 152.455 172.468 153.043 172.139C150.841 170.895 149.096 169.365 147.601 167.371C144.86 163.719 138.704 160.696 137.237 160.01C136.723 160.698 135.299 162.458 133.077 164.09C131.591 165.184 130.024 166.015 128.418 166.557C125.593 167.516 122.34 166.842 118.473 164.498C115.046 162.419 111.106 158.995 106.427 154.03C98.0098 145.096 85.2133 151.665 73.8077 159.268C72.7314 159.987 71.7224 160.653 70.7719 161.276L70.7697 161.273ZM35.7785 198.146L35.7308 198.142C28.6891 197.441 23.9607 196.618 21.6757 195.694C18.7462 194.509 17.4637 193.435 17.6373 192.313C17.8283 191.085 19.7075 189.329 33.7561 188.259C37.8704 187.947 39.0313 187.55 39.3547 187.368C38.3326 186.593 31.6164 185.367 23.7719 184.844C18.8742 184.516 15.5064 182.895 15.5823 180.899C15.6886 178.047 22.3657 176.4 33.4349 176.487C33.8841 176.485 37.1239 176.398 40.8802 175.921L41.1818 175.882L41.3207 176.153C41.4205 176.351 41.5355 176.533 41.6592 176.696C42.1214 177.312 42.7377 177.841 43.5493 178.312C45.192 179.274 47.0885 179.964 48.7247 180.51C50.5801 181.133 52.4875 181.606 54.3928 181.921C55.2456 182.062 56.1678 182.179 57.2962 182.292C58.3573 182.398 59.31 182.511 60.2561 182.787C62.1418 183.336 63.4243 184.508 63.7693 186.003C64.2142 187.912 62.8688 189.62 62.0268 190.471C60.6597 191.853 58.8933 192.738 57.3461 193.424C55.8163 194.105 54.0673 194.696 51.8408 195.284C46.2075 196.777 40.5829 197.564 35.8241 198.137L35.7763 198.144L35.7785 198.146ZM32.5799 177.353C19.9505 177.353 16.4937 179.677 16.4481 180.934C16.4026 182.16 19.2106 183.672 23.8283 183.98C27.5607 184.228 31.6186 184.696 34.6805 185.23C40.2986 186.211 40.3029 186.975 40.3051 187.385C40.3073 188.016 39.8104 188.672 33.8212 189.127C19.9158 190.184 18.5747 191.935 18.4945 192.448C18.4597 192.673 18.6073 193.52 21.999 194.891C24.2016 195.781 28.8323 196.584 35.7677 197.274C40.4852 196.705 46.0556 195.924 51.6195 194.448C53.8004 193.871 55.5081 193.296 56.9946 192.634C58.468 191.983 60.1433 191.143 61.4105 189.863C62.1266 189.141 63.2724 187.706 62.923 186.202C62.5346 184.527 60.7574 183.841 60.0109 183.624C59.1364 183.368 58.225 183.262 57.2072 183.16C56.0615 183.045 55.1197 182.926 54.2474 182.782C52.2965 182.461 50.3435 181.975 48.4448 181.337C46.7652 180.775 44.8187 180.066 43.1088 179.065C42.1952 178.534 41.4943 177.93 40.9626 177.221C40.8672 177.095 40.7782 176.962 40.6936 176.819C37.0154 177.271 33.8667 177.353 33.4241 177.357C33.1376 177.355 32.8533 177.353 32.5756 177.353H32.5799Z" fill="#575656"/>
<path d="M97.6973 200.542H97.6278C92.8972 200.518 88.4422 200.453 84.5102 200.397L82.2968 200.364C79.9835 200.332 59.2036 200.004 41.9152 198.68L38.083 198.387L41.8827 197.819C44.4715 197.43 46.7869 197.009 48.9612 196.528C52.6893 195.705 56.6148 194.664 60.0803 192.624C61.7534 191.639 63.7324 189.842 64.2619 187.752C64.5331 186.682 64.3791 185.656 63.8062 184.701C62.795 183.022 60.8789 182.371 59.8286 182.134C58.9562 181.939 58.0362 181.848 57.1465 181.759L56.847 181.728C55.8184 181.622 54.894 181.492 54.0151 181.329C52.0643 180.973 50.12 180.454 48.2364 179.79C47.2534 179.441 46.316 179.068 45.4502 178.677C44.7406 178.358 43.9203 177.976 43.1803 177.453C42.7355 177.139 42.3688 176.783 42.0867 176.399L41.6635 175.819L42.3731 175.713C42.8939 175.635 43.4451 175.544 44.0527 175.433C48.3601 174.648 51.4133 173.534 53.1298 172.128C55.5558 170.134 57.7193 168.652 60.6336 166.768C61.4843 166.219 62.3957 165.638 63.3939 165C64.8 164.101 66.395 163.084 68.2243 161.897L69.101 161.328L68.884 162.35C68.4956 164.19 68.9556 166.226 70.1448 167.936C71.4381 169.8 73.4649 171.186 76.3379 172.178C78.9094 173.066 81.6696 173.567 84.0328 173.938C86.6997 174.359 89.4361 174.652 92.0791 174.934C94.6896 175.214 97.3869 175.503 100.032 175.915C103.083 176.392 105.577 176.956 107.881 177.688C109.947 178.343 112.609 179.3 114.897 180.899C116.279 181.865 118.525 183.887 118.052 186.578C117.859 187.672 117.264 188.744 116.236 189.859C115.309 190.864 114.237 191.756 113.31 192.496C109.576 195.486 104.991 197.964 99.6806 199.865C98.9949 200.11 98.3656 200.323 97.7602 200.518L97.6951 200.54L97.6973 200.542ZM45.6476 198.077C62.0572 199.182 80.1615 199.466 82.3098 199.496L84.5232 199.529C88.4335 199.585 92.8647 199.65 97.5649 199.674C98.1421 199.49 98.741 199.286 99.392 199.051C104.611 197.183 109.114 194.75 112.772 191.821C113.673 191.103 114.712 190.237 115.6 189.273C116.511 188.284 117.034 187.355 117.199 186.429C117.59 184.211 115.613 182.46 114.402 181.611C112.212 180.079 109.628 179.152 107.623 178.517C105.362 177.798 102.907 177.245 99.902 176.774C97.2806 176.364 94.592 176.078 91.9923 175.8C89.3362 175.516 86.5912 175.223 83.9026 174.797C81.5025 174.42 78.6946 173.91 76.0602 173.001C73.007 171.946 70.8392 170.453 69.4373 168.433C68.3154 166.82 67.7773 164.937 67.9053 163.14C66.4015 164.112 65.0648 164.965 63.8648 165.731C62.8687 166.367 61.9573 166.948 61.1089 167.497C58.2206 169.364 56.081 170.831 53.6853 172.799C51.856 174.3 48.6683 175.474 44.2133 176.288C43.8964 176.345 43.597 176.397 43.3062 176.444C43.4234 176.549 43.5514 176.648 43.6859 176.744C44.3608 177.221 45.1377 177.584 45.8104 177.885C46.6675 178.271 47.5572 178.625 48.5316 178.972C50.3695 179.621 52.2705 180.127 54.1757 180.474C55.0307 180.63 55.9356 180.758 56.9403 180.862L57.2354 180.893C58.1512 180.984 59.0973 181.079 60.0217 181.286C62.0702 181.748 63.6803 182.802 64.5527 184.252C65.2514 185.413 65.438 186.663 65.106 187.965C64.5093 190.313 62.3479 192.296 60.523 193.37C56.9533 195.471 52.9475 196.536 49.1522 197.374C48.0281 197.624 46.865 197.856 45.6476 198.077ZM172.86 197.845L172.816 197.838C169.518 197.3 166.517 196.619 163.641 195.76C160.849 194.924 158.206 193.924 155.779 192.787C153.772 191.847 151.222 190.499 149.304 188.421C147.475 186.431 146.509 183.916 146.657 181.52C146.796 179.287 148.13 177.215 150.621 175.362C152.036 174.311 153.583 173.376 155.352 172.506L155.443 172.46H155.634L155.719 172.495C157.413 173.224 159.453 173.912 162.329 174.724C166.662 175.945 171.412 178.096 176.444 180.37C179.628 181.811 182.92 183.299 186.452 184.725C187.262 185.053 188.078 185.378 188.887 185.702C197.235 189.037 202.313 191.222 202.419 193.422C202.456 194.154 201.955 194.794 200.935 195.321C198.993 196.328 190.348 197.107 172.903 197.843H172.86V197.845ZM155.56 173.369C153.911 174.192 152.464 175.071 151.14 176.056C148.862 177.751 147.644 179.606 147.523 181.572C147.39 183.733 148.271 186.016 149.942 187.833C151.756 189.803 154.213 191.096 156.148 192.001C158.533 193.121 161.139 194.106 163.889 194.928C166.716 195.773 169.667 196.443 172.912 196.975C183.653 196.521 198.175 195.777 200.536 194.551C201.228 194.191 201.571 193.826 201.553 193.464C201.464 191.66 194.612 188.922 188.566 186.507C187.754 186.183 186.938 185.856 186.127 185.528C182.579 184.096 179.278 182.603 176.086 181.158C171.087 178.896 166.363 176.759 162.094 175.555C159.282 174.76 157.255 174.081 155.56 173.367V173.369Z" fill="#575656"/>
<g opacity="0.5">
<path d="M116.64 190.84C117.55 189.909 118.353 188.844 118.78 187.605C119.184 186.45 119.171 185.144 118.73 184C117.86 181.748 115.814 180.164 113.735 179.07C111.37 177.829 108.841 176.902 106.266 176.214C101.034 174.821 95.6131 174.372 90.2489 173.784C87.6232 173.493 84.9975 173.172 82.3978 172.69C79.8394 172.215 77.1746 171.668 74.8159 170.529C72.6198 169.47 70.6864 167.782 69.9637 165.382C69.6361 164.29 69.5948 163.151 69.9464 162.061C70.0701 161.677 70.2393 161.311 70.4455 160.968C69.7533 161.421 69.0957 161.853 68.4643 162.261C68.0324 164.301 68.5858 166.447 69.7945 168.185C71.3287 170.394 73.707 171.729 76.2025 172.59C78.711 173.456 81.3562 173.957 83.9711 174.37C89.2832 175.207 94.6605 175.518 99.9705 176.347C102.601 176.759 105.218 177.299 107.754 178.104C110.141 178.862 112.589 179.814 114.653 181.257C116.363 182.453 118.014 184.321 117.628 186.507C117.417 187.687 116.716 188.705 115.92 189.568C115.048 190.517 114.049 191.356 113.045 192.159C109.03 195.373 104.367 197.732 99.5387 199.459C98.905 199.685 98.2714 199.902 97.6312 200.106C98.9832 200.112 100.361 200.115 101.754 200.115H101.756C104.805 198.915 107.75 197.461 110.506 195.688C112.68 194.286 114.828 192.695 116.64 190.838V190.84ZM60.3051 192.997C63.0892 191.359 66.2096 187.848 64.1829 184.478C63.2693 182.961 61.6092 182.091 59.9275 181.711C58.9315 181.487 57.9094 181.398 56.896 181.296C55.9586 181.199 55.0255 181.073 54.0989 180.904C52.1589 180.55 50.2471 180.04 48.3874 179.382C47.4565 179.053 46.5364 178.688 45.6359 178.284C44.8764 177.944 44.119 177.583 43.4377 177.102C43.0623 176.837 42.715 176.518 42.4438 176.145C41.9338 176.221 41.4304 176.292 40.9378 176.355C41.0441 176.566 41.17 176.77 41.3176 176.963C41.8557 177.683 42.5588 178.241 43.3335 178.692C44.9632 179.645 46.8033 180.329 48.5892 180.927C50.4598 181.555 52.3781 182.034 54.3246 182.355C55.2945 182.516 56.2732 182.633 57.2562 182.731C58.224 182.828 59.1984 182.935 60.1358 183.21C61.568 183.627 62.9937 184.573 63.3496 186.107C63.7055 187.639 62.755 189.128 61.7221 190.172C60.4526 191.454 58.8121 192.309 57.1738 193.034C55.4247 193.811 53.5824 194.381 51.7336 194.872C46.5082 196.256 41.1505 197.068 35.7754 197.715C37.7306 197.908 39.8072 198.088 41.9512 198.253C44.3339 197.897 46.7057 197.478 49.0601 196.955C52.9336 196.1 56.8634 195.026 60.3051 193.001V192.997ZM155.965 192.394C153.652 191.311 151.373 190.024 149.624 188.125C147.993 186.35 146.942 183.972 147.09 181.544C147.244 179.063 148.952 177.141 150.881 175.706C152.35 174.615 153.917 173.693 155.544 172.892C154.984 172.651 154.455 172.402 153.947 172.137C153.14 172.564 152.348 173.026 151.577 173.528C149.329 174.988 147.083 176.781 146.129 179.376C145.204 181.887 145.779 184.762 147.083 187.025C148.433 189.369 150.629 191.1 152.949 192.418C155.408 193.813 158.066 194.898 160.728 195.829C162.775 196.543 164.858 197.144 166.963 197.647H166.967C168.963 197.571 170.943 197.491 172.887 197.411C169.808 196.907 166.759 196.239 163.766 195.345C161.102 194.549 158.485 193.579 155.965 192.394Z" fill="#73B4F7"/>
</g>
<path d="M101.84 200.551H101.757C100.36 200.551 98.9819 200.548 97.6278 200.542L94.8936 200.527L97.4977 199.693C98.0944 199.502 98.715 199.292 99.3921 199.051C104.611 197.183 109.114 194.75 112.772 191.821C113.673 191.102 114.712 190.237 115.6 189.273C116.511 188.284 117.034 187.355 117.199 186.428C117.59 184.21 115.613 182.459 114.402 181.611C112.212 180.079 109.628 179.152 107.623 178.516C105.362 177.798 102.907 177.245 99.902 176.774C97.2807 176.364 94.592 176.077 91.9924 175.8C89.3363 175.515 86.5912 175.222 83.9026 174.797C81.5026 174.419 78.6946 173.909 76.0602 173C73.007 171.946 70.8392 170.453 69.4374 168.432C68.1115 166.527 67.6016 164.244 68.0399 162.172L68.0768 161.994L68.2287 161.896C68.858 161.488 69.5177 161.059 70.2077 160.605L71.781 159.572L70.8197 161.189C70.6244 161.517 70.4703 161.855 70.3618 162.194C70.0515 163.155 70.058 164.184 70.3813 165.258C71.156 167.82 73.3238 169.326 75.0078 170.138C77.3015 171.245 79.8512 171.774 82.4813 172.262C85.1156 172.751 87.7977 173.074 90.3019 173.352C91.0072 173.43 91.7146 173.504 92.4242 173.58C97.0376 174.07 101.807 174.578 106.384 175.795C109.151 176.533 111.694 177.505 113.944 178.686C116.611 180.087 118.36 181.821 119.141 183.844C119.614 185.07 119.634 186.493 119.195 187.748C118.798 188.893 118.067 190.002 116.956 191.141C115.35 192.788 113.319 194.396 110.748 196.054C108.107 197.753 105.138 199.255 101.922 200.52L101.846 200.551H101.84ZM100.199 199.683C100.69 199.683 101.18 199.683 101.675 199.683C104.808 198.443 107.701 196.979 110.27 195.325C112.785 193.704 114.767 192.137 116.329 190.536C117.349 189.49 118.015 188.485 118.369 187.463C118.74 186.398 118.725 185.193 118.325 184.156C117.622 182.338 116.01 180.756 113.534 179.454C111.342 178.304 108.858 177.355 106.154 176.635C101.642 175.435 96.9074 174.932 92.3265 174.445C91.617 174.37 90.9095 174.296 90.2021 174.218C87.6806 173.938 84.9811 173.612 82.3185 173.12C79.7362 172.64 77.015 172.076 74.6258 170.924C72.7857 170.036 70.4117 168.376 69.5459 165.512C69.1987 164.355 69.1748 163.187 69.4743 162.124C69.2638 162.261 69.0576 162.395 68.8515 162.528C68.526 164.32 68.9947 166.282 70.147 167.94C71.4403 169.804 73.4671 171.19 76.3401 172.182C78.9116 173.07 81.6718 173.571 84.035 173.942C86.7019 174.363 89.4383 174.656 92.0813 174.938C94.6918 175.218 97.3891 175.507 100.034 175.919C103.085 176.396 105.579 176.96 107.883 177.692C109.949 178.347 112.612 179.304 114.899 180.903C116.281 181.869 118.527 183.891 118.054 186.582C117.861 187.676 117.266 188.748 116.238 189.863C115.311 190.868 114.239 191.76 113.313 192.5C109.7 195.392 105.288 197.808 100.197 199.683H100.199ZM41.9652 198.684L41.9153 198.68C39.704 198.509 37.623 198.328 35.7308 198.142L31.79 197.753L35.7199 197.28C40.4483 196.712 46.0361 195.928 51.6195 194.449C53.8004 193.871 55.5081 193.296 56.9946 192.634C58.468 191.983 60.1433 191.144 61.4105 189.863C62.1266 189.141 63.2724 187.706 62.923 186.203C62.5346 184.527 60.7574 183.842 60.0109 183.625C59.1364 183.368 58.225 183.262 57.2073 183.16C56.0615 183.045 55.1197 182.926 54.2474 182.783C52.2965 182.461 50.3435 181.975 48.4448 181.337C46.7652 180.775 44.8187 180.066 43.1088 179.065C42.1952 178.534 41.4943 177.93 40.9626 177.221C40.8086 177.019 40.6675 176.793 40.5438 176.55L40.2617 175.999L40.8737 175.921C41.3619 175.858 41.8675 175.789 42.371 175.713L42.6314 175.674L42.7854 175.886C43.0111 176.197 43.3127 176.485 43.6795 176.746C44.3543 177.223 45.1312 177.585 45.8039 177.887C46.6611 178.273 47.5508 178.627 48.5251 178.974C50.3631 179.623 52.264 180.129 54.1693 180.476C55.0242 180.632 55.9291 180.76 56.9338 180.864L57.229 180.895C58.1447 180.986 59.0908 181.081 60.0152 181.287C62.0637 181.75 63.6739 182.804 64.5462 184.254C65.2449 185.415 65.4316 186.665 65.0995 187.967C64.5028 190.315 62.3415 192.298 60.5165 193.372C56.9469 195.473 52.941 196.538 49.1457 197.376C46.9518 197.862 44.6169 198.287 42.0064 198.678L41.9587 198.684H41.9652ZM39.7453 197.636C40.4592 197.697 41.1883 197.756 41.9348 197.812C44.5041 197.426 46.8043 197.007 48.9656 196.527C52.6937 195.705 56.6192 194.663 60.0847 192.624C61.7577 191.638 63.7368 189.842 64.2663 187.752C64.5375 186.682 64.3834 185.656 63.8106 184.701C62.7993 183.021 60.8832 182.37 59.833 182.134C58.9606 181.938 58.0405 181.847 57.1508 181.758L56.8514 181.728C55.8228 181.622 54.8984 181.491 54.0195 181.329C52.0687 180.973 50.1244 180.454 48.2408 179.79C47.2578 179.441 46.3204 179.068 45.4545 178.677C44.7449 178.358 43.9247 177.976 43.1847 177.453C42.8223 177.197 42.5098 176.913 42.2559 176.609C42.0563 176.637 41.8567 176.668 41.657 176.694C41.657 176.694 41.657 176.696 41.6592 176.698C42.1214 177.314 42.7377 177.844 43.5493 178.315C45.192 179.276 47.0885 179.966 48.7247 180.513C50.5801 181.136 52.4875 181.609 54.3928 181.923C55.2456 182.064 56.1678 182.182 57.2962 182.294C58.3574 182.401 59.31 182.514 60.2561 182.789C62.1418 183.338 63.4243 184.51 63.7693 186.005C64.2142 187.915 62.8688 189.622 62.0268 190.473C60.6597 191.855 58.8933 192.743 57.3461 193.426C55.8163 194.106 54.0673 194.698 51.8408 195.286C47.6875 196.386 43.5406 197.105 39.7431 197.634L39.7453 197.636ZM166.922 198.081L166.86 198.068C164.69 197.549 162.576 196.933 160.584 196.237C157.418 195.13 154.922 194.034 152.733 192.793C149.905 191.185 147.933 189.369 146.705 187.24C145.201 184.629 144.832 181.632 145.719 179.224C146.746 176.433 149.137 174.593 151.34 173.163C152.093 172.675 152.9 172.199 153.744 171.752L153.946 171.646L154.148 171.75C154.651 172.011 155.178 172.26 155.717 172.492L156.582 172.864L155.736 173.28C154.015 174.126 152.511 175.036 151.14 176.053C148.862 177.748 147.644 179.604 147.523 181.57C147.39 183.731 148.271 186.014 149.942 187.83C151.756 189.8 154.213 191.094 156.148 191.999C158.533 193.118 161.139 194.103 163.889 194.926C166.729 195.774 169.694 196.447 172.955 196.979L177.143 197.662L172.903 197.84C170.959 197.923 168.977 198.001 166.983 198.077H166.925L166.922 198.081ZM153.95 172.625C153.202 173.028 152.483 173.454 151.813 173.89C149.73 175.244 147.475 176.971 146.535 179.523C145.737 181.693 146.082 184.417 147.46 186.806C148.608 188.798 150.474 190.51 153.165 192.038C155.309 193.253 157.756 194.327 160.873 195.416C162.821 196.098 164.885 196.699 167.007 197.209C167.686 197.183 168.363 197.157 169.04 197.128C167.17 196.731 165.382 196.278 163.641 195.757C160.849 194.922 158.206 193.921 155.78 192.784C153.772 191.845 151.22 190.497 149.304 188.418C147.475 186.428 146.509 183.913 146.657 181.517C146.796 179.285 148.13 177.212 150.621 175.359C151.815 174.471 153.104 173.669 154.54 172.916C154.341 172.822 154.146 172.725 153.952 172.627L153.95 172.625Z" fill="#575656"/>
<path d="M152.21 110.888C152.073 110.888 151.936 110.823 151.854 110.702C151.717 110.504 151.765 110.235 151.962 110.099C153.356 109.131 154.747 108.083 156.101 106.987C156.287 106.835 156.561 106.865 156.71 107.05C156.862 107.236 156.832 107.51 156.647 107.659C155.278 108.77 153.868 109.829 152.459 110.81C152.383 110.862 152.297 110.888 152.212 110.888H152.21ZM160.3 104.333C160.185 104.333 160.07 104.287 159.983 104.196C159.818 104.02 159.827 103.747 160.002 103.582C161.28 102.382 162.502 101.143 163.635 99.8973C163.795 99.7194 164.071 99.7064 164.249 99.8691C164.427 100.03 164.44 100.305 164.277 100.483C163.129 101.744 161.89 103 160.597 104.216C160.512 104.294 160.406 104.333 160.3 104.333ZM167.287 96.6206C167.196 96.6206 167.105 96.5924 167.027 96.5338C166.836 96.3884 166.797 96.1172 166.942 95.9262C168.014 94.507 168.984 93.0662 169.824 91.647C169.945 91.4408 170.212 91.3736 170.418 91.4951C170.624 91.6166 170.692 91.8835 170.57 92.0897C169.715 93.5371 168.726 95.004 167.634 96.4492C167.55 96.562 167.419 96.6206 167.287 96.6206ZM172.534 87.652C172.48 87.652 172.423 87.6412 172.369 87.6195C172.148 87.5283 172.041 87.2744 172.135 87.0531C172.812 85.4104 173.328 83.7655 173.665 82.1663C173.714 81.9319 173.945 81.7822 174.179 81.8321C174.413 81.882 174.563 82.112 174.513 82.3464C174.166 83.9977 173.634 85.6925 172.935 87.3851C172.866 87.5522 172.705 87.6542 172.534 87.6542V87.652ZM44.1156 79.367C43.521 79.367 42.9264 79.3409 42.3492 79.2867C42.1105 79.265 41.9347 79.0545 41.9564 78.8158C41.9781 78.5771 42.1886 78.4013 42.4273 78.423C42.9785 78.4729 43.547 78.499 44.1156 78.499C45.2223 78.499 46.3637 78.4035 47.5051 78.2125C47.7438 78.1735 47.9652 78.334 48.0042 78.5706C48.0433 78.8071 47.8827 79.0306 47.6483 79.0697C46.4592 79.2671 45.2722 79.367 44.1156 79.367ZM37.369 77.9955C37.3083 77.9955 37.2454 77.9825 37.1868 77.9543C35.4464 77.1492 34.0251 76.036 32.964 74.6494C32.8186 74.4584 32.8554 74.1872 33.0464 74.0418C33.2374 73.8964 33.5086 73.9333 33.654 74.1242C34.6283 75.398 35.939 76.4223 37.5513 77.1688C37.7683 77.2686 37.8638 77.5268 37.764 77.7438C37.6902 77.9022 37.534 77.9955 37.369 77.9955ZM52.5786 77.6592C52.4072 77.6592 52.2444 77.5572 52.175 77.3879C52.086 77.1666 52.1923 76.9127 52.4158 76.8237C53.9869 76.1901 55.5059 75.385 56.9316 74.4324C57.1312 74.2978 57.4003 74.3521 57.5327 74.5517C57.6651 74.7514 57.613 75.0204 57.4133 75.1528C55.9399 76.138 54.3667 76.9713 52.7413 77.6288C52.6871 77.6505 52.6328 77.6613 52.5786 77.6613V77.6592ZM174.589 77.5203C174.355 77.5203 174.159 77.3315 174.155 77.095C174.118 75.3872 173.866 73.6967 173.409 72.0671C173.343 71.8371 173.478 71.5962 173.708 71.5311C173.94 71.466 174.179 71.6005 174.244 71.8305C174.724 73.5297 174.986 75.2939 175.023 77.0754C175.027 77.3141 174.839 77.5138 174.598 77.5181C174.596 77.5181 174.591 77.5181 174.589 77.5181V77.5203ZM61.1826 71.9173C61.072 71.9173 60.9613 71.8761 60.8767 71.7915C60.7074 71.6222 60.7052 71.3488 60.8745 71.1774C62.0658 69.9752 63.1508 68.6407 64.1013 67.2106C64.2337 67.011 64.5027 66.9567 64.7024 67.0891C64.902 67.2215 64.9563 67.4906 64.8239 67.6902C63.8431 69.168 62.7212 70.5459 61.4908 71.7872C61.4061 71.8718 61.2933 71.9152 61.1826 71.9152V71.9173ZM31.3864 70.049C31.1715 70.049 30.9849 69.8906 30.9567 69.6714C30.8873 69.1419 30.8525 68.5929 30.8525 68.0352C30.8525 67.8486 30.8569 67.6598 30.8634 67.4667C30.909 66.3578 31.0695 65.3097 31.343 64.3527C31.4081 64.1227 31.6489 63.9882 31.879 64.0533C32.109 64.1184 32.2435 64.3592 32.1784 64.5893C31.9245 65.479 31.7748 66.4598 31.7314 67.4992C31.7249 67.6793 31.7205 67.8573 31.7205 68.0309C31.7205 68.5517 31.7531 69.0638 31.8182 69.5542C31.8486 69.7929 31.6815 70.0099 31.445 70.0403C31.4254 70.0425 31.4081 70.0446 31.3885 70.0446L31.3864 70.049ZM171.814 67.5947C171.662 67.5947 171.514 67.5144 171.436 67.3734C171.336 67.1976 171.234 67.0218 171.128 66.8461C170.976 66.5922 170.822 66.3361 170.668 66.0757C170.056 65.0493 169.424 63.9903 168.743 62.9466C168.613 62.7448 168.669 62.4778 168.869 62.3455C169.069 62.2153 169.338 62.2717 169.47 62.4713C170.16 63.5303 170.798 64.5979 171.412 65.6309C171.566 65.8913 171.72 66.1473 171.872 66.399C171.981 66.5813 172.087 66.7636 172.191 66.9459C172.308 67.1542 172.237 67.4189 172.026 67.5383C171.959 67.5773 171.885 67.5947 171.814 67.5947ZM161.3 66.4923C160.386 66.4923 159.434 66.2081 158.616 65.6916C158.414 65.5636 158.353 65.2967 158.481 65.0927C158.609 64.8909 158.876 64.8301 159.08 64.9582C160.109 65.607 161.382 65.8001 162.391 65.4442C162.749 65.3184 163.097 65.1252 163.455 64.8518C163.646 64.7064 163.919 64.7433 164.062 64.9343C164.208 65.1252 164.171 65.3965 163.98 65.5419C163.55 65.8696 163.125 66.1039 162.68 66.2602C162.246 66.4121 161.782 66.4902 161.302 66.4902L161.3 66.4923ZM66.9266 63.3068C66.8702 63.3068 66.8116 63.2959 66.7574 63.2721C66.536 63.1788 66.434 62.9227 66.5295 62.7035C67.0655 61.4471 67.5277 60.1191 67.901 58.7585C67.9878 58.4438 68.0746 58.1313 68.1635 57.8232C68.2286 57.5932 68.4695 57.4586 68.6995 57.5237C68.9295 57.5888 69.0641 57.8297 68.9968 58.0597C68.91 58.3657 68.8232 58.676 68.7364 58.9863C68.3523 60.386 67.8771 61.7509 67.3259 63.042C67.2565 63.207 67.0959 63.3046 66.9266 63.3046V63.3068ZM155.894 61.5925C155.708 61.5925 155.534 61.471 155.478 61.2822C155.304 60.6963 155.202 60.1191 155.176 59.5635C155.172 59.4615 155.17 59.3639 155.17 59.2663C155.17 57.9274 155.623 56.7903 156.48 55.9809C156.654 55.816 156.93 55.8246 157.094 55.9982C157.259 56.1718 157.251 56.4474 157.077 56.6123C156.398 57.2525 156.038 58.1704 156.038 59.2663C156.038 59.3509 156.04 59.4355 156.044 59.5223C156.068 60.0062 156.157 60.5162 156.311 61.0348C156.378 61.2648 156.248 61.5057 156.018 61.5751C155.977 61.5882 155.936 61.5925 155.894 61.5925ZM166.942 61.586C166.872 61.586 166.803 61.5686 166.736 61.5339C166.525 61.4211 166.445 61.1563 166.56 60.9458C167.363 59.455 167.912 57.8492 168.19 56.174C168.229 55.9375 168.45 55.7769 168.689 55.816C168.925 55.855 169.086 56.0785 169.045 56.315C168.752 58.0836 168.172 59.7805 167.324 61.356C167.246 61.5014 167.096 61.5838 166.942 61.5838V61.586ZM34.3506 60.488C34.2399 60.488 34.1292 60.4467 34.0446 60.3621C33.8732 60.1928 33.8732 59.9194 34.0424 59.748C35.1535 58.6261 36.5835 57.6344 38.4128 56.7187C38.6277 56.6102 38.8881 56.697 38.9944 56.9118C39.1029 57.1266 39.0161 57.387 38.8013 57.4934C37.0566 58.3679 35.7025 59.3031 34.6587 60.3578C34.5741 60.4446 34.4613 60.4858 34.3506 60.4858V60.488ZM165.913 59.0384C165.801 59.0384 165.688 58.995 165.603 58.9082C164.312 57.591 162.993 56.6644 161.576 56.0807L161.513 56.0547C161.289 55.9657 161.181 55.714 161.27 55.4904C161.359 55.2669 161.61 55.1584 161.834 55.2474L161.91 55.2778C163.44 55.9093 164.85 56.8966 166.228 58.3006C166.395 58.472 166.393 58.7476 166.221 58.9147C166.137 58.9972 166.026 59.0384 165.918 59.0384H165.913ZM43.419 55.5447C43.2411 55.5447 43.0761 55.434 43.011 55.2583C42.9286 55.0326 43.0458 54.783 43.2715 54.7027C43.9073 54.4727 44.5518 54.2449 45.2006 54.0149C46.1771 53.6698 47.1861 53.3139 48.1735 52.9429C48.3992 52.8582 48.6487 52.9732 48.7333 53.1968C48.818 53.4203 48.7051 53.672 48.4795 53.7566C47.4834 54.1299 46.47 54.4879 45.4892 54.8351C44.8425 55.063 44.2002 55.2908 43.5666 55.5208C43.5167 55.5382 43.4668 55.5469 43.419 55.5469V55.5447ZM70.1534 53.4138C70.1057 53.4138 70.0558 53.4051 70.008 53.3899C69.7823 53.3096 69.663 53.0622 69.7433 52.8365C70.3509 51.1179 71.0019 49.4796 71.6789 47.9692C71.7766 47.7501 72.0348 47.6524 72.2518 47.7501C72.471 47.8477 72.5686 48.1059 72.471 48.3229C71.8026 49.8116 71.1603 51.4282 70.5614 53.1252C70.4984 53.3031 70.3314 53.4138 70.1512 53.4138H70.1534ZM53.1037 51.7081C52.9475 51.7081 52.7956 51.6235 52.7175 51.4738C52.6068 51.2611 52.6892 50.9986 52.9019 50.8879C54.5685 50.0199 55.9486 49.0933 57.1182 48.0539C57.2983 47.8955 57.5718 47.9106 57.7302 48.0907C57.8886 48.2709 57.8734 48.5443 57.6933 48.7027C56.4672 49.792 55.0307 50.7577 53.299 51.6582C53.2361 51.6908 53.1667 51.7081 53.0994 51.7081H53.1037ZM168.589 51.4977C168.383 51.4977 168.201 51.3523 168.164 51.1418C167.979 50.1392 167.684 49.1649 167.287 48.2492C167.027 47.6459 166.712 47.0448 166.356 46.4611C166.23 46.2571 166.295 45.9902 166.499 45.8643C166.703 45.7385 166.97 45.8036 167.096 46.0076C167.474 46.626 167.806 47.264 168.083 47.9041C168.507 48.8806 168.821 49.9179 169.016 50.9855C169.06 51.2221 168.904 51.4477 168.669 51.4911C168.643 51.4955 168.617 51.4977 168.591 51.4977H168.589ZM60.6423 44.788C60.5707 44.788 60.4991 44.7706 60.434 44.7338C60.2235 44.6187 60.1475 44.354 60.2626 44.1435C61.0351 42.7374 61.5993 41.1424 61.9443 39.3977C61.9899 39.1634 62.2177 39.0093 62.4543 39.0549C62.6886 39.1004 62.8427 39.3283 62.7971 39.5648C62.4369 41.3963 61.8401 43.078 61.0264 44.5602C60.9483 44.7034 60.7985 44.7858 60.6466 44.7858L60.6423 44.788ZM74.4478 43.9504C74.3741 43.9504 74.2981 43.9309 74.2287 43.8896C74.0225 43.7681 73.9531 43.5034 74.0746 43.2951C74.9903 41.7327 75.9885 40.2722 77.0367 38.9507C77.1864 38.7619 77.4598 38.7315 77.6464 38.8813C77.8352 39.031 77.8656 39.3022 77.7159 39.491C76.6916 40.78 75.7195 42.2079 74.8232 43.7356C74.743 43.8723 74.5976 43.9504 74.4478 43.9504ZM163.409 42.6744C163.303 42.6744 163.197 42.6354 163.112 42.5572C161.966 41.4809 160.647 40.4437 159.076 39.3847C158.876 39.2502 158.824 38.9811 158.958 38.7815C159.093 38.5818 159.362 38.5297 159.562 38.6643C161.172 39.7493 162.526 40.8169 163.706 41.9236C163.882 42.0885 163.889 42.3619 163.726 42.5377C163.641 42.6289 163.524 42.6744 163.409 42.6744ZM154.866 36.7568C154.794 36.7568 154.723 36.7395 154.655 36.7026C154.189 36.4422 153.727 36.1905 153.273 35.9453C152.214 35.3745 151.136 34.8169 150.064 34.2896C149.849 34.1832 149.76 33.9228 149.866 33.708C149.973 33.4932 150.233 33.4042 150.448 33.5105C151.528 34.0422 152.618 34.6042 153.685 35.1814C154.143 35.4288 154.608 35.6827 155.076 35.9431C155.285 36.0603 155.361 36.325 155.243 36.5333C155.163 36.6766 155.016 36.7568 154.864 36.7568H154.866ZM80.9253 35.8628C80.8059 35.8628 80.6888 35.8151 80.602 35.7196C80.4414 35.5416 80.4544 35.2682 80.6323 35.1076C81.9257 33.9402 83.3383 32.8704 84.8291 31.9286C85.0331 31.8006 85.3 31.8613 85.428 32.0631C85.5561 32.2649 85.4953 32.534 85.2935 32.6621C83.8439 33.5756 82.4725 34.6151 81.2139 35.75C81.1314 35.8259 81.0273 35.8628 80.9231 35.8628H80.9253ZM145.52 32.1695C145.463 32.1695 145.407 32.1586 145.35 32.1347C143.753 31.4599 142.128 30.8284 140.52 30.2599C140.294 30.1796 140.175 29.9322 140.255 29.7065C140.336 29.4808 140.583 29.3615 140.809 29.4418C142.432 30.0168 144.074 30.6548 145.687 31.3362C145.908 31.4295 146.01 31.6834 145.917 31.9047C145.847 32.0696 145.687 32.1695 145.518 32.1695H145.52ZM89.6639 30.3163C89.4968 30.3163 89.3362 30.2186 89.2646 30.0537C89.1691 29.8345 89.2711 29.5785 89.4903 29.483C91.0266 28.819 92.691 28.2244 94.4379 27.7145C94.6679 27.6472 94.9088 27.7795 94.976 28.0096C95.0433 28.2396 94.9109 28.4805 94.6809 28.5477C92.9688 29.0468 91.337 29.6306 89.8353 30.2794C89.7789 30.3033 89.7203 30.3141 89.6639 30.3141V30.3163ZM135.707 28.6996C135.668 28.6996 135.627 28.6953 135.588 28.6823C133.919 28.207 132.228 27.7839 130.564 27.4258C130.33 27.3759 130.18 27.1437 130.23 26.9094C130.28 26.675 130.512 26.5275 130.746 26.5752C132.43 26.9376 134.138 27.3651 135.826 27.8447C136.056 27.9098 136.191 28.1506 136.126 28.3806C136.072 28.5716 135.898 28.6953 135.709 28.6953L135.707 28.6996ZM99.6198 27.3564C99.4159 27.3564 99.2336 27.211 99.1945 27.0049C99.1489 26.7705 99.303 26.5427 99.5396 26.4971C101.158 26.1868 102.899 25.9177 104.713 25.6964C104.947 25.666 105.166 25.8374 105.197 26.0739C105.225 26.3126 105.056 26.5275 104.817 26.5578C103.022 26.7748 101.302 27.0418 99.7045 27.3477C99.6763 27.3521 99.6502 27.3564 99.622 27.3564H99.6198ZM125.53 26.5188C125.51 26.5188 125.488 26.5188 125.467 26.5144C125.028 26.4515 124.588 26.3929 124.15 26.3387C122.874 26.1803 121.587 26.0566 120.322 25.9719C120.083 25.9567 119.901 25.7484 119.918 25.5097C119.933 25.271 120.142 25.0887 120.38 25.1061C121.661 25.1929 122.965 25.3166 124.256 25.4772C124.701 25.5314 125.146 25.5922 125.59 25.6551C125.827 25.6898 125.992 25.909 125.959 26.1455C125.929 26.3625 125.742 26.5188 125.53 26.5188ZM109.945 26.0739C109.719 26.0739 109.528 25.8982 109.513 25.6703C109.496 25.4316 109.676 25.2233 109.916 25.2081C110.939 25.1365 112.008 25.0757 113.096 25.0237C113.77 24.9933 114.458 24.9716 115.142 24.9629H115.148C115.385 24.9629 115.578 25.1538 115.582 25.3904C115.585 25.6291 115.394 25.8266 115.155 25.8309C114.482 25.8396 113.803 25.8591 113.139 25.8917C112.058 25.9416 110.995 26.0023 109.979 26.0739C109.969 26.0739 109.96 26.0739 109.949 26.0739H109.945Z" fill="#575656"/>
<path opacity="0.75" d="M64.7981 20.4251C63.9822 20.7571 63.1662 21.3083 62.4176 22.0374C61.4259 22.1134 60.3691 22.3 59.2841 22.6081C57.7391 23.0465 56.3568 23.6736 55.2523 24.3875C53.0193 22.9727 51.7607 21.2085 52.2229 19.8067C52.8848 17.7864 56.8646 17.2764 61.1113 18.6717C62.5131 19.1339 63.7717 19.7437 64.7981 20.4251Z" fill="#575656"/>
<path d="M55.2563 24.9019L55.022 24.7543C52.5287 23.1746 51.2983 21.2281 51.8126 19.67C52.188 18.5264 53.4162 17.7648 55.2694 17.5282C57.0097 17.3047 59.1341 17.5651 61.2477 18.2595C62.6409 18.7174 63.9515 19.3424 65.0387 20.065L65.7244 20.5185L64.9628 20.8288C64.2011 21.1391 63.4264 21.6643 62.7211 22.35L62.6083 22.4607L62.4521 22.4715C61.4582 22.5475 60.434 22.7341 59.4054 23.027C57.9537 23.4372 56.6017 24.0339 55.4885 24.7522L55.2563 24.9019ZM56.5518 18.316C56.1439 18.316 55.7511 18.3398 55.38 18.3876C53.8979 18.5764 52.8976 19.1427 52.6372 19.9413C52.2748 21.0436 53.299 22.5692 55.2585 23.8712C56.3934 23.1746 57.7388 22.5952 59.1689 22.1894C60.1974 21.8965 61.2282 21.7033 62.2307 21.6165C62.7602 21.1174 63.3244 20.6986 63.8995 20.3775C63.0206 19.8697 62.0246 19.427 60.9765 19.082C59.4423 18.5785 57.9124 18.316 56.5518 18.316Z" fill="#575656"/>
<path d="M69.4112 29.83C67.6253 33.9248 64.0557 36.3183 61.4386 35.1791C59.8784 34.4999 59.0126 32.7161 58.9453 30.5201C59.7309 30.4246 60.5555 30.2575 61.3909 30.021C65.6897 28.7971 68.706 26.1475 68.1244 24.1012C68.0029 23.6781 67.7403 23.3135 67.3606 23.014C66.358 22.2242 64.5526 21.8748 62.4195 22.0375C63.1703 21.3084 63.9841 20.7572 64.8 20.4252H64.8043C65.8806 19.9869 66.9613 19.9326 67.9139 20.3471C70.5288 21.4885 71.2015 25.7309 69.4134 29.83H69.4112Z" fill="#575656"/>
<path opacity="0.5" d="M58.9454 30.5185C59.7287 30.423 60.5555 30.2559 61.391 30.0215C65.6897 28.7977 68.7039 26.1481 68.1245 24.1018C68.003 23.6765 67.7404 23.3141 67.3585 23.0146C66.3581 22.2247 64.5505 21.8754 62.4174 22.0381C61.4257 22.1119 60.3667 22.3007 59.2839 22.6088C57.7389 23.0472 56.3566 23.6721 55.252 24.3882C53.2817 25.6598 52.1793 27.2136 52.5526 28.5242C53.0191 30.1734 55.6774 30.9308 58.9432 30.5185H58.9454Z" fill="#575656"/>
<path d="M57.2635 31.0622C54.5488 31.0622 52.5698 30.1639 52.138 28.6405C51.7213 27.1823 52.7977 25.455 55.0197 24.0206C56.1959 23.2589 57.6302 22.6253 59.1666 22.1891C60.2559 21.8788 61.3388 21.6813 62.3847 21.6032C64.6372 21.4318 66.5489 21.8202 67.6274 22.6708C68.0875 23.0311 68.3956 23.4716 68.541 23.9794C69.1963 26.2904 66.1084 29.1266 61.5102 30.4373C60.6596 30.676 59.8154 30.8496 58.9995 30.9472C58.3941 31.0232 57.8147 31.0601 57.2635 31.0601V31.0622ZM63.4307 22.4321C63.1138 22.4321 62.7883 22.4452 62.4498 22.4712C61.4603 22.545 60.4361 22.7316 59.4031 23.0267C57.9471 23.439 56.5952 24.0358 55.4885 24.7519C53.6331 25.9475 52.6696 27.3472 52.9713 28.404C53.3619 29.7863 55.7966 30.4785 58.891 30.0879C59.6635 29.9946 60.4643 29.8297 61.2693 29.604C65.2621 28.4669 68.209 26.0018 67.7034 24.2202C67.6101 23.8926 67.4018 23.6018 67.0871 23.3566C66.3276 22.7576 65.0234 22.4343 63.4263 22.4343L63.4307 22.4321Z" fill="#575656"/>
<path opacity="0.25" d="M49.8995 88.648H27.3749C21.7546 88.648 16.6659 90.9265 12.9834 94.609C9.29879 98.2915 7.02246 103.378 7.02246 109C7.02246 120.241 16.1343 129.353 27.3749 129.353H27.6353C33.3923 129.353 38.5894 131.744 42.2915 135.585C41.6947 132.356 41.3931 129.082 41.3953 125.809C41.4018 112.11 46.625 98.3913 57.0887 87.9297L58.0826 86.9359C55.5784 88.0382 52.8095 88.6502 49.8995 88.6502V88.648ZM190.624 170.056H150.744C151.712 170.848 152.766 171.527 153.947 172.134C154.454 172.397 154.986 172.649 155.544 172.89H155.546C157.443 173.706 159.628 174.409 162.21 175.138C169.165 177.099 177.014 181.381 186.288 185.126C195.563 188.874 205.551 192.441 200.734 194.937C198.503 196.093 186.622 196.829 172.884 197.411C170.94 197.493 168.961 197.571 166.964 197.647H166.96C152.61 198.196 137.479 198.628 129.747 199.216C120.607 199.913 110.803 200.108 101.756 200.117H101.754C100.358 200.117 98.9827 200.114 97.6308 200.108C91.9953 200.08 86.7634 199.993 82.3041 199.93C74.6028 199.821 56.5918 199.368 41.9486 198.246C39.8046 198.081 37.7301 197.901 35.7728 197.708C29.4277 197.076 24.2935 196.282 21.8392 195.29C13.4565 191.903 19.6996 189.761 33.7894 188.692C47.8792 187.62 34.5012 185.124 23.7987 184.412C13.0985 183.698 10.9567 176.741 33.4292 176.921C33.772 176.924 37.0357 176.848 40.933 176.351C41.4256 176.288 41.9291 176.218 42.439 176.14C42.9989 176.056 43.5631 175.96 44.1316 175.858C41.6557 172.959 40.2864 169.441 40.0173 165.854C36.5887 168.489 32.2964 170.056 27.6353 170.056H27.3749C21.7546 170.056 16.6659 172.334 12.9834 176.017C9.29879 179.699 7.02246 184.788 7.02246 190.408C7.02246 201.649 16.1343 210.76 27.3749 210.76H190.624C196.244 210.76 201.333 208.482 205.015 204.799C208.698 201.117 210.976 196.03 210.976 190.408C210.976 179.17 201.862 170.056 190.624 170.056ZM57.0952 163.697H57.0974C56.7827 163.383 56.4702 163.064 56.1643 162.743C56.4702 163.064 56.7784 163.383 57.0952 163.697ZM58.9614 22.7061C58.1997 22.9382 57.4815 23.216 56.8218 23.5263C57.4836 23.216 58.1997 22.9404 58.9614 22.7061Z" fill="#73B4F7"/>
<path opacity="0.25" d="M190.624 88.648H173.876C162.635 88.648 153.523 79.5362 153.523 68.2956C153.523 62.6731 155.802 57.5866 159.484 53.9041C163.167 50.2216 168.253 47.9431 173.876 47.9431H190.624C196.244 47.9431 201.333 45.6646 205.015 41.9822C208.698 38.2997 210.976 33.2132 210.976 27.5907C210.976 16.3501 201.862 7.23828 190.624 7.23828H27.3749C21.7546 7.23828 16.6659 9.51678 12.9835 13.1993C9.29879 16.8818 7.02246 21.9682 7.02246 27.5907C7.02246 38.8313 16.1343 47.9431 27.3749 47.9431H49.8995C61.1379 47.9431 70.2519 57.055 70.2519 68.2956C70.2519 71.2077 69.64 73.9745 68.5376 76.4786L76.0957 68.9205L82.89 47.2487L83.0614 46.6976C83.4455 45.5952 84.0206 44.6491 84.7953 43.8722C92.9935 35.674 120.435 49.8289 146.087 75.4804C166.409 95.8025 179.509 117.242 180.006 129.353H190.62C196.24 129.353 201.329 127.074 205.011 123.392C208.694 119.709 210.972 114.623 210.972 109C210.972 97.7598 201.858 88.648 190.62 88.648H190.624ZM69.41 29.8302C67.6241 33.9249 64.0544 36.3185 61.4374 35.1792C59.8772 34.5 59.0113 32.7163 58.944 30.5202C58.9527 30.5202 58.9614 30.518 58.9701 30.5159C58.9614 30.5159 58.9527 30.518 58.944 30.5202C55.6782 30.9325 53.02 30.1752 52.5534 28.526C52.1802 27.2153 53.2825 25.6594 55.2529 24.39C55.4807 24.2424 55.7216 24.1014 55.9711 23.9625C55.7216 24.1014 55.4786 24.2424 55.2507 24.39C53.0178 22.9751 51.7592 21.2109 52.2214 19.8091C52.8832 17.7888 56.863 17.2789 61.1097 18.6742C62.5115 19.1364 63.7701 19.7462 64.7965 20.4275H64.8009C65.8772 19.9892 66.9579 19.935 67.9105 20.3494C70.5253 21.4908 71.198 25.7332 69.41 29.8323V29.8302Z" fill="#73B4F7"/>
<path opacity="0.25" d="M61.9238 22.0876C62.0887 22.0702 62.2537 22.0485 62.4164 22.0377C62.6486 22.0203 62.8765 22.0094 63.1 22.0029C62.8765 22.0094 62.6486 22.0181 62.4164 22.0377C62.2558 22.0507 62.0887 22.0702 61.9238 22.0876Z" fill="#73B4F7"/>
</svg>
