<svg width="28" height="34" viewBox="0 0 28 34" fill="none" xmlns="http://www.w3.org/2000/svg">
<path d="M1.75 32.75V4.75C1.75 3.82174 2.11875 2.9315 2.77513 2.27513C3.4315 1.61875 4.32174 1.25 5.25 1.25H22.75C23.6783 1.25 24.5685 1.61875 25.2249 2.27513C25.8813 2.9315 26.25 3.82174 26.25 4.75V32.75L21 29.25L17.5 32.75L14 29.25L10.5 32.75L7 29.25L1.75 32.75Z" stroke="#006EC2" stroke-width="2.5" stroke-linecap="round" stroke-linejoin="round"/>
<path d="M18.9 10C18.583 9.45008 18.1224 8.99673 17.5675 8.68847C17.0126 8.38021 16.3844 8.22864 15.75 8.25H12.25C11.3217 8.25 10.4315 8.61875 9.77513 9.27513C9.11875 9.9315 8.75 10.8217 8.75 11.75C8.75 12.6783 9.11875 13.5685 9.77513 14.2249C10.4315 14.8813 11.3217 15.25 12.25 15.25H15.75C16.6783 15.25 17.5685 15.6187 18.2249 16.2751C18.8813 16.9315 19.25 17.8217 19.25 18.75C19.25 19.6783 18.8813 20.5685 18.2249 21.2249C17.5685 21.8813 16.6783 22.25 15.75 22.25H12.25C11.6156 22.2714 10.9874 22.1198 10.4325 21.8115C9.87761 21.5033 9.41702 21.0499 9.1 20.5M14 6.5V24" stroke="#006EC2" stroke-width="2.5" stroke-linecap="round" stroke-linejoin="round"/>
</svg>
