<svg width="32" height="32" viewBox="0 0 32 32" fill="none" xmlns="http://www.w3.org/2000/svg">
<rect x="0.5" y="0.5" width="31" height="31" rx="15.5" fill="#006EC2"/>
<rect x="0.5" y="0.5" width="31" height="31" rx="15.5" stroke="#006EC2"/>
<path fill-rule="evenodd" clip-rule="evenodd" d="M16 13.5C15.337 13.5 14.7011 13.7634 14.2322 14.2322C13.7634 14.7011 13.5 15.337 13.5 16C13.5 16.663 13.7634 17.2989 14.2322 17.7678C14.7011 18.2366 15.337 18.5 16 18.5C16.663 18.5 17.2989 18.2366 17.7678 17.7678C18.2366 17.2989 18.5 16.663 18.5 16C18.5 15.337 18.2366 14.7011 17.7678 14.2322C17.2989 13.7634 16.663 13.5 16 13.5ZM14.5 16C14.5 15.6022 14.658 15.2206 14.9393 14.9393C15.2206 14.658 15.6022 14.5 16 14.5C16.3978 14.5 16.7794 14.658 17.0607 14.9393C17.342 15.2206 17.5 15.6022 17.5 16C17.5 16.3978 17.342 16.7794 17.0607 17.0607C16.7794 17.342 16.3978 17.5 16 17.5C15.6022 17.5 15.2206 17.342 14.9393 17.0607C14.658 16.7794 14.5 16.3978 14.5 16Z" fill="white"/>
<path fill-rule="evenodd" clip-rule="evenodd" d="M16 10.167C12.9907 10.167 10.9634 11.9697 9.78671 13.4983L9.76604 13.5257C9.49937 13.8717 9.25471 14.1897 9.08871 14.5657C8.91071 14.969 8.83337 15.4083 8.83337 16.0003C8.83337 16.5923 8.91071 17.0317 9.08871 17.435C9.25537 17.811 9.50004 18.1297 9.76604 18.475L9.78737 18.5023C10.9634 20.031 12.9907 21.8337 16 21.8337C19.0094 21.8337 21.0367 20.031 22.2134 18.5023L22.234 18.475C22.5007 18.1297 22.7454 17.811 22.9114 17.435C23.0894 17.0317 23.1667 16.5923 23.1667 16.0003C23.1667 15.4083 23.0894 14.969 22.9114 14.5657C22.7447 14.1897 22.5 13.8717 22.234 13.5257L22.2127 13.4983C21.0367 11.9697 19.0094 10.167 16 10.167ZM10.58 14.1083C11.6654 12.697 13.4334 11.167 16 11.167C18.5667 11.167 20.334 12.697 21.42 14.1083C21.7134 14.4883 21.884 14.715 21.9967 14.9697C22.102 15.2083 22.1667 15.4997 22.1667 16.0003C22.1667 16.501 22.102 16.7923 21.9967 17.031C21.884 17.2857 21.7127 17.5123 21.4207 17.8923C20.3334 19.3037 18.5667 20.8337 16 20.8337C13.4334 20.8337 11.666 19.3037 10.58 17.8923C10.2867 17.5123 10.116 17.2857 10.0034 17.031C9.89804 16.7923 9.83337 16.501 9.83337 16.0003C9.83337 15.4997 9.89804 15.2083 10.0034 14.9697C10.116 14.715 10.288 14.4883 10.58 14.1083Z" fill="white"/>
</svg>
