<svg width="180" height="180" viewBox="0 0 180 180" fill="none" xmlns="http://www.w3.org/2000/svg">
<path d="M90 0C107.724 0 125.05 5.25584 139.788 15.1029C154.525 24.9499 166.011 38.9459 172.794 55.321C179.576 71.696 181.351 89.7146 177.893 107.098C174.435 124.482 165.9 140.45 153.368 152.983C140.835 165.516 124.867 174.051 107.483 177.508C90.0994 180.966 72.0808 179.192 55.7057 172.409C39.3307 165.626 25.3347 154.14 15.4877 139.403C5.64061 124.666 0.384766 107.339 0.384766 89.6152C0.384766 65.8478 9.82634 43.0538 26.6325 26.2477C43.4386 9.44158 66.2325 0 90 0Z" fill="#D1D3D9"/>
<path d="M91.6592 91.2753C104.352 91.2753 115.851 95.4767 124.288 101.352C132.304 106.942 139.094 115.25 139.094 124.189C139.094 129.095 137.001 133.161 133.7 136.183C130.597 139.036 126.544 140.886 122.37 142.146C114.028 144.674 103.044 145.487 91.6592 145.487C80.2748 145.487 69.2901 144.674 60.9483 142.146C56.774 140.886 52.7217 139.036 49.6113 136.183C46.3247 133.167 44.224 129.101 44.224 124.195C44.224 115.257 51.014 106.949 59.0306 101.359C67.4673 95.4767 78.9669 91.2753 91.6592 91.2753ZM139.094 98.0517C146.169 98.0517 152.593 100.39 157.343 103.697C161.68 106.726 166.2 111.761 166.2 117.9C166.2 121.403 164.676 124.311 162.405 126.391C160.332 128.295 157.77 129.413 155.432 130.118C152.248 131.08 148.487 131.575 144.583 131.792C145.41 129.454 145.871 126.913 145.871 124.189C145.871 113.787 139.372 104.95 132.101 98.8175C134.398 98.3101 136.743 98.0534 139.094 98.0517ZM44.224 98.0517C46.65 98.0608 48.9811 98.316 51.2173 98.8175C43.9529 104.95 37.4475 113.787 37.4475 124.189C37.4475 126.913 37.9083 129.454 38.7351 131.792C34.8318 131.575 31.0777 131.08 27.886 130.118C25.5481 129.413 22.9866 128.295 20.9062 126.391C19.7137 125.323 18.76 124.015 18.1073 122.553C17.4545 121.091 17.1175 119.508 17.1182 117.907C17.1182 111.774 21.6313 106.732 25.975 103.703C31.3478 100.02 37.7099 98.0497 44.224 98.0517ZM135.706 57.393C140.199 57.393 144.508 59.1778 147.685 62.3549C150.863 65.532 152.647 69.841 152.647 74.3341C152.647 78.8272 150.863 83.1362 147.685 86.3133C144.508 89.4904 140.199 91.2753 135.706 91.2753C131.213 91.2753 126.904 89.4904 123.727 86.3133C120.55 83.1362 118.765 78.8272 118.765 74.3341C118.765 69.841 120.55 65.532 123.727 62.3549C126.904 59.1778 131.213 57.393 135.706 57.393ZM47.6122 57.393C52.1053 57.393 56.4144 59.1778 59.5914 62.3549C62.7685 65.532 64.5534 69.841 64.5534 74.3341C64.5534 78.8272 62.7685 83.1362 59.5914 86.3133C56.4144 89.4904 52.1053 91.2753 47.6122 91.2753C43.1192 91.2753 38.8101 89.4904 35.633 86.3133C32.456 83.1362 30.6711 78.8272 30.6711 74.3341C30.6711 69.841 32.456 65.532 35.633 62.3549C38.8101 59.1778 43.1192 57.393 47.6122 57.393ZM91.6592 30.2871C98.8481 30.2871 105.743 33.1429 110.826 38.2262C115.909 43.3096 118.765 50.204 118.765 57.393C118.765 64.5819 115.909 71.4764 110.826 76.5597C105.743 81.643 98.8481 84.4988 91.6592 84.4988C84.4703 84.4988 77.5758 81.643 72.4925 76.5597C67.4092 71.4764 64.5534 64.5819 64.5534 57.393C64.5534 50.204 67.4092 43.3096 72.4925 38.2262C77.5758 33.1429 84.4703 30.2871 91.6592 30.2871Z" fill="white"/>
</svg>
