<svg width="24" height="24" viewBox="0 0 24 24" fill="none" xmlns="http://www.w3.org/2000/svg">
<g clip-path="url(#clip0_1534_3151)">
<path fill-rule="evenodd" clip-rule="evenodd" d="M1.822 7.9053C1.25 8.947 1.25 10.2065 1.25 12.7233V14.3975C1.25 18.6875 1.25 20.8336 2.5392 22.1668C3.8284 23.5 5.9019 23.5 10.05 23.5H14.45C18.5981 23.5 20.6727 23.5 21.9608 22.1668C23.2489 20.8336 23.25 18.6886 23.25 14.3975V12.7244C23.25 10.2065 23.25 8.9481 22.678 7.9053C22.1082 6.8614 21.0643 6.2146 18.9776 4.9188L16.7776 3.5537C14.5721 2.1842 13.4688 1.5 12.25 1.5C11.0312 1.5 9.929 2.1842 7.7224 3.5537L5.5224 4.9188C3.4357 6.2146 2.3929 6.8614 1.822 7.9053Z" stroke="#EBEBF0" stroke-width="1.8"/>
<path d="M11.4698 18.5303C11.3291 18.3897 11.2501 18.1989 11.2501 18V15C11.2501 14.8011 11.3291 14.6103 11.4698 14.4697C11.6104 14.329 11.8012 14.25 12.0001 14.25C12.199 14.25 12.3898 14.329 12.5305 14.4697C12.6711 14.6103 12.7501 14.8011 12.7501 15V18C12.7501 18.1989 12.6711 18.3897 12.5305 18.5303C12.3898 18.671 12.199 18.75 12.0001 18.75C11.8012 18.75 11.6104 18.671 11.4698 18.5303Z" fill="#EBEBF0" stroke="#EBEBF0"/>
</g>
<defs>
<clipPath id="clip0_1534_3151">
<rect width="24" height="24" fill="white"/>
</clipPath>
</defs>
</svg>
