<svg width="36" height="37" viewBox="0 0 36 37" fill="none" xmlns="http://www.w3.org/2000/svg">
<rect y="0.5" width="36" height="36" rx="18" fill="#006EC2"/>
<path d="M27.1412 19.4412V15.2059C27.1412 13.9578 26.6454 12.7608 25.7629 11.8783C24.8803 10.9958 23.6834 10.5 22.4353 10.5H14.4354C13.1873 10.5 11.9903 10.9958 11.1078 11.8783C10.2253 12.7608 9.72949 13.9578 9.72949 15.2059V21.7941C9.72949 22.4121 9.85121 23.024 10.0877 23.595C10.3242 24.1659 10.6708 24.6847 11.1078 25.1217C11.9903 26.0042 13.1873 26.5 14.4354 26.5H20.3271" stroke="white" stroke-width="1.6" stroke-linecap="round" stroke-linejoin="round"/>
<path d="M9.97412 23.2053L12.5529 20.1935C12.8916 19.8572 13.3361 19.6482 13.8112 19.6018C14.2862 19.5555 14.7627 19.6748 15.16 19.9394C15.5572 20.2041 16.0337 20.3233 16.5088 20.277C16.9839 20.2307 17.4284 20.0217 17.767 19.6853L19.96 17.4924C20.5901 16.8601 21.4243 16.4723 22.3139 16.3982C23.2034 16.3241 24.0903 16.5684 24.8164 17.0877L27.1411 18.8853M14.68 16.7771C14.8852 16.7758 15.0881 16.7342 15.2771 16.6545C15.4662 16.5749 15.6378 16.4588 15.782 16.3128C15.9262 16.1669 16.0402 15.9939 16.1176 15.8039C16.195 15.6139 16.2341 15.4105 16.2329 15.2053C16.2317 15.0001 16.19 14.7972 16.1104 14.6081C16.0307 14.4191 15.9146 14.2475 15.7687 14.1033C15.6227 13.9591 15.4498 13.8451 15.2598 13.7677C15.0697 13.6903 14.8663 13.6511 14.6612 13.6524C14.2468 13.6549 13.8504 13.8219 13.5592 14.1166C13.2679 14.4114 13.1057 14.8098 13.1082 15.2241C13.1107 15.6385 13.2777 16.0349 13.5725 16.3261C13.8672 16.6174 14.2656 16.7796 14.68 16.7771Z" stroke="white" stroke-width="1.6" stroke-linecap="round" stroke-linejoin="round"/>
<path d="M24.7476 26.0301V21.3242" stroke="white" stroke-width="1.6" stroke-miterlimit="10" stroke-linecap="round"/>
<path d="M22.5898 24.0469L24.4411 25.8982C24.4814 25.9386 24.5292 25.9706 24.5818 25.9925C24.6345 26.0144 24.6909 26.0257 24.748 26.0257C24.805 26.0257 24.8614 26.0144 24.9141 25.9925C24.9667 25.9706 25.0145 25.9386 25.0548 25.8982L26.9061 24.0469" stroke="white" stroke-width="1.6" stroke-linecap="round" stroke-linejoin="round"/>
</svg>
