<svg id="eZk2wcRQ7YU1" xmlns="http://www.w3.org/2000/svg" xmlns:xlink="http://www.w3.org/1999/xlink" viewBox="0 0 424 511.96" shape-rendering="geometricPrecision" text-rendering="geometricPrecision" project-id="9ce84fa5b7964524b68b335891786fbb" export-id="ad996a9c62b84029bfb2b3e28d232269" cached="false"><path d="M155.32,0C112.43,0,73.6,17.39,45.49,45.49C17.39,73.6,0,112.43,0,155.32s17.39,81.72,45.49,109.83c5,4.99,10.33,9.65,15.97,13.93c5.76-5.48,8.61-8.13,11.1-10.45l1.85-1.72c-5.88-4.28-11.42-9-16.55-14.13-24.94-24.94-40.36-59.4-40.36-97.46s15.43-72.52,40.36-97.46C82.8,32.92,117.26,17.5,155.32,17.5s72.52,15.42,97.46,40.36c9.98,9.98,18.43,21.49,24.98,34.14c7.48.52,14.77,2.25,21.58,5.06-7.88-19.46-19.59-36.96-34.19-51.57C237.04,17.39,198.21,0,155.32,0ZM103.08,464.01c15.61-1.44,59.11-5.17,72.75-26.2c1.37-2.13,12.76-21,12.76-21.1l46.97,17.89c1.01,5.14-26.53,43.6-31.53,47.76-6.38,5.3-12.5,8.21-18.98,10.66-21.75,8.18-40.46,14.78-65.12,18.94l-16.85-47.95Zm77.07-119.49c-4.78,23.52.39,43.44,22.53,57.17c11.55,7.17,14.79,6.81,28,10.63l61.01,14c3.63.82,76.11,59.5,82.92,65.36l31.3-28.2c4.55-4.09-72.22-71.83-85.6-78.47-63.52-31.5-66.2,4.52-42.29-86.38c12.13,11.84,21.32,25.05,44.35,34.08c28.03,7.16,43.67-2.72,66.99-10.27L424,309.97l-14.95-42.22-34.64,12.46c-.98.33-3.46,1.24-7.81,2.75-10.8,2.61-20.35,9.48-27.19,6.18-22.66-10.96-36.11-57.21-99.4-62.25-9.52-.75-27.22-3.14-41.02-3.53-51.32-2.98-68.82,16.26-96.92,45.11-12.92,12.49-13.12,12.36-26.17,24.76l33.2,33.03c13.15-12.49,13.44-12.43,26.46-25.05c11.81-11.29,19.89-22.93,32.03-27.9c8.34-3.43,23.38-1.91,32.64-1.54l-20.08,72.75Zm76.95-225c25.51-8.27,52.92,5.69,61.23,31.24c8.28,25.51-5.69,52.92-31.24,61.23-25.51,8.28-52.92-5.69-61.23-31.24-8.28-25.54,5.72-52.95,31.24-61.23ZM147.34,139.49c-3.071559,1.554739-5.62767,3.964985-7.36,6.94h-25.04c.92-2.16.68-4.75-.87-6.75-2.273631-2.939205-6.498567-3.480749-9.44-1.21L89.75,149.95c-1.638603,1.26363-2.604817,3.21081-2.62,5.28v.19c.01,1.99.91,3.96,2.62,5.27l14.88,11.49c2.94,2.28,7.17,1.73,9.44-1.21c1.54-2,1.79-4.58.87-6.75h25.05c3.07,5.28,8.79,8.83,15.33,8.83c9.79,0,17.73-7.94,17.73-17.73c0-6.13-3.12-11.54-7.86-14.72l-.21-34.26c2.23.99,4.93.72,6.95-.93c1.386622-1.122609,2.270088-2.750403,2.455781-4.524802s-.341621-3.549833-1.465781-4.935198L161.1,81.33c-1.227918-1.519718-3.057159-2.428862-5.01-2.49h-.16c-2.12-.04-4.22.91-5.56,2.75L139.21,96.72c-2.19,2.99-1.54,7.21,1.45,9.41c1.871042,1.369359,4.313898,1.68274,6.47.83l.21,32.53Zm71.61-79.45c2.05-3.57.82-8.14-2.75-10.19-3.58-2.05-8.14-.82-10.19,2.75l-5.58,9.67c-2.05,3.57-.82,8.13,2.75,10.19c3.57,2.05,8.14.82,10.19-2.76l5.58-9.66ZM52.57,206.01c-3.57,2.07-4.79,6.65-2.72,10.21c2.07,3.58,6.65,4.79,10.22,2.73l9.66-5.59c3.58-2.06,4.79-6.64,2.73-10.21-2.07337-3.569428-6.642866-4.790047-10.22-2.73l-9.67,5.59ZM41.01,147.86c-4.12,0-7.47,3.34-7.47,7.46s3.35,7.46,7.47,7.46h11.16c1.978515,0,3.875995-.785962,5.275017-2.184983s2.184983-3.296502,2.184983-5.275017c0-4.12-3.34-7.47-7.46-7.47l-11.16.01ZM60.04,91.69c-3.570646-2.050772-8.127668-.819749-10.18,2.75-2.06,3.57-.82,8.14,2.74,10.19l9.67,5.58c3.57,2.05,8.14.82,10.19-2.75s.82-8.14-2.75-10.19l-9.67-5.58Zm44.6-39.12c-2.07-3.57-6.65-4.79-10.22-2.72s-4.79,6.65-2.72,10.22l5.58,9.66c2.07,3.58,6.65,4.79,10.22,2.73c3.57-2.07,4.79-6.65,2.72-10.22l-5.58-9.67Zm58.15-11.56c0-4.125567-3.344433-7.47-7.47-7.47-4.12,0-7.46,3.35-7.46,7.47v11.16c0,4.12,3.35,7.46,7.47,7.46c1.978515,0,3.875995-.785962,5.275017-2.184983s2.184983-3.296502,2.184983-5.275017v-11.16Z" transform="matrix(.776722 0 0 0.744985 47.334935 65.27874)" clip-rule="evenodd" fill="#fff"/></svg>
