<svg width="25" height="25" viewBox="0 0 25 25" fill="none" xmlns="http://www.w3.org/2000/svg">
<path d="M13.5546 24.3173V21.9197C14.3937 21.7998 15.2081 21.57 15.9977 21.2304C16.7874 20.8907 17.5314 20.4611 18.2299 19.9416L19.9682 21.6799C19.0291 22.4192 18.0201 23.0138 16.9412 23.4637C15.8623 23.9137 14.7334 24.1982 13.5546 24.3173ZM21.6466 19.9416L19.9682 18.2633C20.4877 17.6039 20.9073 16.8799 21.227 16.091C21.5467 15.3022 21.7664 14.4679 21.8863 13.5879H24.3439C24.184 14.8267 23.8795 15.9808 23.4304 17.0501C22.9812 18.1194 22.3866 19.0833 21.6466 19.9416ZM21.8863 11.1903C21.7664 10.2912 21.5467 9.44683 21.227 8.65721C20.9073 7.8676 20.4877 7.1535 19.9682 6.51494L21.6466 4.8366C22.4058 5.71573 23.02 6.69476 23.4891 7.77369C23.9583 8.85262 24.2432 9.99149 24.3439 11.1903H21.8863ZM11.1569 24.3173C8.09998 23.9577 5.54771 22.6489 3.50014 20.3912C1.45257 18.1334 0.428381 15.4661 0.427582 12.3891C0.427582 9.29218 1.45177 6.61484 3.50014 4.35708C5.54851 2.09931 8.10078 0.800601 11.1569 0.460938V2.85856C8.75933 3.19823 6.77129 4.26717 5.19286 6.06538C3.61442 7.8636 2.82521 9.97151 2.82521 12.3891C2.82521 14.8067 3.61442 16.9098 5.19286 18.6985C6.77129 20.4871 8.75933 21.5608 11.1569 21.9197V24.3173ZM18.2899 4.8366C17.5706 4.29714 16.8113 3.85757 16.0121 3.51791C15.2129 3.17824 14.3937 2.95846 13.5546 2.85856V0.460938C14.7334 0.560838 15.8623 0.835766 16.9412 1.28572C18.0201 1.73567 19.0291 2.33988 19.9682 3.09832L18.2899 4.8366ZM12.3857 18.3832C11.2269 17.4041 10.138 16.3552 9.11897 15.2363C8.09998 14.1174 7.59048 12.8087 7.59048 11.3102C7.59048 9.95153 8.05522 8.79268 8.9847 7.83363C9.91418 6.87458 11.0479 6.39506 12.3857 6.39506C13.7236 6.39506 14.8577 6.87458 15.788 7.83363C16.7182 8.79268 17.1826 9.95153 17.181 11.3102C17.181 12.8087 16.6715 14.1174 15.6525 15.2363C14.6335 16.3552 13.5446 17.4041 12.3857 18.3832ZM12.3857 12.3891C12.7454 12.3891 13.0503 12.2644 13.3004 12.0151C13.5506 11.7657 13.6753 11.4608 13.6745 11.1004C13.6745 10.7607 13.5498 10.461 13.3004 10.2013C13.0511 9.94154 12.7462 9.81167 12.3857 9.81167C12.0253 9.81167 11.7204 9.94154 11.471 10.2013C11.2217 10.461 11.097 10.7607 11.097 11.1004C11.097 11.46 11.2221 11.7649 11.4722 12.0151C11.7224 12.2652 12.0269 12.3899 12.3857 12.3891Z" fill="#EBEBF0"/>
</svg>
