<svg width="27" height="27" viewBox="0 0 27 27" fill="none" xmlns="http://www.w3.org/2000/svg">
<path d="M13.3857 25.3747C6.76469 25.3747 1.39761 20.0076 1.39761 13.3866C1.39761 6.76552 6.76469 1.39844 13.3857 1.39844C18.754 1.39844 23.2472 4.92654 24.7744 9.79012H21.7774" stroke="#EBEBF0" stroke-width="1.79822" stroke-linecap="round" stroke-linejoin="round"/>
<path d="M13.3857 8.59375V13.389L15.7834 15.7866M25.3199 14.5878C25.3559 14.1922 25.3739 13.7926 25.3739 13.389M16.9822 25.3771C17.3899 25.2421 17.7901 25.0852 18.181 24.9072M23.9233 19.3831C24.1559 18.9371 24.3617 18.476 24.5407 17.9996M20.8088 23.254C21.2228 22.912 21.6132 22.5435 21.98 22.1487" stroke="#EBEBF0" stroke-width="1.79822" stroke-linecap="round" stroke-linejoin="round"/>
</svg>
