<svg width="48" height="44" viewBox="0 0 48 44" fill="none" xmlns="http://www.w3.org/2000/svg">
<path d="M21.6667 43.3333C9.70017 43.3333 0 33.6332 0 21.6667C0 9.70017 9.70017 2.71221e-06 21.6667 2.71221e-06C25.0306 -0.00168115 28.3486 0.780724 31.3574 2.28512C34.3662 3.78952 36.983 5.97451 39 8.66667H33.1283C30.6263 6.46048 27.5409 5.02311 24.2422 4.52704C20.9436 4.03096 17.5718 4.49725 14.5316 5.86996C11.4914 7.24267 8.91182 9.46349 7.10248 12.2659C5.29315 15.0683 4.33088 18.3333 4.33116 21.6691C4.33144 25.0048 5.29425 28.2696 7.10405 31.0718C8.91386 33.8739 11.4938 36.0943 14.5342 37.4665C17.5747 38.8387 20.9465 39.3044 24.2451 38.8078C27.5437 38.3112 30.6289 36.8733 33.1305 34.6667H39.0022C36.9849 37.3591 34.3678 39.5443 31.3586 41.0487C28.3494 42.5531 25.031 43.3354 21.6667 43.3333ZM36.8333 30.3333V23.8333H19.5V19.5H36.8333V13L47.6667 21.6667L36.8333 30.3333Z" fill="white"/>
</svg>
