<svg width="60" height="60" viewBox="0 0 60 60" fill="none" xmlns="http://www.w3.org/2000/svg">
<rect width="60" height="60" rx="30" fill="#006EC2"/>
<path d="M30 24.1818C26.7855 24.1818 24.1818 26.7855 24.1818 30C24.1818 33.2145 26.7855 35.8182 30 35.8182C33.2145 35.8182 35.8182 33.2145 35.8182 30C35.8182 26.7855 33.2145 24.1818 30 24.1818ZM43.0036 28.5455C42.6742 25.5958 41.3515 22.8459 39.2528 20.7472C37.1541 18.6485 34.4042 17.3258 31.4545 16.9964V15.4545C31.4545 14.6545 30.8 14 30 14C29.2 14 28.5455 14.6545 28.5455 15.4545V16.9964C25.5958 17.3258 22.8459 18.6485 20.7472 20.7472C18.6485 22.8459 17.3258 25.5958 16.9964 28.5455H15.4545C14.6545 28.5455 14 29.2 14 30C14 30.8 14.6545 31.4545 15.4545 31.4545H16.9964C17.3258 34.4042 18.6485 37.1541 20.7472 39.2528C22.8459 41.3515 25.5958 42.6742 28.5455 43.0036V44.5455C28.5455 45.3455 29.2 46 30 46C30.8 46 31.4545 45.3455 31.4545 44.5455V43.0036C34.4042 42.6742 37.1541 41.3515 39.2528 39.2528C41.3515 37.1541 42.6742 34.4042 43.0036 31.4545H44.5455C45.3455 31.4545 46 30.8 46 30C46 29.2 45.3455 28.5455 44.5455 28.5455H43.0036ZM30 40.1818C24.3709 40.1818 19.8182 35.6291 19.8182 30C19.8182 24.3709 24.3709 19.8182 30 19.8182C35.6291 19.8182 40.1818 24.3709 40.1818 30C40.1818 35.6291 35.6291 40.1818 30 40.1818Z" fill="white"/>
</svg>
