<svg width="22" height="22" viewBox="0 0 22 22" fill="none" xmlns="http://www.w3.org/2000/svg">
<path d="M8.12606 1.41602H2.37606C2.12189 1.41602 1.87814 1.51698 1.69841 1.6967C1.51869 1.87643 1.41772 2.12018 1.41772 2.37435V8.12435C1.41772 8.37851 1.51869 8.62227 1.69841 8.80199C1.87814 8.98171 2.12189 9.08268 2.37606 9.08268H8.12606C8.38022 9.08268 8.62398 8.98171 8.8037 8.80199C8.98342 8.62227 9.08439 8.37851 9.08439 8.12435V2.37435C9.08439 2.12018 8.98342 1.87643 8.8037 1.6967C8.62398 1.51698 8.38022 1.41602 8.12606 1.41602ZM8.12606 12.916H2.37606C2.12189 12.916 1.87814 13.017 1.69841 13.1967C1.51869 13.3764 1.41772 13.6202 1.41772 13.8743V19.6243C1.41772 19.8785 1.51869 20.1223 1.69841 20.302C1.87814 20.4817 2.12189 20.5827 2.37606 20.5827H8.12606C8.38022 20.5827 8.62398 20.4817 8.8037 20.302C8.98342 20.1223 9.08439 19.8785 9.08439 19.6243V13.8743C9.08439 13.6202 8.98342 13.3764 8.8037 13.1967C8.62398 13.017 8.38022 12.916 8.12606 12.916ZM19.6261 1.41602H13.8761C13.6219 1.41602 13.3781 1.51698 13.1984 1.6967C13.0187 1.87643 12.9177 2.12018 12.9177 2.37435V8.12435C12.9177 8.37851 13.0187 8.62227 13.1984 8.80199C13.3781 8.98171 13.6219 9.08268 13.8761 9.08268H19.6261C19.8802 9.08268 20.124 8.98171 20.3037 8.80199C20.4834 8.62227 20.5844 8.37851 20.5844 8.12435V2.37435C20.5844 2.12018 20.4834 1.87643 20.3037 1.6967C20.124 1.51698 19.8802 1.41602 19.6261 1.41602Z" stroke="#EBEBF0" stroke-width="1.91667" stroke-linejoin="round"/>
<path d="M12.9177 12.916H20.5844M16.7511 16.7493H20.5844M12.9177 20.5827H20.5844" stroke="#EBEBF0" stroke-width="1.91667" stroke-linecap="round" stroke-linejoin="round"/>
</svg>
