<svg width="26" height="26" viewBox="0 0 26 26" fill="none" xmlns="http://www.w3.org/2000/svg">
<path d="M12.0371 13.3844C12.0371 13.7421 12.1791 14.0851 12.4321 14.338C12.685 14.591 13.028 14.7331 13.3857 14.7331C13.7434 14.7331 14.0864 14.591 14.3394 14.338C14.5923 14.0851 14.7344 13.7421 14.7344 13.3844C14.7344 13.0267 14.5923 12.6837 14.3394 12.4307C14.0864 12.1778 13.7434 12.0357 13.3857 12.0357C13.028 12.0357 12.685 12.1778 12.4321 12.4307C12.1791 12.6837 12.0371 13.0267 12.0371 13.3844ZM17.6565 13.3844C17.6565 13.7421 17.7986 14.0851 18.0515 14.338C18.3044 14.591 18.6475 14.7331 19.0051 14.7331C19.3628 14.7331 19.7059 14.591 19.9588 14.338C20.2117 14.0851 20.3538 13.7421 20.3538 13.3844C20.3538 13.0267 20.2117 12.6837 19.9588 12.4307C19.7059 12.1778 19.3628 12.0357 19.0051 12.0357C18.6475 12.0357 18.3044 12.1778 18.0515 12.4307C17.7986 12.6837 17.6565 13.0267 17.6565 13.3844ZM6.41762 13.3844C6.41762 13.7421 6.55972 14.0851 6.81264 14.338C7.06556 14.591 7.4086 14.7331 7.76629 14.7331C8.12398 14.7331 8.46701 14.591 8.71994 14.338C8.97286 14.0851 9.11495 13.7421 9.11495 13.3844C9.11495 13.0267 8.97286 12.6837 8.71994 12.4307C8.46701 12.1778 8.12398 12.0357 7.76629 12.0357C7.4086 12.0357 7.06556 12.1778 6.81264 12.4307C6.55972 12.6837 6.41762 13.0267 6.41762 13.3844ZM24.9955 8.50673C24.3605 6.99792 23.4501 5.64363 22.2897 4.48041C21.1374 3.32395 19.7695 2.40469 18.2634 1.77466C16.718 1.12561 15.0772 0.796875 13.3857 0.796875H13.3295C11.6268 0.805304 9.97753 1.14247 8.42657 1.80556C6.93339 2.44205 5.57828 3.36295 4.43678 4.51694C3.2876 5.67735 2.38568 7.02601 1.76193 8.52921C1.11569 10.0858 0.789765 11.7407 0.798194 13.4434C0.807728 15.3947 1.26936 17.3172 2.14686 19.06V23.3308C2.14686 23.6736 2.28303 24.0023 2.52541 24.2447C2.7678 24.4871 3.09654 24.6233 3.43933 24.6233H7.7129C9.45575 25.5008 11.3783 25.9624 13.3295 25.9719H13.3885C15.0715 25.9719 16.704 25.646 18.2409 25.0082C19.7394 24.3857 21.1022 23.4771 22.2532 22.3333C23.4136 21.1842 24.3267 19.8411 24.9646 18.3435C25.6276 16.7926 25.9648 15.1433 25.9732 13.4406C25.9817 11.7295 25.6501 10.0689 24.9955 8.50673ZM20.75 20.8133C18.7804 22.7632 16.1673 23.8365 13.3857 23.8365H13.338C11.6437 23.8281 9.96068 23.4067 8.47434 22.6143L8.23832 22.4879H4.28224V18.5318L4.1558 18.2958C3.36346 16.8094 2.94201 15.1264 2.93358 13.4322C2.92234 10.6309 3.99284 8.00098 5.95683 6.02014C7.91801 4.03929 10.5395 2.9435 13.3408 2.93226H13.3885C14.7934 2.93226 16.1561 3.2048 17.4401 3.74427C18.6933 4.26968 19.8172 5.0255 20.7837 5.99204C21.7474 6.95577 22.5061 8.08247 23.0315 9.3356C23.5766 10.6337 23.8491 12.0104 23.8435 13.4322C23.8266 16.2306 22.728 18.8521 20.75 20.8133Z" fill="#363333"/>
</svg>
