<svg width="26" height="26" viewBox="0 0 26 26" fill="none" xmlns="http://www.w3.org/2000/svg">
<path d="M12.0371 13.3844C12.0371 13.7421 12.1792 14.0851 12.4321 14.338C12.685 14.591 13.0281 14.7331 13.3857 14.7331C13.7434 14.7331 14.0865 14.591 14.3394 14.338C14.5923 14.0851 14.7344 13.7421 14.7344 13.3844C14.7344 13.0267 14.5923 12.6837 14.3394 12.4307C14.0865 12.1778 13.7434 12.0357 13.3857 12.0357C13.0281 12.0357 12.685 12.1778 12.4321 12.4307C12.1792 12.6837 12.0371 13.0267 12.0371 13.3844ZM17.6565 13.3844C17.6565 13.7421 17.7986 14.0851 18.0515 14.338C18.3045 14.591 18.6475 14.7331 19.0052 14.7331C19.3629 14.7331 19.7059 14.591 19.9588 14.338C20.2118 14.0851 20.3538 13.7421 20.3538 13.3844C20.3538 13.0267 20.2118 12.6837 19.9588 12.4307C19.7059 12.1778 19.3629 12.0357 19.0052 12.0357C18.6475 12.0357 18.3045 12.1778 18.0515 12.4307C17.7986 12.6837 17.6565 13.0267 17.6565 13.3844ZM6.41765 13.3844C6.41765 13.7421 6.55975 14.0851 6.81267 14.338C7.06559 14.591 7.40863 14.7331 7.76632 14.7331C8.12401 14.7331 8.46704 14.591 8.71997 14.338C8.97289 14.0851 9.11498 13.7421 9.11498 13.3844C9.11498 13.0267 8.97289 12.6837 8.71997 12.4307C8.46704 12.1778 8.12401 12.0357 7.76632 12.0357C7.40863 12.0357 7.06559 12.1778 6.81267 12.4307C6.55975 12.6837 6.41765 13.0267 6.41765 13.3844ZM24.9955 8.50673C24.3605 6.99792 23.4501 5.64363 22.2897 4.48041C21.1374 3.32395 19.7695 2.40469 18.2634 1.77466C16.7181 1.12561 15.0772 0.796875 13.3857 0.796875H13.3296C11.6269 0.805304 9.97756 1.14247 8.4266 1.80556C6.93342 2.44205 5.57831 3.36295 4.43681 4.51694C3.28763 5.67735 2.38571 7.02601 1.76196 8.52921C1.11572 10.0858 0.789795 11.7407 0.798225 13.4434C0.807759 15.3947 1.26939 17.3172 2.14689 19.06V23.3308C2.14689 23.6736 2.28306 24.0023 2.52544 24.2447C2.76783 24.4871 3.09657 24.6233 3.43936 24.6233H7.71293C9.45578 25.5008 11.3783 25.9624 13.3296 25.9719H13.3886C15.0716 25.9719 16.704 25.646 18.2409 25.0082C19.7394 24.3857 21.1022 23.4771 22.2532 22.3333C23.4136 21.1842 24.3268 19.8411 24.9646 18.3435C25.6277 16.7926 25.9648 15.1433 25.9733 13.4406C25.9817 11.7295 25.6502 10.0689 24.9955 8.50673ZM20.75 20.8133C18.7804 22.7632 16.1674 23.8365 13.3857 23.8365H13.338C11.6437 23.8281 9.96071 23.4067 8.47437 22.6143L8.23835 22.4879H4.28227V18.5318L4.15583 18.2958C3.36349 16.8094 2.94204 15.1264 2.93361 13.4322C2.92237 10.6309 3.99287 8.00098 5.95686 6.02014C7.91804 4.03929 10.5395 2.9435 13.3408 2.93226H13.3886C14.7934 2.93226 16.1561 3.2048 17.4402 3.74427C18.6933 4.26968 19.8172 5.0255 20.7837 5.99204C21.7475 6.95577 22.5061 8.08247 23.0315 9.3356C23.5766 10.6337 23.8491 12.0104 23.8435 13.4322C23.8267 16.2306 22.7281 18.8521 20.75 20.8133Z" fill="#EBEBF0"/>
</svg>
