<svg width="14" height="15" viewBox="0 0 14 15" fill="none" xmlns="http://www.w3.org/2000/svg">
<path d="M3.5 8.27656C3.79167 8.27656 4.0397 8.17459 4.2441 7.97066C4.4485 7.76673 4.55046 7.51869 4.55 7.22656C4.54953 6.93443 4.44756 6.68663 4.2441 6.48316C4.04063 6.27969 3.7926 6.17749 3.5 6.17656C3.2074 6.17563 2.9596 6.27783 2.7566 6.48316C2.5536 6.68849 2.4514 6.93629 2.45 7.22656C2.4486 7.51683 2.5508 7.76486 2.7566 7.97066C2.9624 8.17646 3.2102 8.27843 3.5 8.27656ZM7 8.27656C7.29166 8.27656 7.5397 8.17459 7.74409 7.97066C7.94849 7.76673 8.05046 7.51869 8.05 7.22656C8.04953 6.93443 7.94756 6.68663 7.74409 6.48316C7.54063 6.27969 7.2926 6.17749 7 6.17656C6.7074 6.17563 6.4596 6.27783 6.2566 6.48316C6.0536 6.68849 5.9514 6.93629 5.95 7.22656C5.9486 7.51683 6.0508 7.76486 6.2566 7.97066C6.4624 8.17646 6.7102 8.27843 7 8.27656ZM10.5 8.27656C10.7917 8.27656 11.0397 8.17459 11.2441 7.97066C11.4485 7.76673 11.5505 7.51869 11.55 7.22656C11.5495 6.93443 11.4476 6.68663 11.2441 6.48316C11.0406 6.27969 10.7926 6.17749 10.5 6.17656C10.2074 6.17563 9.95959 6.27783 9.75659 6.48316C9.55359 6.68849 9.45139 6.93629 9.44999 7.22656C9.44859 7.51683 9.55079 7.76486 9.75659 7.97066C9.96239 8.17646 10.2102 8.27843 10.5 8.27656ZM7 14.2266C6.03166 14.2266 5.12166 14.0427 4.27 13.675C3.41833 13.3072 2.6775 12.8086 2.0475 12.1791C1.4175 11.5495 0.918867 10.8087 0.551601 9.95656C0.184334 9.10443 0.000467552 8.19443 8.86075e-07 7.22656C-0.00046578 6.25869 0.183401 5.34869 0.551601 4.49656C0.9198 3.64443 1.41843 2.9036 2.0475 2.27406C2.67657 1.64453 3.4174 1.1459 4.27 0.778162C5.1226 0.410429 6.0326 0.226563 7 0.226562C7.9674 0.226562 8.87739 0.410429 9.72999 0.778162C10.5826 1.1459 11.3234 1.64453 11.9525 2.27406C12.5816 2.9036 13.0804 3.64443 13.4491 4.49656C13.8178 5.34869 14.0014 6.25869 14 7.22656C13.9986 8.19443 13.8147 9.10443 13.4484 9.95656C13.0821 10.8087 12.5834 11.5495 11.9525 12.1791C11.3216 12.8086 10.5807 13.3075 9.72999 13.6757C8.87926 14.0439 7.96926 14.2275 7 14.2266ZM7 12.8266C8.56333 12.8266 9.88749 12.2841 10.9725 11.1991C12.0575 10.1141 12.6 8.78989 12.6 7.22656C12.6 5.66323 12.0575 4.33906 10.9725 3.25406C9.88749 2.16906 8.56333 1.62656 7 1.62656C5.43666 1.62656 4.1125 2.16906 3.0275 3.25406C1.9425 4.33906 1.4 5.66323 1.4 7.22656C1.4 8.78989 1.9425 10.1141 3.0275 11.1991C4.1125 12.2841 5.43666 12.8266 7 12.8266Z" fill="#533F04"/>
</svg>
