<svg width="217" height="217" viewBox="0 0 217 217" fill="none" xmlns="http://www.w3.org/2000/svg">
<path opacity="0.25" d="M123.342 31.0949L105.425 27.3122L101.087 26.3973L118.439 20.9655C120.709 20.255 123.031 21.902 123.113 24.2788L123.344 31.0949H123.342Z" fill="#73B4F7"/>
<path opacity="0.5" d="M139.097 115.915C133.409 121.545 129.882 129.349 129.882 137.982C129.882 145.509 132.558 152.409 137.013 157.78C141.458 163.139 147.663 166.982 154.74 168.413H154.742C156.746 168.822 158.809 169.031 160.934 169.031C161.381 169.031 161.831 169.023 162.273 169.003C162.533 168.992 162.794 168.975 163.052 168.958C165.323 168.803 167.528 168.409 169.644 167.789C171.569 167.229 173.414 166.489 175.162 165.582V174.405C175.162 179.768 171.009 184.209 165.661 184.571L47.2191 192.595C41.7356 192.965 36.9454 188.92 36.3943 183.454L35.3716 173.371C35.869 173.419 36.3814 173.421 36.8959 173.374L85.3923 169.055C89.9802 168.646 93.3667 164.596 92.9598 160.011L90.1588 128.567C90.1524 128.498 90.1459 128.432 90.1352 128.365C90.133 128.313 90.1266 128.266 90.1201 128.216C90.1136 128.173 90.1093 128.132 90.1029 128.092C90.0986 128.048 90.0921 128.005 90.0856 127.962C90.0727 127.885 90.0577 127.805 90.0447 127.728C90.0318 127.654 90.0146 127.581 89.9995 127.51C89.9909 127.465 89.978 127.424 89.9672 127.379C89.9522 127.312 89.9371 127.25 89.922 127.185C89.8962 127.101 89.8747 127.015 89.8488 126.929C89.8467 126.927 89.8467 126.92 89.8445 126.916C89.8208 126.839 89.7993 126.761 89.7735 126.686C89.7606 126.649 89.7476 126.615 89.7347 126.578C89.6981 126.468 89.6594 126.363 89.6163 126.255C89.6012 126.212 89.5819 126.167 89.5646 126.124C89.5345 126.051 89.5044 125.975 89.4699 125.904C89.4419 125.846 89.4161 125.784 89.3859 125.725C89.3623 125.676 89.3407 125.622 89.3128 125.573C89.3041 125.558 89.2977 125.542 89.2891 125.53C89.2632 125.478 89.2396 125.431 89.2116 125.379C89.175 125.312 89.1384 125.245 89.1018 125.179C89.0609 125.105 89.0178 125.032 88.9726 124.963C88.852 124.763 88.7229 124.571 88.5872 124.386C88.5183 124.292 88.4494 124.197 88.3762 124.109C88.0921 123.751 87.7777 123.42 87.4419 123.116C87.3816 123.062 87.317 123.006 87.2524 122.953C87.1835 122.897 87.1168 122.838 87.0479 122.785C87.0436 122.782 87.0414 122.78 87.0371 122.776C86.9725 122.724 86.908 122.675 86.8391 122.623C86.697 122.515 86.5527 122.416 86.4042 122.322C86.3288 122.274 86.2556 122.227 86.1824 122.182C86.1049 122.137 86.0296 122.091 85.9542 122.048C85.9499 122.046 85.9434 122.044 85.9391 122.04C85.7884 121.956 85.6377 121.876 85.4827 121.803C85.416 121.768 85.3471 121.736 85.2761 121.706C84.8089 121.495 84.318 121.325 83.8121 121.204C83.7647 121.194 83.7173 121.181 83.6657 121.17C83.6162 121.161 83.5666 121.146 83.5171 121.138C83.4439 121.123 83.375 121.11 83.304 121.099C83.1361 121.067 82.9681 121.043 82.7959 121.026C82.7248 121.017 82.6581 121.011 82.5849 121.002C82.5289 120.998 82.4708 120.993 82.417 120.991C82.3761 120.987 82.333 120.985 82.2921 120.985C82.2275 120.98 82.1694 120.976 82.1091 120.976C82.0295 120.974 81.952 120.972 81.8723 120.972C81.6226 120.972 81.3685 120.983 81.1123 121.006L32.6159 125.325C31.8969 125.39 31.2079 125.542 30.5577 125.773L29.5287 115.583C29.1175 111.523 31.167 107.609 34.7408 105.637L46.8273 98.9605L47.57 104.123L38.5084 109.028C38.1704 109.211 38.3728 109.732 38.7474 109.637L51.2816 106.487L77.9562 99.7829L90.8112 96.5514L123.701 88.2864L162.326 78.5789L165.592 77.7587C168.492 77.0288 171.545 78.0429 173.433 80.3615C174.553 81.7351 175.162 83.451 175.162 85.225V110.386C171.274 108.377 166.904 107.165 162.273 106.974C161.831 106.954 161.381 106.941 160.934 106.941C157.917 106.941 155.002 107.37 152.247 108.175C152.152 108.201 152.057 108.229 151.965 108.257C147.049 109.736 142.651 112.397 139.097 115.915Z" fill="#73B4F7"/>
<path d="M46.5111 193.053C41.0815 193.053 36.5195 188.984 35.9662 183.5L34.8897 172.895L35.4129 172.945C35.8908 172.99 36.3752 172.992 36.8575 172.945L85.356 168.624C89.6984 168.236 92.917 164.389 92.5317 160.047L89.7307 128.606C89.7243 128.541 89.7178 128.483 89.7114 128.425L89.7071 128.384C89.7071 128.347 89.7006 128.313 89.6941 128.278L89.6748 128.138C89.6705 128.102 89.6661 128.067 89.6597 128.031L89.6209 127.805C89.608 127.74 89.5929 127.671 89.5779 127.602C89.5714 127.57 89.565 127.544 89.5585 127.518L89.5047 127.29C89.4939 127.258 89.481 127.208 89.4659 127.157L89.4293 127.03C89.4057 126.952 89.3863 126.885 89.3647 126.821L89.3325 126.73C89.2937 126.614 89.2571 126.515 89.2183 126.418C89.199 126.369 89.1839 126.33 89.1688 126.293C89.1408 126.222 89.1107 126.153 89.0806 126.089L89.0612 126.046C89.0418 126.005 89.0224 125.962 89.0031 125.921L88.9858 125.884C88.9708 125.85 88.9557 125.815 88.9385 125.783C88.9277 125.766 88.9191 125.747 88.9083 125.725C88.8825 125.673 88.861 125.632 88.8373 125.589L88.7296 125.391C88.6952 125.329 88.6564 125.264 88.6155 125.2C88.5014 125.012 88.383 124.834 88.2431 124.644C88.1785 124.552 88.1139 124.468 88.045 124.386C87.778 124.05 87.4788 123.734 87.1559 123.439C87.0999 123.389 87.0374 123.335 86.9772 123.284C86.9255 123.241 86.8717 123.195 86.8157 123.15L86.792 123.139L86.7533 123.101C86.6994 123.058 86.6456 123.017 86.5875 122.974C86.4454 122.868 86.3119 122.773 86.1741 122.685L86.116 122.649C86.0643 122.616 86.0127 122.582 85.961 122.552L85.8813 122.504C85.8404 122.481 85.7995 122.457 85.7608 122.433L85.6876 122.392C85.5519 122.317 85.4249 122.252 85.3022 122.194C85.229 122.158 85.1644 122.128 85.102 122.1C84.6499 121.895 84.1827 121.736 83.7155 121.624L83.5756 121.591C83.5605 121.591 83.5282 121.583 83.4959 121.574L83.4442 121.563C83.3667 121.546 83.3043 121.538 83.2419 121.527C83.0653 121.492 82.9103 121.471 82.7618 121.458C82.6821 121.447 82.6175 121.441 82.5508 121.434C82.5034 121.43 82.4539 121.426 82.4044 121.424H82.3742C82.3484 121.419 82.3226 121.417 82.2967 121.417H82.2645C82.2042 121.411 82.159 121.408 82.1116 121.408C82.0233 121.406 81.9501 121.404 81.8748 121.404C81.638 121.404 81.3947 121.415 81.1536 121.436L32.6571 125.755C31.9919 125.813 31.3353 125.958 30.7045 126.179L30.1878 126.362L29.1027 115.628C28.6743 111.389 30.8056 107.32 34.5366 105.262L47.1677 98.2841L48.0418 104.362L39.4237 109.025L165.489 77.3449C168.536 76.5785 171.787 77.6571 173.77 80.092C174.947 81.5345 175.595 83.358 175.595 85.2267V111.096L174.967 110.771C171.005 108.724 166.729 107.593 162.258 107.406C161.808 107.384 161.364 107.374 160.938 107.374C158.019 107.374 155.138 107.783 152.372 108.59C152.299 108.609 152.238 108.627 152.178 108.646L152.09 108.672C147.336 110.104 142.948 112.713 139.403 116.222C133.542 122.022 130.315 129.751 130.315 137.984C130.315 145.106 132.813 152.038 137.347 157.508C141.803 162.882 147.995 166.6 154.785 167.984L154.83 167.993C156.811 168.398 158.867 168.602 160.936 168.602C161.38 168.602 161.823 168.594 162.256 168.577C162.512 168.566 162.768 168.551 163.022 168.531C165.235 168.381 167.423 167.993 169.524 167.38C171.403 166.833 173.233 166.101 174.964 165.205L175.593 164.878V174.409C175.593 179.976 171.244 184.629 165.692 185.005L47.2496 193.029C47.002 193.046 46.7565 193.055 46.5111 193.055V193.053ZM35.8521 173.836L36.823 183.412C37.3548 188.678 41.9103 192.523 47.1914 192.168L165.634 184.144C170.736 183.8 174.732 179.522 174.732 174.407V166.282C173.141 167.061 171.472 167.707 169.765 168.202C167.606 168.833 165.358 169.231 163.082 169.386C162.82 169.405 162.557 169.42 162.292 169.431C161.847 169.448 161.39 169.459 160.936 169.459C158.822 169.459 156.723 169.25 154.697 168.841L154.656 168.833C147.657 167.416 141.276 163.588 136.684 158.053C132.02 152.43 129.454 145.301 129.454 137.979C129.454 129.516 132.772 121.57 138.796 115.606C142.44 111.998 146.951 109.313 151.842 107.843L151.928 107.817C151.997 107.796 152.068 107.776 152.139 107.757C154.972 106.93 157.935 106.508 160.936 106.508C161.375 106.508 161.832 106.519 162.294 106.54C166.656 106.723 170.837 107.781 174.732 109.686V85.2224C174.732 83.5517 174.153 81.922 173.1 80.6324C171.326 78.4558 168.42 77.4913 165.696 78.1759L38.8511 110.054C38.4765 110.151 38.0997 109.957 37.9576 109.595C37.8155 109.234 37.9598 108.835 38.2999 108.65L47.0989 103.888L46.4874 99.6404L34.9457 106.015C31.5183 107.905 29.5591 111.645 29.9531 115.542L30.9284 125.204C31.4666 125.051 32.0177 124.948 32.5732 124.898L81.0696 120.58C81.4205 120.547 81.7693 120.539 82.1159 120.549C82.1697 120.549 82.2365 120.554 82.3075 120.558C82.342 120.558 82.3936 120.56 82.4453 120.567C82.5013 120.569 82.5572 120.573 82.6154 120.577C82.6972 120.586 82.7704 120.593 82.8457 120.603C83.0072 120.618 83.1859 120.644 83.3797 120.681C83.4464 120.692 83.5239 120.704 83.6057 120.722C83.6208 120.724 83.6488 120.73 83.6789 120.737C83.6983 120.741 83.7177 120.745 83.7392 120.75L83.9071 120.788C84.4281 120.913 84.947 121.09 85.4486 121.318C85.5261 121.352 85.6036 121.389 85.6768 121.426C85.8167 121.49 85.9761 121.572 86.1461 121.669L86.2043 121.703C86.2452 121.727 86.2796 121.749 86.3162 121.768L86.398 121.818C86.4605 121.856 86.5186 121.893 86.5746 121.929L86.6327 121.966C86.7877 122.067 86.9384 122.171 87.0934 122.287C87.1645 122.339 87.2334 122.392 87.3023 122.448L87.3152 122.459C87.3862 122.515 87.4551 122.573 87.5262 122.631C87.5951 122.692 87.6618 122.748 87.7242 122.804C88.0859 123.131 88.4153 123.482 88.7081 123.85C88.7835 123.94 88.8588 124.041 88.932 124.145C89.0827 124.351 89.2162 124.552 89.3368 124.75C89.3798 124.817 89.4272 124.896 89.4724 124.976L89.5822 125.178C89.6145 125.236 89.6425 125.29 89.6705 125.35L89.6791 125.368C89.7114 125.426 89.735 125.48 89.7587 125.533L89.7673 125.555C89.7846 125.592 89.8082 125.643 89.8319 125.693L89.8491 125.732C89.8857 125.809 89.9202 125.891 89.9525 125.97C89.9719 126.014 89.9912 126.067 90.0106 126.115C90.0515 126.218 90.0946 126.332 90.1333 126.451L90.1656 126.543C90.185 126.603 90.2022 126.657 90.2194 126.709L90.284 126.935C90.297 126.98 90.3099 127.025 90.3228 127.071C90.3379 127.127 90.3465 127.165 90.3551 127.206L90.3809 127.314C90.3917 127.355 90.4003 127.391 90.4089 127.434C90.424 127.506 90.4412 127.581 90.4563 127.658L90.4972 127.897C90.5058 127.951 90.5122 127.996 90.5187 128.044C90.523 128.065 90.5252 128.087 90.5273 128.11L90.5338 128.16C90.5424 128.22 90.551 128.276 90.5532 128.334C90.5618 128.397 90.5682 128.461 90.5747 128.524L93.3778 159.98C93.804 164.796 90.2345 169.061 85.4206 169.492L36.9242 173.81C36.5647 173.843 36.203 173.855 35.8413 173.843L35.8521 173.836ZM90.2647 126.827V126.834C90.2647 126.834 90.2647 126.829 90.2647 126.827Z" fill="#73B4F7"/>
<g opacity="0.25">
<path d="M85.3927 169.057L36.8963 173.376C36.3796 173.423 35.8693 173.421 35.372 173.376C31.443 173.01 28.2136 169.886 27.8519 165.813L25.051 134.372C24.7065 130.503 27.0596 127.017 30.5581 125.775C31.2061 125.545 31.8972 125.392 32.6163 125.327L81.1127 121.008C85.7006 120.597 89.7502 123.986 90.1571 128.572L92.958 160.015C93.3671 164.6 89.9805 168.648 85.3927 169.059V169.057Z" fill="#73B4F7"/>
</g>
<path d="M36.1447 173.841C35.8735 173.841 35.6 173.828 35.3309 173.802C31.1241 173.411 27.7979 170.065 27.4233 165.85L24.6224 134.409C24.2671 130.421 26.6483 126.705 30.4137 125.368C31.1048 125.123 31.8325 124.964 32.5774 124.897L81.0738 120.578C83.4075 120.367 85.681 121.082 87.4787 122.585C89.2742 124.088 90.3786 126.2 90.5853 128.533L93.3862 159.976C93.8147 164.79 90.2473 169.055 85.4312 169.488L36.9348 173.807C36.6722 173.83 36.4095 173.843 36.1447 173.843V173.841ZM81.8703 121.403C81.6314 121.403 81.3924 121.414 81.1513 121.435L32.6549 125.754C31.9832 125.814 31.3244 125.956 30.7022 126.178C27.307 127.384 25.1606 130.736 25.4792 134.331L28.2802 165.772C28.6182 169.574 31.6172 172.59 35.4106 172.946C35.8885 172.991 36.3751 172.991 36.8552 172.946L85.3516 168.627C89.694 168.237 92.9126 164.39 92.5272 160.05L89.7263 128.606C89.539 126.503 88.5444 124.598 86.9254 123.244C85.4894 122.042 83.7175 121.403 81.8703 121.403Z" fill="#73B4F7"/>
<path opacity="0.5" d="M134.545 36.9077L131.295 52.3075L129.744 59.6511L123.699 88.2869L90.8113 96.5519L94.5853 78.6806L96.0407 71.7805L99.4487 55.6316L105.425 27.3122L126.963 31.8592L131.938 32.9098C133.762 33.2952 134.929 35.0842 134.543 36.9077H134.545ZM72.8905 20.4466C71.067 20.0612 69.2757 21.2281 68.8904 23.0538L65.8569 37.4266L53.6672 95.1848L52.3237 101.553L51.2817 106.49L77.9584 99.7856L80.8433 86.1189L82.2621 79.3911L84.5614 68.4931L92.9061 28.9571L93.7737 24.8536L72.8926 20.4445L72.8905 20.4466ZM79.5882 47.8316C79.022 50.5141 76.3911 52.2278 73.7086 51.6638C71.0261 51.0976 69.3123 48.4646 69.8764 45.7842C70.4426 43.1017 73.0756 41.3858 75.7582 41.952C78.4385 42.5182 80.1544 45.1491 79.5882 47.8316ZM82.6195 33.3619C82.6022 33.5234 82.5764 33.6848 82.542 33.8463C81.9757 36.5288 79.3427 38.2425 76.6624 37.6785C76.5698 37.6591 76.4772 37.6354 76.3868 37.6117C76.3803 37.6117 76.376 37.6074 76.3717 37.6053C76.2985 37.5859 76.2253 37.5644 76.1543 37.5407C76.1306 37.5321 76.1048 37.5256 76.0832 37.5149C76.0186 37.4933 75.9541 37.4697 75.8938 37.4438C75.8701 37.4374 75.8464 37.4287 75.8249 37.418C75.7452 37.3878 75.6677 37.3512 75.5924 37.3168C75.5106 37.278 75.4309 37.2393 75.3534 37.1984C75.3448 37.1941 75.3405 37.1898 75.3319 37.1876C75.2651 37.1532 75.2027 37.1166 75.1403 37.0778C75.1144 37.0649 75.0907 37.0477 75.0649 37.0326C75.0003 36.9917 74.9357 36.9508 74.8755 36.9077C74.8023 36.8582 74.7312 36.8066 74.6623 36.7527C74.6537 36.7463 74.6472 36.742 74.6386 36.7334C74.5891 36.6946 74.5396 36.6559 74.4901 36.615C74.4621 36.5913 74.4384 36.5697 74.4126 36.5461C74.3867 36.5245 74.3631 36.503 74.3372 36.4772C74.3049 36.447 74.2705 36.4169 74.2403 36.3867C74.165 36.3157 74.0896 36.2382 74.0186 36.1585C73.9798 36.1155 73.9411 36.0703 73.9045 36.0272C73.8571 35.9755 73.8141 35.9174 73.7732 35.8614C73.7452 35.8291 73.7193 35.7925 73.6957 35.7602C73.6418 35.6892 73.588 35.6117 73.5385 35.5342C73.4954 35.4674 73.4545 35.405 73.4158 35.3361C73.3706 35.2586 73.3254 35.1811 73.2866 35.1015C73.2694 35.067 73.2522 35.0326 73.2349 34.9981C73.2263 34.9809 73.2177 34.9637 73.2091 34.9464C73.1704 34.8668 73.1359 34.785 73.1015 34.7032C73.0842 34.658 73.0649 34.6127 73.0498 34.5675C73.0326 34.5223 73.0153 34.4771 73.0003 34.4297C72.968 34.3393 72.9378 34.2446 72.912 34.1499C72.9012 34.1154 72.8926 34.081 72.8819 34.0465C72.8689 33.9906 72.8539 33.9367 72.8431 33.8786C72.8216 33.7774 72.8022 33.6741 72.7871 33.5707C72.7785 33.5212 72.7721 33.4717 72.7656 33.4222C72.7548 33.3145 72.7441 33.209 72.7355 33.0992C72.7355 33.0648 72.7312 33.0304 72.7312 32.9981C72.7312 32.9399 72.7269 32.8818 72.7269 32.8237C72.7269 32.6536 72.7355 32.4814 72.7548 32.3113C72.7721 32.1412 72.8001 31.9668 72.8367 31.7946C73.4029 29.1121 76.0337 27.3984 78.7162 27.9624C78.9488 28.0119 79.177 28.0765 79.3944 28.1562C79.4482 28.1755 79.5042 28.1949 79.5559 28.2186C79.6248 28.2444 79.6894 28.2724 79.7539 28.3047C79.8035 28.3263 79.8487 28.3478 79.896 28.3736C79.9305 28.3887 79.9649 28.4059 79.9994 28.4231C80.1092 28.4791 80.2147 28.5415 80.318 28.6061C80.3783 28.6427 80.4364 28.6815 80.4945 28.7224C80.6754 28.8451 80.8476 28.9807 81.0091 29.1293C81.0543 29.168 81.0995 29.2089 81.1404 29.252C81.1835 29.2908 81.2244 29.3338 81.2631 29.3747C81.3686 29.4824 81.4677 29.5965 81.5602 29.7127C81.6054 29.7665 81.6463 29.8225 81.6873 29.8785C81.8078 30.0421 81.9198 30.2144 82.0188 30.393C82.0403 30.4296 82.0619 30.4684 82.0834 30.5093C82.0963 30.5373 82.1135 30.5631 82.1286 30.5954C82.1587 30.6535 82.1846 30.7117 82.2126 30.772C82.2406 30.8301 82.2642 30.8882 82.2879 30.9485C82.2922 30.9593 82.2965 30.97 82.3008 30.9808C82.3202 31.0303 82.3396 31.082 82.3568 31.1315C82.3762 31.181 82.3934 31.2327 82.4085 31.2822C82.4236 31.3274 82.4386 31.3726 82.4515 31.4178C82.4666 31.4717 82.4817 31.5276 82.4989 31.5836C82.5118 31.6374 82.5269 31.6934 82.5377 31.7494C82.5377 31.7494 82.5377 31.7558 82.5377 31.7601C82.5484 31.8118 82.5613 31.8656 82.5678 31.9173C82.5872 32.0142 82.6022 32.1132 82.6152 32.2144C82.6216 32.2682 82.6259 32.3242 82.6324 32.378C82.6324 32.4146 82.6388 32.4512 82.641 32.49C82.6453 32.5416 82.6496 32.5955 82.6496 32.6471C82.6496 32.716 82.6518 32.7849 82.6518 32.8538C82.6518 32.9227 82.6496 32.9938 82.6453 33.0627C82.641 33.1595 82.6345 33.2564 82.6216 33.3533L82.6195 33.3619Z" fill="#73B4F7"/>
<path d="M52.3216 101.553L51.2796 106.489L38.7476 109.639C38.3708 109.734 38.1684 109.213 38.5086 109.028L52.3216 101.553Z" fill="#73B4F7"/>
<path opacity="0.75" d="M105.425 27.3143L99.4469 55.6315L96.0388 71.7804L94.5834 78.6805L90.8116 96.554L77.9565 99.7833L80.8414 86.1188L82.2602 79.391L84.5595 68.493L92.9042 28.9591L93.7718 24.8535L101.085 26.3972L105.425 27.3143Z" fill="#73B4F7"/>
<path d="M90.2471 97.1392L105.094 26.8037L132.029 32.4895C134.082 32.9223 135.4 34.946 134.965 36.9977L124.065 88.6395L90.2471 97.1392ZM105.757 27.8242L91.373 95.968L123.333 87.9355L134.123 36.819C134.459 35.2302 133.439 33.665 131.85 33.3313L105.757 27.8242Z" fill="#73B4F7"/>
<path d="M50.7158 107.075L68.4687 22.965C68.6775 21.9703 69.2631 21.1156 70.1157 20.5602C70.9682 20.0047 71.9844 19.8153 72.979 20.0241L94.2821 24.5215L78.3226 100.136L50.718 107.075H50.7158ZM72.1868 20.8035C71.6227 20.8035 71.0694 20.9671 70.585 21.2814C69.9262 21.712 69.472 22.3708 69.3105 23.1415L51.8439 105.904L77.5906 99.432L93.2616 25.1868L72.8025 20.8681C72.598 20.825 72.3934 20.8035 72.1889 20.8035H72.1868Z" fill="#73B4F7"/>
<path d="M74.7423 52.2016C74.3677 52.2016 73.9931 52.1629 73.6185 52.0832C72.2083 51.7861 70.9984 50.9573 70.2126 49.7495C69.4268 48.5417 69.1576 47.1014 69.4547 45.6934C69.7518 44.2832 70.5807 43.0733 71.7885 42.2875C72.9963 41.4995 74.4366 41.2326 75.8467 41.5297C77.2547 41.8268 78.4647 42.6556 79.2505 43.8613C80.0363 45.0691 80.3054 46.5094 80.0083 47.9195C79.7112 49.3297 78.8823 50.5396 77.6767 51.3254C76.7897 51.9024 75.7778 52.2016 74.7444 52.2016H74.7423ZM74.7208 42.2724C73.8531 42.2724 73.0027 42.5243 72.2578 43.0087C71.2438 43.6697 70.5463 44.6858 70.2965 45.8721C70.0468 47.0562 70.2728 48.2661 70.9338 49.2823C71.5947 50.2985 72.6109 50.9939 73.795 51.2436C74.9791 51.4933 76.1912 51.2673 77.2052 50.6063C78.2192 49.9454 78.9146 48.9292 79.1644 47.7451C79.4141 46.561 79.188 45.3489 78.5293 44.3349C77.8683 43.3209 76.8521 42.6255 75.668 42.3758C75.3537 42.309 75.0351 42.2767 74.7208 42.2767V42.2724ZM77.6939 38.2163C77.3193 38.2163 76.9447 38.1776 76.5701 38.0979C76.4711 38.0786 76.3742 38.0527 76.2773 38.0269L76.2342 38.014C76.1611 37.9946 76.09 37.9731 76.0168 37.9494C75.9802 37.9365 75.9544 37.9279 75.9307 37.9193C75.8683 37.8977 75.808 37.8762 75.7477 37.8525C75.7154 37.8417 75.6831 37.831 75.6551 37.8181C75.5712 37.7858 75.4893 37.747 75.4075 37.7104C75.315 37.6674 75.231 37.6243 75.1492 37.5812L75.1255 37.5683C75.0545 37.5317 74.9856 37.4908 74.9188 37.4499C74.8908 37.4348 74.8628 37.4176 74.8349 37.4004C74.7595 37.353 74.6885 37.3078 74.6239 37.2605C74.5485 37.2088 74.471 37.1528 74.3935 37.0925C74.3849 37.0861 74.372 37.0753 74.3569 37.0624C74.3074 37.0236 74.2579 36.9849 74.2105 36.944C74.1696 36.9095 74.1438 36.8859 74.1179 36.8622C74.1007 36.8493 74.0706 36.8234 74.0404 36.7933C74.0038 36.761 73.9672 36.7265 73.9328 36.6921C73.8574 36.621 73.7756 36.5371 73.696 36.4488C73.6551 36.4036 73.6099 36.3541 73.5689 36.3024C73.5259 36.2529 73.4742 36.1905 73.4269 36.1259C73.3967 36.0871 73.3644 36.0484 73.3386 36.0096C73.2869 35.9407 73.2288 35.8568 73.1728 35.7706C73.1254 35.6974 73.0802 35.6264 73.0372 35.5511C72.9898 35.4692 72.9425 35.3853 72.8972 35.2992L72.809 35.1226C72.7724 35.0473 72.7336 34.9568 72.697 34.8643L72.682 34.8277C72.6647 34.7868 72.6497 34.7459 72.6346 34.7028C72.6217 34.6727 72.6023 34.6188 72.5851 34.565C72.5506 34.4724 72.5183 34.367 72.4903 34.2593L72.4537 34.1258C72.4408 34.072 72.4279 34.0203 72.4171 33.9665C72.3935 33.8589 72.3741 33.7469 72.3569 33.6371C72.3482 33.5876 72.3396 33.5295 72.3332 33.4756C72.3203 33.3594 72.3095 33.2474 72.3009 33.1333C72.2987 33.0838 72.2966 33.0429 72.2966 33.002C72.2966 32.9546 72.2923 32.8901 72.2923 32.8276C72.2923 32.6274 72.303 32.4423 72.3224 32.2657C72.3418 32.0849 72.3719 31.8933 72.4107 31.7081C72.7078 30.3001 73.5367 29.0902 74.7423 28.3044C75.9501 27.5186 77.3904 27.2494 78.8005 27.5465C79.0459 27.5982 79.2957 27.6693 79.539 27.7575C79.5992 27.7791 79.6574 27.8006 79.7133 27.8243C79.7909 27.8523 79.864 27.8867 79.9372 27.9211C79.9782 27.9384 80.0298 27.9621 80.0815 27.99C80.1095 28.003 80.1353 28.0159 80.1633 28.0288L80.187 28.0396C80.3032 28.0998 80.4173 28.1644 80.5401 28.2419C80.6047 28.2828 80.6714 28.3259 80.736 28.3711C80.9297 28.5024 81.1192 28.651 81.2957 28.8125C81.3409 28.8512 81.3926 28.8986 81.4421 28.9481C81.4766 28.9782 81.5261 29.0299 81.5713 29.0773C81.6746 29.1827 81.7823 29.3055 81.8942 29.4433C81.9416 29.4992 81.9868 29.5617 82.0342 29.6241C82.1677 29.8049 82.2904 29.9944 82.3937 30.1839C82.4131 30.2183 82.4389 30.2635 82.4626 30.3087L82.5121 30.4013C82.5444 30.4637 82.5724 30.5283 82.6025 30.5929C82.6305 30.6553 82.6607 30.7221 82.6865 30.791C82.693 30.8017 82.6994 30.8233 82.708 30.8448C82.7231 30.8792 82.7425 30.9352 82.7619 30.9912C82.7791 31.0364 82.8006 31.0967 82.82 31.157C82.8329 31.1936 82.848 31.2452 82.8652 31.2991L82.9126 31.4691C82.9298 31.5402 82.9449 31.5962 82.9556 31.6521L82.9685 31.7103C82.9793 31.7598 82.9879 31.8071 82.9965 31.8567C83.0138 31.9449 83.031 32.0547 83.046 32.1688L83.074 32.4724C83.0783 32.5262 83.0826 32.5887 83.0826 32.6511C83.0826 32.7135 83.0848 32.7867 83.0848 32.8621C83.0848 32.9374 83.0827 33.0149 83.0783 33.0924C83.074 33.1936 83.0654 33.3013 83.0525 33.4089C83.0331 33.5898 83.0051 33.7663 82.9685 33.9364C82.6714 35.3444 81.8426 36.5543 80.6348 37.3401C79.7478 37.9171 78.7359 38.2163 77.7025 38.2163H77.6939ZM76.5141 37.2002C76.5916 37.2196 76.667 37.2389 76.7466 37.2562C77.9329 37.5059 79.1428 37.2798 80.1568 36.6189C81.1709 35.9579 81.8684 34.9418 82.1181 33.7577C82.1483 33.6156 82.172 33.467 82.1892 33.3163V33.312C82.2 33.2259 82.2064 33.1398 82.2107 33.0537C82.215 32.9848 82.2172 32.9224 82.2172 32.8599C82.2172 32.7953 82.2172 32.7307 82.215 32.6683C82.215 32.6145 82.2107 32.5736 82.2086 32.5305L82.1849 32.2679C82.1741 32.1818 82.1612 32.0956 82.144 32.0095C82.1332 31.9471 82.1246 31.904 82.1138 31.861L82.1031 31.8028C82.0945 31.7684 82.0858 31.7339 82.0772 31.6995L82.032 31.5423C82.0213 31.5057 82.0105 31.467 81.9954 31.4282C81.9782 31.3723 81.9631 31.3314 81.9481 31.2904C81.9265 31.2302 81.9093 31.185 81.8921 31.1397L81.8813 31.1118C81.8598 31.0558 81.8383 31.0063 81.8146 30.9567C81.7866 30.8965 81.7629 30.8426 81.7349 30.791L81.6897 30.7049C81.6746 30.6769 81.6574 30.6424 81.638 30.6123C81.5476 30.4487 81.4464 30.2915 81.3323 30.1365C81.2936 30.0848 81.2591 30.0375 81.2204 29.9879C81.1235 29.8674 81.0352 29.7683 80.9491 29.6779C80.9125 29.6392 80.8802 29.6047 80.8436 29.5724C80.792 29.5229 80.7554 29.4885 80.7188 29.4562C80.5659 29.3162 80.4087 29.1935 80.2451 29.0816C80.1891 29.0428 80.1375 29.0084 80.0836 28.9761C79.9782 28.9093 79.8834 28.8555 79.793 28.8081L79.7715 28.7974C79.7521 28.7866 79.7327 28.778 79.7133 28.7694L79.6832 28.7543C79.6466 28.7349 79.61 28.7177 79.5734 28.7027C79.5067 28.6704 79.455 28.6467 79.399 28.6273L79.3732 28.6165C79.3323 28.5993 79.2892 28.5842 79.2462 28.5692C79.0352 28.4917 78.8263 28.4314 78.6197 28.3883C77.4334 28.1386 76.2235 28.3646 75.2095 29.0256C74.1954 29.6865 73.5001 30.7027 73.2503 31.8868C73.2159 32.044 73.1922 32.2033 73.175 32.3583C73.1577 32.509 73.1491 32.6597 73.1491 32.8276C73.1491 32.8814 73.1491 32.9353 73.1534 32.9869C73.1534 33.0257 73.1534 33.0515 73.1577 33.0774C73.1642 33.1742 73.175 33.2776 73.1857 33.3788C73.19 33.4175 73.1965 33.4627 73.2051 33.5058C73.2202 33.6048 73.2374 33.6996 73.2568 33.7921C73.2654 33.8373 73.2762 33.8804 73.2869 33.9256L73.3171 34.0376C73.3407 34.1258 73.3666 34.2076 73.3946 34.2873C73.4118 34.3368 73.4269 34.3777 73.4419 34.4143C73.457 34.4595 73.4678 34.4832 73.4764 34.5069L73.4936 34.5478C73.5216 34.6167 73.5517 34.6899 73.5862 34.7609L73.2116 34.9762L73.5969 34.7846L73.6615 34.9159C73.696 34.9848 73.739 35.0559 73.7799 35.1269C73.8165 35.1894 73.8531 35.2475 73.8897 35.3056C73.9349 35.3745 73.9802 35.4413 74.0297 35.5058C74.0555 35.5424 74.077 35.5683 74.0964 35.592L74.1136 35.6135C74.1459 35.6587 74.1825 35.7039 74.2191 35.7448C74.2622 35.7965 74.2966 35.8352 74.3311 35.8718C74.3978 35.945 74.4624 36.0118 74.5313 36.0764C74.5636 36.1087 74.5916 36.1345 74.6174 36.1582L74.6368 36.1775C74.6519 36.1926 74.6691 36.2055 74.6842 36.2206C74.7186 36.2507 74.7358 36.2658 74.7552 36.283C74.8047 36.3261 74.8499 36.3605 74.8951 36.395L74.9253 36.4187C74.992 36.4703 75.0523 36.5134 75.1126 36.5543C75.1729 36.5974 75.231 36.634 75.2891 36.6706C75.302 36.6792 75.3193 36.6899 75.3365 36.6986L75.3623 36.7136C75.4161 36.7481 75.47 36.7782 75.5281 36.8083L75.5496 36.8213C75.6207 36.8579 75.696 36.8945 75.7714 36.9311C75.8338 36.9591 75.9049 36.9913 75.9759 37.0193L76.0491 37.0473C76.1029 37.0689 76.1589 37.0904 76.2149 37.1076L76.2708 37.127C76.3484 37.1528 76.4108 37.1722 76.4775 37.1894L76.5163 37.2002H76.5141ZM74.9081 36.4058C74.9081 36.4058 74.9124 36.4101 74.9145 36.4122C74.9124 36.4122 74.9102 36.4079 74.9081 36.4058Z" fill="#73B4F7"/>
<path d="M77.3921 100.368L93.4399 24.3428L105.935 26.9801L91.1772 96.9044L77.3921 100.368ZM94.103 25.3633L78.5181 99.1972L90.443 96.2004L104.913 27.6453L94.1008 25.3633H94.103Z" fill="#73B4F7"/>
<path opacity="0.25" d="M82.5399 33.8434C81.9736 36.5259 79.3406 38.2397 76.6603 37.6756C73.9777 37.1094 72.264 34.4785 72.8281 31.796C73.3943 29.1135 76.0252 27.3998 78.7077 27.9638C81.3902 28.53 83.1039 31.1631 82.5399 33.8434Z" fill="#73B4F7"/>
<path opacity="0.75" d="M79.5862 47.8314C79.02 50.5139 76.3892 52.2276 73.7067 51.6635C71.0241 51.0973 69.3104 48.4643 69.8745 45.7839C70.4407 43.1014 73.0737 41.3856 75.7562 41.9518C78.4366 42.518 80.1525 45.1488 79.5862 47.8314Z" fill="#73B4F7"/>
<path opacity="0.25" d="M65.8551 37.4258L53.6653 95.184L52.3219 101.552L47.5683 104.125L46.8255 98.9623L39.6068 48.8125C39.3571 47.0643 40.4099 45.3937 42.0956 44.8641L65.8529 37.4258H65.8551ZM132.903 44.6875L139.045 44.5088C141.168 44.145 143.134 45.7145 143.248 47.8652L145.084 82.4043L123.699 88.2861L132.903 44.6854V44.6875Z" fill="#73B4F7"/>
<path d="M123.79 31.6307L99.3846 26.4788L118.309 20.5561C119.521 20.1772 120.808 20.3796 121.844 21.1137C122.879 21.8479 123.497 22.9975 123.54 24.2656L123.79 31.6307ZM102.786 26.3173L122.892 30.5607L122.681 24.2936C122.647 23.2968 122.16 22.3926 121.346 21.8156C120.533 21.2386 119.519 21.0793 118.567 21.3764L102.788 26.3152L102.786 26.3173ZM47.2304 104.797L39.1829 48.8733C38.9008 46.9077 40.072 45.0476 41.9687 44.4534L66.4301 36.7955L52.7031 101.837L47.2326 104.797H47.2304ZM65.2826 38.0571L42.2249 45.2737C40.7329 45.7409 39.8115 47.2027 40.0333 48.7506L47.9064 103.454L51.941 101.271L53.2435 95.0984L65.2826 38.0593V38.0571ZM123.133 88.8894L132.552 44.2661L139.005 44.0788C140.128 43.8958 141.28 44.1972 142.169 44.9077C143.067 45.6246 143.618 46.6946 143.679 47.8421L145.534 82.7278L123.133 88.8894ZM133.256 45.1057L124.268 87.6838L144.637 82.0798L142.817 47.8851C142.77 46.9831 142.337 46.1413 141.631 45.5772C140.925 45.0132 140.01 44.7763 139.119 44.9292L139.058 44.9357L133.254 45.1057H133.256Z" fill="#73B4F7"/>
<g opacity="0.25">
<path d="M164.986 133.801V142.361C164.971 144.85 164.639 146.677 163.989 147.84C163.339 149.007 162.331 149.588 160.968 149.588H160.934C159.543 149.58 158.523 148.981 157.879 147.793C157.229 146.596 156.904 144.705 156.904 142.122V133.278C156.951 130.963 157.289 129.235 157.914 128.091C158.542 126.95 159.543 126.38 160.923 126.38H160.936C162.34 126.382 163.369 126.996 164.017 128.223C164.665 129.452 164.99 131.31 164.99 133.799L164.986 133.801Z" fill="#575656"/>
<path d="M191.671 133.588C191.378 131.511 190.879 129.5 190.194 127.579C187.884 121.073 183.457 115.573 177.746 111.883C173.255 108.98 167.961 107.211 162.273 106.972C161.831 106.952 161.382 106.939 160.934 106.939C157.917 106.939 155.002 107.368 152.247 108.173C152.152 108.199 152.057 108.227 151.965 108.255C147.05 109.734 142.651 112.395 139.097 115.913C133.409 121.543 129.882 129.347 129.882 137.98C129.882 145.507 132.558 152.407 137.013 157.778C141.459 163.137 147.663 166.98 154.74 168.411H154.742C156.746 168.82 158.809 169.029 160.934 169.029C161.382 169.029 161.831 169.021 162.273 169.001C162.533 168.991 162.794 168.973 163.052 168.956C165.323 168.801 167.528 168.407 169.644 167.787C172.624 166.922 175.408 165.621 177.946 163.953C179.421 162.984 180.812 161.895 182.097 160.693C187.163 155.972 190.648 149.576 191.671 142.385C191.875 140.945 191.983 139.472 191.983 137.976C191.983 136.479 191.875 135.018 191.671 133.584V133.588ZM173.001 141.149C173.001 145.821 171.95 149.431 169.851 151.97C167.995 154.207 165.468 155.462 162.273 155.722C161.851 155.759 161.414 155.776 160.968 155.776H160.934C160.858 155.776 160.783 155.776 160.71 155.774C156.983 155.714 154.09 154.435 152.025 151.946C149.919 149.395 148.865 145.795 148.865 141.149V134.826C148.865 132.314 149.166 130.111 149.775 128.219C149.844 128.004 149.915 127.793 149.993 127.582C150.499 126.217 151.172 125.028 152.012 124.008C152.778 123.08 153.659 122.324 154.658 121.736C156.393 120.712 158.482 120.199 160.921 120.199H160.934C161.392 120.199 161.838 120.219 162.273 120.253C165.463 120.526 167.989 121.784 169.838 124.029C170.676 125.043 171.347 126.23 171.849 127.582C172.62 129.62 173.001 132.042 173.001 134.843V141.149Z" fill="#575656"/>
</g>
<path d="M160.966 150.019H160.932C159.373 150.008 158.219 149.328 157.498 147.997C156.807 146.723 156.471 144.802 156.471 142.122V133.278C156.518 130.897 156.878 129.084 157.534 127.885C158.24 126.602 159.381 125.949 160.921 125.949C162.507 125.954 163.67 126.649 164.396 128.02C165.074 129.308 165.418 131.252 165.418 133.799V142.359C165.401 144.951 165.059 146.811 164.365 148.049C163.638 149.356 162.495 150.019 160.968 150.019H160.966ZM160.932 126.813C159.7 126.813 158.839 127.299 158.288 128.3C157.698 129.377 157.377 131.054 157.332 133.286V142.122C157.332 144.619 157.642 146.458 158.255 147.586C158.824 148.634 159.7 149.147 160.936 149.155H160.968C162.176 149.155 163.039 148.656 163.614 147.629C164.225 146.535 164.542 144.763 164.557 142.357V133.799C164.557 131.394 164.247 129.585 163.633 128.423C163.063 127.34 162.178 126.813 160.934 126.81L160.932 126.813Z" fill="#575656"/>
<path d="M160.934 169.462C158.819 169.462 156.72 169.253 154.695 168.844L154.654 168.835C147.654 167.418 141.273 163.591 136.681 158.055C132.018 152.432 129.452 145.304 129.452 137.982C129.452 129.519 132.769 121.572 138.793 115.609C142.438 112.003 146.948 109.316 151.84 107.845L151.93 107.82C151.999 107.8 152.066 107.779 152.137 107.761C154.97 106.935 157.932 106.513 160.934 106.513C161.373 106.513 161.829 106.523 162.292 106.545C167.877 106.78 173.3 108.502 177.978 111.525C183.808 115.292 188.291 120.946 190.599 127.439C191.3 129.407 191.804 131.456 192.097 133.532C192.306 135 192.413 136.498 192.413 137.984C192.413 139.469 192.308 140.976 192.097 142.453C191.092 149.526 187.645 156.118 182.392 161.016C181.093 162.226 179.677 163.339 178.183 164.318C175.573 166.032 172.742 167.341 169.765 168.204C167.605 168.835 165.358 169.233 163.082 169.388C162.82 169.408 162.557 169.423 162.292 169.434C161.846 169.451 161.39 169.462 160.936 169.462H160.934ZM154.783 167.983L154.828 167.991C156.809 168.396 158.863 168.6 160.934 168.6C161.377 168.6 161.821 168.592 162.253 168.575C162.51 168.564 162.766 168.549 163.02 168.529C165.235 168.379 167.42 167.991 169.522 167.378C172.417 166.536 175.171 165.266 177.707 163.597C179.16 162.643 180.538 161.56 181.802 160.383C186.911 155.621 190.265 149.207 191.242 142.328C191.447 140.892 191.55 139.431 191.55 137.982C191.55 136.533 191.447 135.077 191.242 133.65C190.958 131.633 190.467 129.639 189.787 127.725C187.544 121.409 183.184 115.91 177.511 112.246C172.962 109.307 167.687 107.632 162.253 107.404C161.803 107.382 161.36 107.372 160.934 107.372C158.014 107.372 155.134 107.781 152.367 108.588C152.296 108.607 152.238 108.625 152.178 108.642L152.085 108.67C147.332 110.102 142.944 112.713 139.4 116.22C133.54 122.02 130.313 129.749 130.313 137.982C130.313 145.104 132.81 152.036 137.344 157.506C141.801 162.88 147.992 166.598 154.783 167.983Z" fill="#575656"/>
<path d="M160.968 156.206H160.934C160.854 156.206 160.774 156.206 160.695 156.203C156.862 156.141 153.831 154.8 151.691 152.218C149.527 149.598 148.432 145.874 148.432 141.148V134.825C148.432 132.276 148.746 130.007 149.364 128.086C149.433 127.871 149.506 127.656 149.588 127.432C150.107 126.03 150.811 124.786 151.68 123.733C152.475 122.773 153.403 121.974 154.438 121.363C156.232 120.304 158.413 119.768 160.919 119.768C161.377 119.768 161.827 119.785 162.305 119.824C165.605 120.106 168.251 121.43 170.167 123.755C171.031 124.799 171.733 126.035 172.249 127.43C173.031 129.499 173.429 131.994 173.429 134.842V141.148C173.429 145.904 172.335 149.637 170.18 152.244C168.249 154.569 165.601 155.883 162.305 156.15C161.874 156.186 161.422 156.206 160.966 156.206H160.968ZM160.934 120.627C158.57 120.627 156.535 121.124 154.875 122.103C153.924 122.663 153.073 123.395 152.343 124.28C151.536 125.26 150.882 126.42 150.395 127.729C150.318 127.938 150.249 128.14 150.184 128.345C149.592 130.183 149.293 132.362 149.293 134.823V141.146C149.293 145.667 150.324 149.206 152.354 151.667C154.326 154.044 157.14 155.282 160.714 155.34C160.791 155.342 160.86 155.342 160.931 155.342H160.966C161.399 155.342 161.825 155.325 162.234 155.288C165.291 155.041 167.741 153.831 169.517 151.691C171.541 149.245 172.568 145.697 172.568 141.146V134.84C172.568 132.095 172.189 129.703 171.444 127.729C170.96 126.422 170.307 125.27 169.504 124.299C167.739 122.157 165.293 120.939 162.234 120.678C161.782 120.642 161.356 120.624 160.931 120.624L160.934 120.627Z" fill="#575656"/>
<path d="M155.076 89.3285C154.882 89.3285 154.706 89.1972 154.658 88.9991C154.602 88.7688 154.745 88.5362 154.975 88.4781L157.485 87.8667C157.718 87.8107 157.948 87.9528 158.006 88.1832C158.062 88.4135 157.92 88.646 157.69 88.7042L155.179 89.3156C155.145 89.3242 155.111 89.3285 155.078 89.3285H155.076ZM52.9443 114.188C52.7505 114.188 52.574 114.057 52.5266 113.859C52.4707 113.628 52.6128 113.396 52.8431 113.338L57.9498 112.096C58.1823 112.037 58.4148 112.182 58.4708 112.412C58.5268 112.642 58.3847 112.875 58.1543 112.933L53.0476 114.175C53.0132 114.184 52.9788 114.188 52.9465 114.188H52.9443ZM63.1577 111.702C62.9639 111.702 62.7874 111.57 62.74 111.372C62.6841 111.142 62.8262 110.909 63.0565 110.851L68.1632 109.609C68.3957 109.551 68.6261 109.695 68.6842 109.925C68.7402 110.156 68.5981 110.388 68.3677 110.446L63.261 111.689C63.2266 111.697 63.1921 111.702 63.1599 111.702H63.1577ZM73.3711 109.215C73.1773 109.215 73.0008 109.084 72.9534 108.886C72.8975 108.655 73.0395 108.423 73.2699 108.365L78.3766 107.122C78.607 107.066 78.8416 107.208 78.8976 107.439C78.9536 107.669 78.8115 107.902 78.5811 107.96L73.4744 109.202C73.44 109.211 73.4055 109.215 73.3732 109.215H73.3711ZM83.5845 106.728C83.3907 106.728 83.2142 106.597 83.1668 106.399C83.1108 106.169 83.2529 105.936 83.4833 105.878L88.59 104.636C88.8225 104.58 89.055 104.722 89.111 104.952C89.167 105.183 89.0249 105.415 88.7945 105.473L83.6878 106.715C83.6534 106.724 83.6189 106.728 83.5866 106.728H83.5845ZM93.7979 104.242C93.6041 104.242 93.4276 104.11 93.3802 103.912C93.3242 103.682 93.4663 103.449 93.6967 103.391L98.8034 102.149C99.0338 102.091 99.2663 102.235 99.3244 102.466C99.3804 102.696 99.2383 102.928 99.0079 102.987L93.9012 104.229C93.8668 104.237 93.8323 104.242 93.8 104.242H93.7979ZM104.011 101.755C103.818 101.755 103.641 101.624 103.594 101.426C103.538 101.195 103.68 100.963 103.91 100.905L109.017 99.6625C109.249 99.6065 109.48 99.7486 109.538 99.9789C109.594 100.209 109.452 100.442 109.221 100.5L104.115 101.742C104.08 101.751 104.046 101.755 104.013 101.755H104.011ZM114.225 99.2685C114.031 99.2685 113.854 99.1372 113.807 98.9391C113.751 98.7087 113.893 98.4762 114.123 98.4181L119.23 97.1759C119.461 97.1177 119.693 97.262 119.751 97.4923C119.807 97.7227 119.665 97.9552 119.435 98.0133L114.328 99.2556C114.294 99.2642 114.259 99.2685 114.227 99.2685H114.225ZM124.438 96.7819C124.244 96.7819 124.068 96.6506 124.02 96.4525C123.964 96.2221 124.107 95.9896 124.337 95.9315L129.444 94.6893C129.676 94.6333 129.909 94.7754 129.965 95.0057C130.021 95.2361 129.878 95.4686 129.648 95.5267L124.541 96.769C124.507 96.7776 124.473 96.7819 124.44 96.7819H124.438ZM134.651 94.2953C134.458 94.2953 134.281 94.1639 134.234 93.9659C134.178 93.7355 134.32 93.503 134.55 93.4449L139.657 92.2026C139.889 92.1467 140.12 92.2888 140.178 92.5191C140.234 92.7495 140.092 92.982 139.861 93.0401L134.755 94.2823C134.72 94.291 134.686 94.2953 134.654 94.2953H134.651ZM144.865 91.8087C144.671 91.8087 144.495 91.6773 144.447 91.4793C144.391 91.2489 144.533 91.0164 144.764 90.9583L149.87 89.716C150.103 89.6601 150.335 89.8021 150.391 90.0325C150.447 90.2629 150.305 90.4954 150.075 90.5535L144.968 91.7957C144.934 91.8044 144.899 91.8087 144.867 91.8087H144.865ZM45.3273 116.042C45.1336 116.042 44.957 115.91 44.9097 115.712C44.8537 115.482 44.9958 115.25 45.2261 115.191L47.7364 114.58C47.9689 114.524 48.1993 114.666 48.2574 114.896C48.3134 115.127 48.1713 115.359 47.9409 115.417L45.4307 116.029C45.3962 116.037 45.3618 116.042 45.3295 116.042H45.3273Z" fill="#73B4F7"/>
<path d="M49.7215 179.359C49.4997 179.359 49.3124 179.189 49.293 178.965L49.0713 176.39C49.0519 176.154 49.2263 175.945 49.4631 175.925C49.6999 175.899 49.9088 176.08 49.9282 176.317L50.1499 178.892C50.1693 179.129 49.9949 179.338 49.7581 179.357C49.7452 179.357 49.7322 179.357 49.7215 179.357V179.359ZM53.4029 186.615C51.7969 186.615 50.3673 185.594 49.8463 184.074C49.7688 183.85 49.8894 183.605 50.1133 183.527C50.3372 183.45 50.5826 183.57 50.6601 183.794C51.0886 185.043 52.3114 185.857 53.6484 185.743L54.2706 185.691C54.5095 185.669 54.7162 185.848 54.7356 186.085C54.755 186.322 54.5784 186.531 54.3416 186.55L53.7194 186.602C53.6118 186.61 53.5063 186.615 53.4008 186.615H53.4029ZM59.3277 186.128C59.106 186.128 58.9187 185.958 58.8993 185.734C58.8799 185.497 59.0565 185.288 59.2933 185.269L64.3139 184.847C64.5507 184.83 64.7595 185.004 64.7789 185.241C64.7983 185.478 64.6217 185.687 64.3849 185.706L59.3643 186.128C59.3514 186.128 59.3407 186.128 59.3277 186.128ZM69.3689 185.284C69.1472 185.284 68.9599 185.114 68.9405 184.89C68.9211 184.653 69.0976 184.444 69.3345 184.425L74.355 184.003C74.594 183.984 74.8007 184.158 74.8201 184.397C74.8394 184.634 74.6629 184.843 74.4261 184.862L69.4055 185.284C69.3926 185.284 69.3818 185.284 69.3689 185.284ZM79.4101 184.44C79.1883 184.44 79.001 184.27 78.9816 184.046C78.9623 183.809 79.1388 183.6 79.3756 183.581L84.3962 183.159C84.6352 183.138 84.8419 183.316 84.8612 183.553C84.8806 183.79 84.7041 183.999 84.4673 184.018L79.4467 184.44C79.4338 184.44 79.423 184.44 79.4101 184.44ZM89.4512 183.596C89.2295 183.596 89.0422 183.426 89.0228 183.202C89.0034 182.965 89.18 182.756 89.4168 182.737L94.4374 182.315C94.6742 182.296 94.883 182.47 94.9024 182.709C94.9218 182.946 94.7452 183.155 94.5084 183.174L89.4878 183.596C89.4749 183.596 89.4641 183.596 89.4512 183.596ZM99.4924 182.752C99.2706 182.752 99.0833 182.582 99.064 182.358C99.0446 182.121 99.2211 181.913 99.458 181.893L104.479 181.471C104.715 181.45 104.924 181.628 104.944 181.865C104.963 182.102 104.786 182.311 104.55 182.33L99.529 182.752C99.5161 182.752 99.5053 182.752 99.4924 182.752ZM109.534 181.908C109.312 181.908 109.125 181.738 109.105 181.514C109.086 181.277 109.262 181.069 109.499 181.049L114.52 180.627C114.757 180.608 114.965 180.784 114.985 181.021C115.004 181.258 114.828 181.467 114.591 181.486L109.57 181.908C109.557 181.908 109.546 181.908 109.534 181.908ZM119.575 181.064C119.353 181.064 119.166 180.894 119.146 180.67C119.127 180.433 119.303 180.225 119.54 180.205L124.561 179.783C124.798 179.762 125.007 179.94 125.026 180.177C125.045 180.414 124.869 180.623 124.632 180.642L119.611 181.064C119.598 181.064 119.588 181.064 119.575 181.064ZM129.616 180.22C129.394 180.22 129.207 180.05 129.187 179.826C129.168 179.59 129.345 179.381 129.581 179.361L134.602 178.939C134.839 178.92 135.048 179.097 135.067 179.333C135.086 179.57 134.91 179.779 134.673 179.798L129.652 180.22C129.64 180.22 129.629 180.22 129.616 180.22ZM139.657 179.376C139.435 179.376 139.248 179.206 139.229 178.982C139.209 178.746 139.386 178.537 139.623 178.517L144.643 178.095C144.88 178.074 145.089 178.253 145.108 178.489C145.128 178.726 144.951 178.935 144.714 178.954L139.694 179.376C139.681 179.376 139.67 179.376 139.657 179.376ZM149.698 178.532C149.476 178.532 149.289 178.362 149.27 178.139C149.25 177.902 149.427 177.693 149.664 177.673L154.684 177.252C154.921 177.232 155.13 177.409 155.149 177.645C155.169 177.882 154.992 178.091 154.755 178.111L149.735 178.532C149.722 178.532 149.711 178.532 149.698 178.532ZM159.75 177.697C159.528 177.697 159.341 177.527 159.322 177.303C159.302 177.066 159.479 176.858 159.716 176.838L162.291 176.623C162.53 176.603 162.736 176.78 162.756 177.017C162.775 177.254 162.598 177.462 162.362 177.482L159.787 177.697C159.774 177.697 159.763 177.697 159.75 177.697Z" fill="#73B4F7"/>
<g opacity="0.5">
<path d="M149.504 31.9361L155.197 24.4117H149.674V21.8066H159.367V23.712L153.632 31.301H159.546V33.906H149.504V31.9361Z" fill="#575656"/>
<path d="M170.075 50.7759L177.352 41.1567H170.288V37.8262H182.68V40.259L175.35 49.9621H182.911V53.2927H170.075V50.7759Z" fill="#575656"/>
<path d="M151.739 63.855L162.03 49.0322H151.752V45.5596H167.363V48.0182L157.1 62.9271H167.591V66.3717H151.739V63.855Z" fill="#575656"/>
</g>
<path d="M159.976 34.3363H149.076V31.7937L154.331 24.8441H149.244V21.3779H159.797V23.8559L154.497 30.8701H159.976V34.3363ZM149.937 33.4751H159.115V31.7313H152.768L158.936 23.5674V22.2391H150.105V23.9829H156.062L149.937 32.0822V33.4751ZM183.341 53.7232H169.645V50.6316L176.487 41.5873H169.858V37.3956H183.111V40.4032L176.213 49.5315H183.341V53.7232ZM170.506 52.8621H182.48V50.3927H174.484L182.25 40.1147V38.2567H170.719V40.7261H178.217L170.506 50.9223V52.8642V52.8621ZM168.021 66.8021H151.308V63.7192L161.207 49.4605H151.321V45.1267H167.795V48.1493L157.92 62.4942H168.023V66.8L168.021 66.8021ZM152.169 65.941H167.16V63.3575H156.279L166.932 47.8824V45.9878H152.18V48.5993H162.852L152.167 63.9883V65.9388L152.169 65.941Z" fill="#575656"/>
<path d="M47.8866 142.74C42.1254 142.74 41.2535 137.857 41.247 137.808C41.2083 137.573 41.3676 137.351 41.6022 137.313C41.8369 137.276 42.0587 137.433 42.0974 137.666C42.1276 137.838 42.8725 141.877 47.8887 141.877C52.905 141.877 53.6521 137.838 53.6801 137.666C53.7188 137.431 53.9406 137.272 54.1752 137.31C54.4099 137.349 54.5692 137.571 54.5305 137.806C54.5219 137.855 53.6521 142.738 47.8909 142.738L47.8866 142.74ZM70.9937 142.74C65.2326 142.74 64.3606 137.857 64.3542 137.808C64.3154 137.573 64.4747 137.351 64.7094 137.313C64.9441 137.276 65.1658 137.433 65.2046 137.666C65.2347 137.838 65.9796 141.877 70.9959 141.877C76.0122 141.877 76.7592 137.838 76.7872 137.666C76.826 137.431 77.0477 137.272 77.2824 137.31C77.5171 137.349 77.6764 137.571 77.6376 137.806C77.629 137.855 76.7592 142.738 70.9981 142.738L70.9937 142.74Z" fill="#73B4F7"/>
<path d="M59.4415 156.74C61.3831 156.74 62.9572 155.558 62.9572 154.099C62.9572 152.64 61.3831 151.457 59.4415 151.457C57.4998 151.457 55.9258 152.64 55.9258 154.099C55.9258 155.558 57.4998 156.74 59.4415 156.74Z" fill="#73B4F7"/>
<path opacity="0.25" d="M89.5632 126.128C89.533 126.054 89.5029 125.979 89.4685 125.908C89.4555 125.882 89.4426 125.854 89.4297 125.826C89.5137 126.009 89.5912 126.199 89.6622 126.39C89.6471 126.347 89.6321 126.304 89.6148 126.261C89.5998 126.218 89.5804 126.173 89.5632 126.13V126.128ZM89.2876 125.531C89.2682 125.493 89.2489 125.456 89.2295 125.419C89.2768 125.51 89.3221 125.6 89.3673 125.693C89.35 125.654 89.3328 125.613 89.3113 125.574C89.3027 125.559 89.2962 125.544 89.2876 125.531ZM89.1025 125.183C89.0809 125.146 89.0594 125.109 89.0379 125.075C89.0982 125.178 89.1584 125.284 89.2144 125.389C89.2144 125.389 89.2144 125.385 89.2123 125.383C89.1757 125.316 89.1391 125.249 89.1025 125.183ZM89.8474 126.931C89.8474 126.931 89.8452 126.922 89.8431 126.918C89.8431 126.918 89.8431 126.916 89.8431 126.913C89.8818 127.04 89.9163 127.168 89.9464 127.297C89.9378 127.26 89.9292 127.223 89.9206 127.189C89.8947 127.105 89.8732 127.019 89.8474 126.933V126.931ZM88.8743 124.812C88.9152 124.875 88.9561 124.939 88.9948 125.004C88.9862 124.991 88.9797 124.978 88.9711 124.965C88.9388 124.913 88.9065 124.864 88.8743 124.812ZM89.7333 126.582C89.7333 126.582 89.7311 126.575 89.729 126.571C89.7677 126.683 89.8043 126.793 89.8388 126.907C89.8172 126.834 89.7957 126.761 89.772 126.69C89.7591 126.653 89.7462 126.619 89.7333 126.582ZM88.5836 124.386C88.6568 124.485 88.7257 124.584 88.7946 124.687C88.7279 124.586 88.6568 124.487 88.5858 124.388L88.5836 124.386ZM154.74 168.413H154.742C156.747 168.822 158.809 169.031 160.934 169.031C161.382 169.031 161.832 169.022 162.273 169.003C162.534 168.992 162.794 168.975 163.053 168.958C165.324 168.803 167.529 168.409 169.645 167.789C169.996 167.687 170.342 167.578 170.687 167.463C170.342 167.578 169.996 167.685 169.645 167.789C167.529 168.406 165.326 168.803 163.053 168.958C162.794 168.975 162.534 168.992 162.273 169.003C161.832 169.02 161.382 169.031 160.934 169.031C158.809 169.031 156.747 168.822 154.742 168.413H154.74C153.259 168.114 151.817 167.707 150.419 167.203H150.415C151.812 167.707 153.257 168.114 154.738 168.413H154.74ZM30.0224 49.7963H39.7514L39.6093 48.8103C39.3595 47.0621 40.4123 45.3915 42.098 44.8618L65.8554 37.4235L68.8888 23.0507C69.2742 21.2251 71.0654 20.0582 72.8889 20.4436L93.77 24.8527L101.086 26.3964L118.438 20.9646C120.707 20.2541 123.03 21.9011 123.112 24.2779L123.342 31.094L105.426 27.3113L126.963 31.8583L131.939 32.9089C133.762 33.2943 134.929 35.0833 134.544 36.9069L132.873 44.8166L132.901 44.6853L139.043 44.5066C141.166 44.1428 143.132 45.7122 143.246 47.863L145.082 82.4021L123.698 88.2839L154.768 80.4753C152.585 77.3191 151.306 73.4891 151.306 69.3598C151.306 67.9539 151.455 66.5847 151.737 65.2628V63.8505L152.402 62.8925C153.384 60.0915 154.984 57.5791 157.037 55.5252C157.455 55.1075 157.892 54.7092 158.346 54.3303L162.028 49.0277H151.748V45.5551H167.361V48.0137L165.649 50.4982C167.294 50.0439 169.025 49.7985 170.812 49.792L177.348 41.1502H170.284V37.8197H182.676V40.2525L175.471 49.7899H186.974C192.375 49.7899 197.269 47.5982 200.81 44.0588C204.352 40.5173 206.541 35.628 206.541 30.2221C206.541 19.4145 197.779 10.6543 186.974 10.6543H30.0224C24.6207 10.6543 19.7272 12.846 16.1856 16.3853C12.6419 19.9269 10.4546 24.8161 10.4546 30.2221C10.4546 41.0297 19.2148 49.7899 30.0224 49.7899V49.7963ZM149.507 31.9358L155.197 24.4114H149.674V21.8064H159.367V23.7095L153.632 31.2985H159.543V33.9035H149.504V31.9358H149.507ZM131.504 128.067C131.517 128.033 131.528 127.996 131.538 127.96C131.525 127.994 131.515 128.031 131.504 128.067ZM88.3554 124.089C88.4071 124.153 88.4566 124.22 88.5083 124.285C88.4652 124.227 88.4221 124.166 88.3748 124.11C88.3683 124.102 88.3619 124.095 88.3554 124.089ZM92.9605 160.012L90.1595 128.569C90.1531 128.5 90.1466 128.433 90.1359 128.367C90.1337 128.315 90.1272 128.268 90.1208 128.218C90.1165 128.197 90.1143 128.177 90.1122 128.156C90.1315 128.291 90.1466 128.429 90.1595 128.567L92.9605 160.01C93.3028 163.849 90.9841 167.311 87.5265 168.577C90.9819 167.311 93.3028 163.849 92.9605 160.01V160.012ZM90.0842 127.964C90.0713 127.887 90.0562 127.807 90.0433 127.729C90.0304 127.656 90.0131 127.583 89.9981 127.512C89.9895 127.467 89.9765 127.426 89.9658 127.381C89.9636 127.37 89.9615 127.359 89.9572 127.348C90.0174 127.6 90.067 127.859 90.1057 128.119C90.1057 128.11 90.1036 128.102 90.1014 128.093C90.0971 128.05 90.0906 128.007 90.0842 127.964ZM87.2208 122.928C87.3069 123.002 87.3931 123.077 87.4749 123.152C87.4619 123.142 87.4512 123.129 87.4383 123.118C87.3758 123.064 87.3134 123.008 87.2488 122.954C87.238 122.946 87.2294 122.937 87.2187 122.928H87.2208ZM27.3183 127.88C28.2053 126.948 29.3076 126.216 30.5584 125.772C30.7199 125.714 30.8857 125.663 31.0515 125.615C30.8835 125.663 30.7178 125.716 30.5563 125.772L29.5272 115.583C29.116 111.522 31.1656 107.608 34.7394 105.636L46.8258 98.9601L45.3834 88.9319H30.0224C24.6207 88.9319 19.7272 91.1235 16.1856 94.6629C12.6419 98.2044 10.4546 103.094 10.4546 108.5C10.4546 118.39 17.7917 126.565 27.3183 127.88Z" fill="#73B4F7"/>
<path opacity="0.25" d="M77.9569 99.7826L75.5908 100.379L77.9547 99.7826L79.4811 99.3994L77.9569 99.7826Z" fill="#73B4F7"/>
<path opacity="0.25" d="M86.9218 122.689C87.0036 122.752 87.0832 122.816 87.1629 122.881C87.1241 122.849 87.0854 122.816 87.0466 122.784C87.0423 122.782 87.0402 122.78 87.0359 122.775C86.9993 122.745 86.9605 122.717 86.9218 122.687V122.689ZM186.978 167.203H175.161V174.406C175.161 179.769 171.008 184.211 165.66 184.572L47.2178 192.596C41.7344 192.967 36.9442 188.921 36.393 183.455L35.3704 173.373C35.8677 173.42 36.3801 173.423 36.8946 173.375C36.378 173.423 35.8677 173.42 35.3704 173.375C31.9344 173.054 29.0344 170.626 28.1172 167.297C23.4734 167.745 19.3032 169.816 16.1837 172.936C12.64 176.477 10.4526 181.369 10.4526 186.773C10.4526 197.58 19.2128 206.34 30.0204 206.34H186.978C192.38 206.34 197.273 204.149 200.815 200.609C204.356 197.068 206.546 192.179 206.546 186.773C206.546 175.967 197.784 167.205 186.978 167.205V167.203ZM186.978 88.9316H175.161V110.385C176.048 110.844 176.911 111.343 177.744 111.884C183.454 115.574 187.88 121.075 190.192 127.581C190.218 127.65 190.24 127.721 190.264 127.792C194.35 127.101 198.005 125.144 200.813 122.336C204.354 118.795 206.544 113.905 206.544 108.499C206.544 97.6918 197.781 88.9316 186.976 88.9316H186.978ZM81.9679 120.973C82.0799 120.973 82.1918 120.98 82.3038 120.986C82.2995 120.986 82.2952 120.986 82.2909 120.986C82.2263 120.982 82.1682 120.978 82.1079 120.978C82.0605 120.978 82.0153 120.978 81.9679 120.976V120.973ZM81.9658 120.973C81.9335 120.973 81.9033 120.973 81.871 120.973C81.6213 120.973 81.3673 120.984 81.1111 121.008L32.6147 125.327C32.0894 125.374 31.5813 125.469 31.0904 125.606C31.5791 125.469 32.0894 125.374 32.6147 125.327L81.1111 121.008C81.3974 120.982 81.6816 120.971 81.9636 120.976L81.9658 120.973ZM85.9379 122.039C85.9271 122.033 85.9164 122.028 85.9056 122.022C86.0068 122.078 86.108 122.138 86.207 122.198C86.1984 122.194 86.1898 122.188 86.1812 122.181C86.1037 122.136 86.0283 122.091 85.953 122.048C85.9487 122.046 85.9422 122.043 85.9379 122.039ZM86.4524 122.356C86.4352 122.345 86.4201 122.332 86.4051 122.321C86.3663 122.295 86.3276 122.272 86.2888 122.248C86.3448 122.282 86.3986 122.319 86.4546 122.356H86.4524ZM86.8723 122.65C86.8615 122.642 86.8486 122.633 86.8378 122.625C86.8163 122.607 86.7926 122.595 86.7711 122.577C86.8055 122.601 86.84 122.625 86.8723 122.65ZM83.518 121.137C83.4448 121.122 83.3759 121.109 83.3049 121.098C83.292 121.096 83.2791 121.094 83.264 121.092C83.4879 121.131 83.7075 121.178 83.9249 121.234C83.8862 121.225 83.8496 121.212 83.813 121.204C83.7656 121.193 83.7182 121.18 83.6666 121.169C83.6171 121.161 83.5675 121.146 83.518 121.137ZM82.7322 121.019C82.6827 121.012 82.6353 121.008 82.5858 121.004C82.5363 120.999 82.4889 120.997 82.4416 120.993C82.5385 120.999 82.6375 121.008 82.7344 121.019H82.7322ZM85.4277 121.776C85.3781 121.753 85.3265 121.729 85.2748 121.705C85.2619 121.699 85.2468 121.695 85.2317 121.688C85.2963 121.716 85.3609 121.746 85.4255 121.779L85.4277 121.776Z" fill="#73B4F7"/>
</svg>
