<svg width="34" height="30" viewBox="0 0 34 30" fill="none" xmlns="http://www.w3.org/2000/svg">
<path fill-rule="evenodd" clip-rule="evenodd" d="M20.2031 14.5266C22.2598 15.8397 24.1094 16.4618 25.7148 16.3161C25.9922 21.996 23.9121 25.3507 20.2246 26.7505C16.6621 25.4393 14.5605 22.2224 14.7109 16.2295C16.689 16.378 18.6499 15.77 20.2031 14.5266ZM15.2852 4.94668L19.332 8.76603H15.2852V4.94668ZM7.1543 13.5835H15.332C15.8672 13.5835 15.9375 14.3218 15.5898 14.5679C15.4277 14.5974 15.2676 14.623 15.1055 14.6447H7.16016C6.53125 14.6447 6.53125 13.5953 7.16016 13.5855L7.1543 13.5835ZM7.1543 16.8792H12.8555C12.8711 17.2415 12.8965 17.5939 12.9277 17.9384H7.16016C6.52734 17.9384 6.53516 16.8792 7.16016 16.8792H7.1543ZM7.1543 20.1749H13.25C13.3242 20.5391 13.4082 20.8935 13.502 21.2341H7.16016C6.52734 21.2341 6.53516 20.1749 7.16016 20.1749H7.1543ZM7.1543 10.2879H11.8594C12.4922 10.2879 12.4844 11.3451 11.8594 11.3451H7.16016C6.52734 11.3451 6.5332 10.2879 7.16016 10.2879H7.1543ZM7.1543 7.22254H9.74219C10.3652 7.22254 10.373 8.27975 9.74219 8.27975H7.16016C6.52734 8.27975 6.53516 7.22254 7.16016 7.22254H7.1543ZM21.584 9.31531C21.5843 9.16734 21.5366 9.02332 21.4481 8.90529C21.3595 8.78725 21.2351 8.70169 21.0937 8.66169L15.1328 2.80862C15.0699 2.73039 14.9904 2.66733 14.9002 2.62406C14.8099 2.5808 14.7112 2.55843 14.6113 2.55859H4.21094C3.88978 2.55859 3.58177 2.6872 3.35468 2.91611C3.12758 3.14502 3 3.45548 3 3.77921L3 24.6774C3.00052 25.0009 3.12826 25.3111 3.35525 25.5399C3.58223 25.7687 3.88994 25.8975 4.21094 25.898H15.8906C15.5231 25.4716 15.1912 25.0153 14.8984 24.5337H4.35156V3.91506H13.9375V9.44918C13.9372 9.53906 13.9546 9.62811 13.9885 9.71122C14.0225 9.79433 14.0724 9.86987 14.1353 9.93352C14.1983 9.99716 14.2731 10.0477 14.3554 10.0821C14.4378 10.1166 14.5261 10.1343 14.6152 10.1343H20.2305V12.4673C20.6888 12.7586 21.14 13.0244 21.584 13.2646V9.31531ZM20.2461 16.4697C21.6504 17.3655 22.918 17.7907 24.0059 17.6903C24.2012 21.5648 22.7754 23.8525 20.2617 24.8053C20.2458 24.8003 20.2301 24.7944 20.2148 24.7876V16.4953L20.2461 16.4697ZM20.2051 15.2274C22.0254 16.391 23.6719 16.9422 25.0879 16.8123C25.334 21.8404 23.4922 24.8093 20.2266 26.0476C17.0625 24.888 15.2051 22.0491 15.3437 16.7335C17.0947 16.865 18.8305 16.3265 20.2051 15.2255V15.2274Z" fill="#EEF2F5" stroke="#EEF2F5" stroke-width="0.3"/>
</svg>
