<svg width="30" height="28" viewBox="0 0 30 28" fill="none" xmlns="http://www.w3.org/2000/svg">
<path d="M27.3333 4.90602L12.12 20.1327L6.46663 14.4794L8.34663 12.5994L12.12 16.3727L25.4533 3.03935L27.3333 4.90602ZM14 24.666C8.11996 24.666 3.33329 19.8794 3.33329 13.9994C3.33329 8.11935 8.11996 3.33268 14 3.33268C16.0933 3.33268 18.0533 3.94602 19.7066 4.99935L21.64 3.06602C19.3994 1.50208 16.7324 0.66428 14 0.666018C6.63996 0.666018 0.666626 6.63935 0.666626 13.9994C0.666626 21.3594 6.63996 27.3327 14 27.3327C16.3066 27.3327 18.48 26.746 20.3733 25.706L18.3733 23.706C17.04 24.3194 15.56 24.666 14 24.666ZM23.3333 17.9994H19.3333V20.666H23.3333V24.666H26V20.666H30V17.9994H26L26 13.9994H23.3333L23.3333 17.9994Z" fill="#827F7F"/>
</svg>
