<svg width="25" height="23" viewBox="0 0 25 23" fill="none" xmlns="http://www.w3.org/2000/svg">
<path d="M10.8321 2.4983C10.9904 2.22664 11.2172 2.00123 11.4898 1.84457C11.7624 1.68791 12.0713 1.60547 12.3857 1.60547C12.7002 1.60547 13.0091 1.68791 13.2817 1.84457C13.5543 2.00123 13.7811 2.22664 13.9394 2.4983L16.1188 6.23859C16.2443 6.45447 16.4133 6.64185 16.6152 6.7888C16.8171 6.93576 17.0473 7.03906 17.2913 7.09215L21.5231 8.00804C21.8302 8.07482 22.1145 8.22096 22.3476 8.43188C22.5807 8.64279 22.7544 8.91112 22.8514 9.2101C22.9484 9.50908 22.9654 9.82828 22.9006 10.1359C22.8358 10.4435 22.6915 10.7287 22.4821 10.9631L19.599 14.1915C19.4327 14.3776 19.3069 14.5963 19.2297 14.8336C19.1525 15.071 19.1256 15.3218 19.1506 15.5701L19.5858 19.8775C19.6175 20.1904 19.5666 20.5061 19.4382 20.7931C19.3098 21.0802 19.1083 21.3286 18.8539 21.5135C18.5995 21.6983 18.3011 21.8133 17.9884 21.8468C17.6757 21.8803 17.3597 21.8312 17.0719 21.7045L13.111 19.959C12.8825 19.8583 12.6355 19.8062 12.3857 19.8062C12.136 19.8062 11.889 19.8583 11.6605 19.959L7.69959 21.7045C7.41179 21.8312 7.09577 21.8803 6.78308 21.8468C6.47039 21.8133 6.17196 21.6983 5.91756 21.5135C5.66317 21.3286 5.46171 21.0802 5.33328 20.7931C5.20486 20.5061 5.15396 20.1904 5.18568 19.8775L5.62085 15.5701C5.64604 15.3219 5.6193 15.0711 5.54231 14.8338C5.46533 14.5964 5.33979 14.3777 5.17369 14.1915L2.28935 10.9631C2.07995 10.7287 1.93566 10.4435 1.87087 10.1359C1.80607 9.82828 1.82304 9.50908 1.92007 9.2101C2.0171 8.91112 2.19081 8.64279 2.42388 8.43188C2.65695 8.22096 2.94124 8.07482 3.2484 8.00804L7.4802 7.09215C7.72429 7.03936 7.95471 6.9363 8.15678 6.78955C8.35884 6.6428 8.52812 6.45557 8.65384 6.23979L10.8321 2.4983Z" stroke="#EEF2F5" stroke-width="2.3" stroke-linecap="round" stroke-linejoin="round"/>
</svg>
