<svg width="24" height="24" viewBox="0 0 24 24" fill="none" xmlns="http://www.w3.org/2000/svg">
<path d="M20.7 8.04415L12.5095 4.00165C12.351 3.92348 12.1767 3.88281 12 3.88281C11.8233 3.88281 11.6489 3.92348 11.4905 4.00165L3.3 8.04415C2.986 8.198 2.72128 8.43659 2.53574 8.73296C2.3502 9.02933 2.25122 9.37168 2.25 9.72134V18.3749C2.25 19.4104 3.10031 20.2499 4.14937 20.2499H19.8525C20.9016 20.2499 21.7519 19.4104 21.7519 18.3749V9.72134C21.7505 9.37148 21.6512 9.02899 21.4653 8.7326C21.2794 8.43621 21.0143 8.19774 20.7 8.04415V8.04415Z" stroke="white" stroke-width="1.5" stroke-linecap="round" stroke-linejoin="round"/>
<path d="M18.6249 17.2467L12.5658 12.5339C12.3683 12.3803 12.1253 12.2969 11.8751 12.2969C11.6249 12.2969 11.3819 12.3803 11.1844 12.5339L5.12488 17.2467" stroke="white" stroke-width="1.5" stroke-linecap="round" stroke-linejoin="round"/>
<path d="M14.4999 13.8281L20.8749 9" stroke="white" stroke-width="1.5" stroke-linecap="round" stroke-linejoin="round"/>
<path d="M2.87476 9L9.39038 13.9219" stroke="white" stroke-width="1.5" stroke-linecap="round" stroke-linejoin="round"/>
</svg>
