<svg width="34" height="34" viewBox="0 0 34 34" fill="none" xmlns="http://www.w3.org/2000/svg">
<path d="M17 32C20.9782 32 24.7936 30.4196 27.6066 27.6066C30.4196 24.7936 32 20.9782 32 17C32 13.0218 30.4196 9.20644 27.6066 6.3934C24.7936 3.58035 20.9782 2 17 2C13.0218 2 9.20644 3.58035 6.3934 6.3934C3.58035 9.20644 2 13.0218 2 17C2 20.9782 3.58035 24.7936 6.3934 27.6066C9.20644 30.4196 13.0218 32 17 32Z" stroke="#006EC2" stroke-width="2.5" stroke-linecap="round" stroke-linejoin="round"/>
<path d="M20.9277 12.8972C20.7165 12.2963 20.3236 11.776 19.8034 11.4084C19.2833 11.0408 18.6616 10.8441 18.0247 10.8457H15.6431C14.9651 10.8446 14.3105 11.0944 13.8056 11.547C13.3007 11.9996 12.9811 12.623 12.9083 13.2971C12.8356 13.9713 13.0148 14.6485 13.4115 15.1984C13.8082 15.7484 14.3943 16.1321 15.057 16.2757L18.6824 17.0695C19.4235 17.2322 20.0786 17.6628 20.5217 18.2788C20.9648 18.8948 21.1647 19.6528 21.0832 20.4072C21.0017 21.1617 20.6444 21.8594 20.0799 22.3665C19.5154 22.8736 18.7835 23.1544 18.0247 23.1549H15.9754C15.3382 23.1563 14.7163 22.9593 14.1961 22.5913C13.6759 22.2232 13.2832 21.7024 13.0724 21.1011M17 10.8457V7.76953M17 26.2311V23.1526" stroke="#006EC2" stroke-width="2.5" stroke-linecap="round" stroke-linejoin="round"/>
</svg>
