<svg width="25" height="18" viewBox="0 0 25 18" fill="none" xmlns="http://www.w3.org/2000/svg">
<path d="M16.1512 1.73438L22.7663 7.66849C22.8951 7.78642 22.998 7.92988 23.0683 8.08972C23.1387 8.24957 23.1751 8.42232 23.1751 8.59697C23.1751 8.77163 23.1387 8.94438 23.0683 9.10422C22.998 9.26407 22.8951 9.40752 22.7663 9.52545L16.0385 15.625M8.66103 11.772V13.7081C8.63947 13.9292 8.68304 14.1518 8.78636 14.3484C8.88968 14.545 9.04826 14.7072 9.24255 14.8148C9.43685 14.9225 9.65839 14.971 9.8799 14.9543C10.1014 14.9377 10.3132 14.8566 10.4892 14.7211L16.6128 9.62495C16.7523 9.50123 16.864 9.34931 16.9405 9.17924C17.0169 9.00917 17.0565 8.82481 17.0565 8.63833C17.0565 8.45185 17.0169 8.26749 16.9405 8.09742C16.864 7.92735 16.7523 7.77544 16.6128 7.65171L10.4892 2.55556C10.3131 2.41996 10.1012 2.33886 9.87956 2.32224C9.65793 2.30562 9.43628 2.35421 9.24193 2.46203C9.04757 2.56985 8.88902 2.73218 8.7858 2.92901C8.68258 3.12584 8.63921 3.34858 8.66103 3.56976V5.60774C4.69057 5.60774 1.46816 9.179 1.46816 13.5846V15.1779C1.44063 15.3809 1.48831 15.5869 1.60222 15.7572C1.71613 15.9275 1.8884 16.0502 2.08654 16.1023C2.28469 16.1543 2.49503 16.1321 2.67791 16.0397C2.86079 15.9474 3.00358 15.7914 3.07937 15.601C3.53857 14.4918 4.31005 13.5398 5.30007 12.8607C6.2901 12.1816 7.45604 11.8046 8.65624 11.7756L8.66103 11.772Z" stroke="#EEF2F5" stroke-width="2.39762" stroke-linecap="round" stroke-linejoin="round"/>
</svg>
