<svg width="55" height="55" viewBox="0 0 55 55" fill="none" xmlns="http://www.w3.org/2000/svg">
<circle cx="27.5" cy="27.5" r="25.4583" fill="#06D188" stroke="white" stroke-width="3.91667"/>
<path fill-rule="evenodd" clip-rule="evenodd" d="M37.8411 20.5875C38.4035 21.0847 38.4561 21.9447 37.959 22.5107L27.5265 34.3039C27.4061 34.4402 27.2595 34.5509 27.0955 34.6295C26.9315 34.7081 26.7534 34.7531 26.5718 34.7617C26.3901 34.7703 26.2086 34.7424 26.0379 34.6797C25.8672 34.617 25.7108 34.5207 25.5779 34.3965L18.7742 28.0463C18.5124 27.7996 18.359 27.4594 18.3474 27.0999C18.3358 26.7404 18.467 26.391 18.7123 26.1279C18.9575 25.8649 19.297 25.7097 19.6564 25.6962C20.0158 25.6827 20.3659 25.812 20.6302 26.056L26.418 31.4445L35.9251 20.7037C36.0436 20.5696 36.1875 20.4602 36.3483 20.3817C36.5092 20.3033 36.684 20.2574 36.8626 20.2466C37.0413 20.2358 37.2203 20.2604 37.3894 20.3189C37.5586 20.3774 37.7145 20.4687 37.8483 20.5875H37.8411Z" fill="white"/>
</svg>
