<svg width="25" height="25" viewBox="0 0 25 25" fill="none" xmlns="http://www.w3.org/2000/svg">
<path d="M16.1114 0.795898L24.4718 4.97607V14.2983L22.9517 13.5383V6.67427L16.8715 9.7144V12.7783L15.3514 13.5383V9.7144L9.27114 6.67427V9.37001L7.75107 8.60997V4.97607L16.1114 0.795898ZM16.1114 8.39622L18.2134 7.3393L12.715 4.19229L10.2093 5.45109L16.1114 8.39622ZM19.8522 6.53176L22.0135 5.45109L16.1114 2.49409L14.342 3.38476L19.8522 6.53176ZM13.8313 14.2983L12.3113 15.0584V15.0465L7.75107 17.3266V22.7299L12.3113 20.438V22.148L6.99104 24.8081L0.150757 21.3761V13.3483L6.99104 9.92815L13.8313 13.3483V14.2983ZM6.23101 22.7299V17.3266L1.67082 15.0465V20.438L6.23101 22.7299ZM6.99104 16.0084L11.3731 13.8233L6.99104 11.6264L2.60898 13.8233L6.99104 16.0084ZM13.8313 15.9965L19.1516 13.3364L24.4718 15.9965V22.2549L19.1516 24.915L13.8313 22.2549V15.9965ZM18.3915 22.8368V19.2148L15.3514 17.6947V21.3168L18.3915 22.8368ZM22.9517 21.3168V17.6947L19.9116 19.2148V22.8368L22.9517 21.3168ZM19.1516 17.8966L22.0135 16.4597L19.1516 15.0346L16.2896 16.4597L19.1516 17.8966Z" fill="white"/>
</svg>
