<svg width="23" height="27" viewBox="0 0 23 27" fill="none" xmlns="http://www.w3.org/2000/svg">
<path d="M5.99108 3.19531C4.12573 3.25166 3.01443 3.45905 2.2448 4.22869C1.19104 5.28364 1.19104 6.97996 1.19104 10.3738V18.1733C1.19104 21.5683 1.19104 23.2646 2.2448 24.3196C3.29735 25.3733 4.99367 25.3733 8.38391 25.3733H14.378C17.7694 25.3733 19.4645 25.3733 20.5171 24.3184C21.572 23.2646 21.572 21.5683 21.572 18.1733V10.3738C21.572 6.98116 21.572 5.28364 20.5171 4.22869C19.7486 3.45905 18.6362 3.25166 16.7708 3.19531" stroke="#363333" stroke-width="1.79822" stroke-linecap="round" stroke-linejoin="round"/>
<path d="M13.1839 12.1877H17.3798M5.39166 13.3866C5.39166 13.3866 5.99107 13.3866 6.59047 14.5854C6.59047 14.5854 8.49419 11.5883 10.1869 10.9889M13.1839 19.3806H17.3798M6.59047 19.3806H7.78929M5.98627 3.49636C5.98627 2.33831 6.92614 1.39844 8.08419 1.39844H14.6777C15.2341 1.39844 15.7677 1.61947 16.1611 2.0129C16.5545 2.40634 16.7756 2.93996 16.7756 3.49636C16.7756 4.05276 16.5545 4.58638 16.1611 4.97981C15.7677 5.37325 15.2341 5.59428 14.6777 5.59428H8.08419C7.52779 5.59428 6.99418 5.37325 6.60074 4.97981C6.2073 4.58638 5.98627 4.05276 5.98627 3.49636Z" stroke="#363333" stroke-width="1.79822" stroke-linecap="round" stroke-linejoin="round"/>
</svg>
