<svg width="32" height="33" viewBox="0 0 32 33" fill="none" xmlns="http://www.w3.org/2000/svg">
<path d="M25.4014 3.42969H4.59864C4.26775 3.42969 4 3.66227 4 3.94969V28.9097C4 29.1971 4.26775 29.4297 4.59864 29.4297H25.4014C25.7322 29.4297 26 29.1971 26 28.9097V3.94969C26 3.66227 25.7322 3.42969 25.4014 3.42969ZM24.8027 28.3897H5.19728V4.46969H24.8027V28.3897Z" fill="#EEF2F5" stroke="#EEF2F5" stroke-width="0.6"/>
<path d="M8.53288 7.49245H9.81777V11.7591C9.81777 12.0539 10.0563 12.2924 10.3511 12.2924C10.6459 12.2924 10.8844 12.0539 10.8844 11.7591V7.49245H12.1693C12.4641 7.49245 12.7027 7.25391 12.7027 6.95911C12.7027 6.66432 12.4641 6.42578 12.1693 6.42578H8.53288C8.23809 6.42578 7.99954 6.66432 7.99954 6.95911C7.99954 7.25391 8.23809 7.49245 8.53288 7.49245ZM14.8339 12.2924C15.2782 12.2924 15.6964 12.1195 16.0105 11.8049L16.2718 11.5437L16.7725 12.1117C16.8777 12.2315 17.0251 12.2924 17.1725 12.2924C17.298 12.2924 17.4235 12.2487 17.5251 12.1591C17.7459 11.9643 17.7673 11.6273 17.5725 11.4065L17.0274 10.788L17.4407 10.3747C17.649 10.1664 17.649 9.82891 17.4407 9.62057C17.2324 9.41224 16.8949 9.41224 16.6865 9.62057L16.3208 9.98626L14.4912 7.91016C14.4011 7.80234 14.4157 7.64141 14.5235 7.55182C14.6318 7.46224 14.7933 7.47578 14.8829 7.58411L14.9683 7.68672C15.1568 7.91224 15.4928 7.94401 15.7193 7.75547C15.9459 7.56693 15.9766 7.23047 15.7881 7.00443L15.7027 6.9013C15.236 6.34141 14.4011 6.26589 13.8407 6.73203C13.2813 7.1987 13.2053 8.03359 13.6813 8.60443L13.9438 8.90231C13.5483 9.20342 13.2848 9.59922 13.1886 10.0628C13.0386 10.7878 13.3266 11.4742 13.6574 11.8049C13.9719 12.119 14.3896 12.2924 14.8339 12.2924ZM15.5652 10.7419L15.2563 11.0508C15.0303 11.2768 14.6381 11.2773 14.412 11.0503C14.2943 10.9331 14.1667 10.5997 14.2329 10.2794C14.2809 10.0484 14.4244 9.85772 14.6517 9.70547L15.5652 10.7419ZM20.9579 12.2924C21.4782 12.2924 21.9798 12.1148 22.4089 11.7784C22.6412 11.5966 22.6818 11.2617 22.5001 11.0299C22.3183 10.7982 21.9834 10.757 21.7516 10.9388C21.5115 11.1263 21.237 11.2258 20.9579 11.2258C20.1308 11.2258 19.4579 10.3883 19.4579 9.35911C19.4579 8.32995 20.1308 7.49245 20.9579 7.49245C21.237 7.49245 21.5115 7.59193 21.7516 7.77943C21.9834 7.9612 22.3183 7.92057 22.5001 7.68828C22.6818 7.45651 22.6412 7.12161 22.4089 6.93984C21.9798 6.60339 21.4782 6.42578 20.9579 6.42578C19.5428 6.42578 18.3912 7.74193 18.3912 9.35911C18.3912 10.9763 19.5428 12.2924 20.9579 12.2924ZM9.13288 15.7492C9.10632 15.7279 9.07454 15.7117 9.04225 15.7008C9.01048 15.6852 8.97819 15.6742 8.94121 15.669C8.87715 15.6529 8.80215 15.6529 8.73288 15.669C8.70111 15.6742 8.66882 15.6852 8.63704 15.7008C8.60475 15.7117 8.57298 15.7279 8.54121 15.7492C8.51413 15.7706 8.48757 15.7919 8.461 15.8128C8.36517 15.9143 8.30632 16.0529 8.30632 16.1919C8.30632 16.3357 8.35944 16.469 8.461 16.5706C8.51413 16.6185 8.57298 16.6612 8.63704 16.6878C8.70111 16.7143 8.77038 16.7253 8.83965 16.7253C8.90892 16.7253 8.97819 16.7143 9.04225 16.6878C9.10632 16.6612 9.16517 16.6185 9.21309 16.5706C9.31413 16.469 9.37298 16.3357 9.37298 16.1919C9.37298 16.0529 9.31413 15.9143 9.21309 15.8128C9.19173 15.7919 9.16517 15.7706 9.13288 15.7492ZM11.773 15.6591C11.4782 15.6591 11.2396 15.8977 11.2396 16.1924C11.2396 16.4872 11.4782 16.7258 11.773 16.7258H22.262C22.5568 16.7258 22.7954 16.4872 22.7954 16.1924C22.7954 15.8977 22.5568 15.6591 22.262 15.6591H11.773ZM9.21829 19.2372C9.09017 19.1143 8.90892 19.0555 8.73288 19.093C8.70111 19.0982 8.66882 19.1091 8.63704 19.1195C8.60475 19.1357 8.57298 19.1518 8.54121 19.1732C8.51413 19.1888 8.48757 19.2102 8.461 19.2372C8.41309 19.2852 8.37559 19.3435 8.34902 19.4076C8.32246 19.4768 8.30632 19.5461 8.30632 19.6159C8.30632 19.6852 8.32246 19.7544 8.34902 19.8185C8.37559 19.8826 8.41309 19.9409 8.461 19.9888C8.51413 20.0424 8.57298 20.0794 8.63704 20.1065C8.70111 20.1331 8.77038 20.1492 8.83965 20.1492C8.98392 20.1492 9.11725 20.0904 9.21829 19.9888C9.26621 19.9409 9.30371 19.8826 9.33027 19.8185C9.35684 19.7544 9.37298 19.6852 9.37298 19.6159C9.37298 19.5461 9.35684 19.4768 9.33027 19.4076C9.30371 19.3435 9.26621 19.2852 9.21829 19.2372ZM22.262 19.0815H11.773C11.4782 19.0815 11.2396 19.3201 11.2396 19.6148C11.2396 19.9096 11.4782 20.1482 11.773 20.1482H22.262C22.5568 20.1482 22.7954 19.9096 22.7954 19.6148C22.7954 19.3201 22.5568 19.0815 22.262 19.0815ZM9.21829 22.6612C9.19173 22.6341 9.16517 22.6128 9.13288 22.5919C9.10632 22.5758 9.07454 22.5596 9.04225 22.5435C9.01048 22.5279 8.97819 22.5221 8.94121 22.5117C8.83965 22.4904 8.73288 22.5008 8.63704 22.5435C8.56777 22.5706 8.51413 22.6076 8.461 22.6612C8.41309 22.7091 8.37559 22.7674 8.34902 22.8315C8.32246 22.8956 8.30632 22.9648 8.30632 23.0341C8.30632 23.1784 8.35944 23.3117 8.461 23.4128C8.51413 23.4612 8.57298 23.5039 8.63704 23.5305C8.70111 23.557 8.77038 23.5674 8.83965 23.5674C8.90892 23.5674 8.97819 23.557 9.04225 23.5305C9.10632 23.5039 9.16517 23.4612 9.21829 23.4128C9.31413 23.3117 9.37298 23.1784 9.37298 23.0341C9.37298 22.9648 9.35684 22.8956 9.33027 22.8315C9.30371 22.7674 9.26621 22.7091 9.21829 22.6612ZM22.262 22.5034H11.773C11.4782 22.5034 11.2396 22.7419 11.2396 23.0367C11.2396 23.3315 11.4782 23.5701 11.773 23.5701H22.262C22.5568 23.5701 22.7954 23.3315 22.7954 23.0367C22.7954 22.7419 22.5568 22.5034 22.262 22.5034ZM9.21829 26.0794C9.19173 26.0586 9.16517 26.0372 9.13288 26.0159C9.10632 25.9945 9.07454 25.9784 9.04225 25.9674C9.01048 25.9518 8.97819 25.9409 8.94642 25.9357C8.87715 25.9195 8.80215 25.9195 8.73288 25.9357C8.70111 25.9409 8.66882 25.9518 8.63704 25.9674C8.60475 25.9784 8.57298 25.9945 8.54121 26.0159C8.51413 26.0372 8.48757 26.0586 8.461 26.0794C8.41309 26.1331 8.37559 26.1919 8.34902 26.2555C8.31725 26.3195 8.30632 26.3888 8.30632 26.4586C8.30632 26.6023 8.35944 26.7357 8.461 26.8372C8.51413 26.8852 8.57298 26.9221 8.63704 26.9492C8.70111 26.9758 8.77038 26.9919 8.83965 26.9919C8.98392 26.9919 9.11725 26.9383 9.21829 26.8372C9.31413 26.7357 9.37298 26.6023 9.37298 26.4586C9.37298 26.3888 9.35684 26.3195 9.33027 26.2555C9.30371 26.1919 9.26621 26.1331 9.21829 26.0794ZM22.262 25.9258H11.773C11.4782 25.9258 11.2396 26.1643 11.2396 26.4591C11.2396 26.7539 11.4782 26.9924 11.773 26.9924H22.262C22.5568 26.9924 22.7954 26.7539 22.7954 26.4591C22.7954 26.1643 22.5568 25.9258 22.262 25.9258Z" fill="#EEF2F5" stroke="#EEF2F5" stroke-width="0.3"/>
</svg>
