<svg width="12" height="12" viewBox="0 0 12 12" fill="none" xmlns="http://www.w3.org/2000/svg">
<path fill-rule="evenodd" clip-rule="evenodd" d="M4.58981 3.13203C4.22248 3.40736 4.05648 3.73736 4.05648 4.04536C4.05648 4.35336 4.22248 4.68403 4.58981 4.96003C4.95781 5.23603 5.49648 5.4267 6.11981 5.4267C6.29662 5.4267 6.46619 5.49694 6.59122 5.62196C6.71624 5.74698 6.78648 5.91655 6.78648 6.09336C6.78648 6.27018 6.71624 6.43974 6.59122 6.56477C6.46619 6.68979 6.29662 6.76003 6.11981 6.76003C5.23581 6.76003 4.40981 6.49203 3.78981 6.0267C3.16981 5.56136 2.72314 4.86803 2.72314 4.04603C2.72314 3.22403 3.16981 2.53003 3.78981 2.0647C4.40981 1.60003 5.23648 1.33203 6.11981 1.33203C7.48848 1.33203 8.78248 1.98736 9.29714 3.0787C9.33448 3.15793 9.35585 3.24374 9.36003 3.33123C9.3642 3.41872 9.35111 3.50617 9.32149 3.5886C9.29186 3.67103 9.2463 3.74681 9.18739 3.81163C9.12848 3.87645 9.05738 3.92903 8.97814 3.96636C8.89891 4.0037 8.8131 4.02507 8.72562 4.02925C8.63813 4.03342 8.55067 4.02033 8.46824 3.99071C8.38582 3.96108 8.31003 3.91552 8.24521 3.85661C8.1804 3.7977 8.12782 3.7266 8.09048 3.64736C7.85714 3.14936 7.12914 2.66536 6.12048 2.66536C5.49714 2.66536 4.95781 2.85603 4.58981 3.13203Z" fill="white"/>
<path fill-rule="evenodd" clip-rule="evenodd" d="M7.42982 9.05533C7.79715 8.78 7.96249 8.45 7.96249 8.142C7.96249 7.834 7.79715 7.50267 7.42915 7.22733C7.06182 6.95133 6.52249 6.76067 5.89982 6.76067C5.72301 6.76067 5.55344 6.69043 5.42842 6.5654C5.30339 6.44038 5.23315 6.27081 5.23315 6.094C5.23315 5.91719 5.30339 5.74762 5.42842 5.6226C5.55344 5.49757 5.72301 5.42733 5.89982 5.42733C6.78382 5.42733 7.60982 5.69533 8.22982 6.16067C8.84982 6.626 9.29582 7.31933 9.29582 8.14133C9.29582 8.96333 8.84982 9.65733 8.22915 10.122C7.60915 10.5873 6.78382 10.8553 5.89982 10.8553C4.53115 10.8553 3.23649 10.2 2.72249 9.108C2.64708 8.94807 2.63829 8.76474 2.69805 8.59834C2.75781 8.43193 2.88123 8.29608 3.04115 8.22067C3.20108 8.14526 3.38441 8.13647 3.55082 8.19623C3.71723 8.25599 3.85308 8.37941 3.92849 8.53933C4.16315 9.038 4.89115 9.522 5.89982 9.522C6.52315 9.522 7.06182 9.33133 7.42982 9.05533ZM5.99182 0C6.16863 0 6.3382 0.0702379 6.46323 0.195262C6.58825 0.320286 6.65849 0.489856 6.65849 0.666667V1.33333C6.65849 1.51014 6.58825 1.67971 6.46323 1.80474C6.3382 1.92976 6.16863 2 5.99182 2C5.81501 2 5.64544 1.92976 5.52042 1.80474C5.39539 1.67971 5.32515 1.51014 5.32515 1.33333V0.666667C5.32515 0.489856 5.39539 0.320286 5.52042 0.195262C5.64544 0.0702379 5.81501 0 5.99182 0Z" fill="white"/>
<path fill-rule="evenodd" clip-rule="evenodd" d="M5.99174 10C6.16855 10 6.33812 10.0702 6.46314 10.1953C6.58817 10.3203 6.65841 10.4899 6.65841 10.6667V11.3333C6.65841 11.5101 6.58817 11.6797 6.46314 11.8047C6.33812 11.9298 6.16855 12 5.99174 12C5.81493 12 5.64536 11.9298 5.52034 11.8047C5.39531 11.6797 5.32507 11.5101 5.32507 11.3333V10.6667C5.32507 10.4899 5.39531 10.3203 5.52034 10.1953C5.64536 10.0702 5.81493 10 5.99174 10Z" fill="white"/>
<path d="M0.187141 1.13762C0.0657025 1.01189 -0.00149374 0.843484 2.52018e-05 0.668686C0.00154415 0.493888 0.0716567 0.32668 0.195262 0.203075C0.318868 0.0794692 0.486076 0.00935665 0.660874 0.0078377C0.835672 0.00631876 1.00407 0.073515 1.12981 0.194954L11.7965 10.8616C11.9179 10.9874 11.9851 11.1558 11.9836 11.3306C11.9821 11.5054 11.912 11.6726 11.7884 11.7962C11.6647 11.9198 11.4975 11.9899 11.3227 11.9914C11.1479 11.9929 10.9795 11.9257 10.8538 11.8043L0.187141 1.13762Z" fill="white"/>
</svg>
