<svg width="21" height="27" viewBox="0 0 21 27" fill="none" xmlns="http://www.w3.org/2000/svg">
<path d="M11.9822 16.9787H17.9762V13.3822H11.9822V16.9787ZM19.175 19.3763H11.9822L10.6035 20.7549C10.5036 20.8548 10.3937 20.91 10.2739 20.9204C10.154 20.9308 10.0441 20.9156 9.94419 20.8748C9.84429 20.8341 9.75917 20.7689 9.68884 20.6794C9.61851 20.5899 9.58375 20.4752 9.58454 20.3354V12.1834C9.58454 11.8438 9.69963 11.5592 9.9298 11.3299C10.16 11.1005 10.4445 10.9854 10.7834 10.9846H19.175C19.5147 10.9846 19.7996 11.0997 20.0298 11.3299C20.26 11.56 20.3747 11.8446 20.3739 12.1834V18.1775C20.3739 18.5172 20.2588 18.8021 20.0286 19.0322C19.7984 19.2624 19.5139 19.3771 19.175 19.3763ZM2.39167 26.5692C1.73233 26.5692 1.16809 26.3346 0.69895 25.8655C0.229815 25.3963 -0.00515172 24.8317 -0.00595093 24.1716V2.59294C-0.00595093 1.93359 0.229016 1.36935 0.69895 0.900214C1.16888 0.431079 1.73313 0.196112 2.39167 0.195312H14.3798C15.0391 0.195312 15.6038 0.43028 16.0737 0.900214C16.5436 1.37015 16.7782 1.93439 16.7774 2.59294V7.38818C16.7774 7.72785 16.6623 8.01276 16.4322 8.24294C16.202 8.47311 15.9175 8.5878 15.5786 8.587C15.2397 8.5862 14.9552 8.47111 14.725 8.24174C14.4949 8.01236 14.3798 7.72785 14.3798 7.38818V2.59294H2.39167V24.1716H14.3798V22.9727C14.3798 22.6331 14.4949 22.3486 14.725 22.1192C14.9552 21.8898 15.2397 21.7747 15.5786 21.7739C15.9175 21.7731 16.2024 21.8882 16.4334 22.1192C16.6643 22.3502 16.779 22.6347 16.7774 22.9727V24.1716C16.7774 24.8309 16.5428 25.3955 16.0737 25.8655C15.6046 26.3354 15.0399 26.57 14.3798 26.5692H2.39167ZM8.38573 6.18937C8.7254 6.18937 9.01031 6.07429 9.24049 5.84411C9.47066 5.61394 9.58534 5.32942 9.58454 4.99056C9.58375 4.6517 9.46866 4.36718 9.23929 4.13701C9.00991 3.90683 8.7254 3.79175 8.38573 3.79175C8.04607 3.79175 7.76155 3.90683 7.53218 4.13701C7.30281 4.36718 7.18772 4.6517 7.18692 4.99056C7.18612 5.32942 7.30121 5.61434 7.53218 5.84531C7.76315 6.07628 8.04767 6.19097 8.38573 6.18937Z" fill="#EBEBF0"/>
</svg>
