<svg width="21" height="18" viewBox="0 0 21 18" fill="none" xmlns="http://www.w3.org/2000/svg">
<path d="M9.0755 0.343557C9.51639 0.117756 10.0046 0 10.5 0C10.9954 0 11.4836 0.117756 11.9245 0.343557L18.7995 3.86456C19.3479 4.14535 19.801 4.58198 20.102 5.11956L10.501 10.1736L0.917 5.08656C1.21795 4.5639 1.66371 4.1395 2.2005 3.86456L9.0755 0.343557ZM0.5205 6.29106C0.507167 6.40772 0.500333 6.52606 0.5 6.64606V14.8736C0.5 15.7024 0.82924 16.4972 1.41529 17.0833C2.00134 17.6693 2.7962 17.9986 3.625 17.9986H17.375C18.2038 17.9986 18.9987 17.6693 19.5847 17.0833C20.1708 16.4972 20.5 15.7024 20.5 14.8736V6.64606C20.5 6.54006 20.4947 6.43506 20.484 6.33106L10.791 11.4336C10.7009 11.481 10.6007 11.5056 10.4989 11.5055C10.3971 11.5053 10.2969 11.4803 10.207 11.4326L0.5205 6.29106Z" fill="#A4A4AD"/>
</svg>
