<svg width="21" height="22" viewBox="0 0 21 22" fill="none" xmlns="http://www.w3.org/2000/svg">
<path d="M20 21C19.3983 9.33375 1.60167 9.33375 1 21M14.3 4.75C14.3 5.74456 13.8996 6.69839 13.187 7.40165C12.4744 8.10491 11.5078 8.5 10.5 8.5C9.49218 8.5 8.52563 8.10491 7.81299 7.40165C7.10036 6.69839 6.7 5.74456 6.7 4.75C6.7 3.75544 7.10036 2.80161 7.81299 2.09835C8.52563 1.39509 9.49218 1 10.5 1C11.5078 1 12.4744 1.39509 13.187 2.09835C13.8996 2.80161 14.3 3.75544 14.3 4.75Z" stroke="#363333" stroke-width="2" stroke-linecap="round" stroke-linejoin="round"/>
</svg>
